<svg width="124" height="81" viewBox="0 0 124 81" fill="none" xmlns="http://www.w3.org/2000/svg">
<path d="M83.1082 26.252C82.7747 22.733 81.8852 19.1584 80.5815 15.8701C80.5454 15.7783 80.5093 15.6894 80.4731 15.5976C78.6719 11.0974 76.3037 6.34424 72.0953 3.68969C71.506 3.31722 70.8167 2.98366 70.1245 2.85858C67.7507 2.42774 66.2219 4.16223 64.96 5.91062C62.2526 9.66591 59.9066 13.7548 56.8629 17.2571C55.5926 18.7164 53.8804 19.7143 52.1486 20.5287C50.6449 21.2348 48.5212 21.6712 47.6262 23.2111C47.3982 23.6058 47.2926 24.2173 47.1064 24.5397C46.9563 24.7955 46.6644 24.9094 46.4865 25.1374C44.1655 28.1282 44.9299 32.6813 47.9097 34.9439C49.0716 35.8251 49.911 35.7389 51.1758 36.0724C51.3926 36.128 52.4016 36.6034 52.5267 36.7284C53.002 37.201 53.6191 39.2857 54.1444 39.5442C54.3056 39.6248 54.5197 39.572 54.6447 39.6304C54.97 39.786 57.7524 45.0868 58.2416 45.904C58.6863 46.6462 59.0866 47.6663 60.0984 47.6663C60.7738 47.6663 61.441 47.2744 62.0052 46.9436C63.1365 46.2793 64.9628 45.8123 65.313 44.353C65.6688 42.8631 64.4318 42.5768 63.5424 41.8318C63.295 41.6234 62.2721 40.1891 62.1359 39.8861C61.8801 39.3246 62.2304 39.0828 62.2304 38.6519C62.2304 37.8181 61.4938 37.6318 61.0796 37.0648C60.8767 36.784 60.5543 36.3643 60.6265 35.9863C60.6988 35.6082 61.0852 35.561 61.2436 35.2497C61.2825 35.1718 61.2936 35.0829 61.3048 34.9939C61.4159 34.0878 61.3409 33.8293 62.286 33.9015C62.8224 33.9432 64.1594 34.1879 64.1594 34.1879C64.1594 34.1879 70.661 35.4859 73.9382 36.028C76.1341 36.3893 79.0444 36.6867 80.979 35.347C83.7253 33.4457 83.3806 29.1456 83.1054 26.252H83.1082ZM48.3489 33.7514C48.1821 33.6375 48.0237 33.5096 47.8847 33.3595C47.754 33.2205 47.6345 33.0704 47.5261 32.912C47.4177 32.7536 47.3232 32.5923 47.2342 32.4256C46.7951 31.5945 46.4559 30.7494 46.317 29.8155C46.3003 29.696 46.2836 29.5737 46.2725 29.4541C46.1974 28.6286 46.2892 27.7836 46.6672 27.0359C46.7311 26.908 46.8034 26.7857 46.8812 26.6662C46.8673 26.6884 46.8951 26.7968 46.8979 26.8246C46.9035 26.8857 46.9118 26.9497 46.9201 27.0108C46.934 27.1304 46.9507 27.2499 46.9646 27.3694C46.998 27.6085 47.0313 27.8447 47.073 28.081C47.1509 28.5535 47.2454 29.0261 47.3565 29.493C47.5678 30.402 47.8207 31.2915 48.2849 32.1087C48.4462 32.3922 48.6213 32.6702 48.7853 32.9537C48.9576 33.2511 49.13 33.5458 49.3023 33.8432L49.5997 34.3546C49.6219 34.3935 49.672 34.5325 49.7137 34.552C49.4635 34.4269 49.2272 34.2712 48.9826 34.135C48.7658 34.0127 48.549 33.8932 48.3461 33.7514H48.3489ZM51.1785 34.3574C50.7977 33.9238 50.4781 33.4457 50.1278 32.987C49.18 31.7501 48.5768 30.1657 48.2738 28.6453C48.0459 27.5028 48.0209 26.3298 48.1821 25.1763C48.221 24.9094 48.2127 24.6287 48.3127 24.3702L48.3683 24.0894C48.3989 23.9282 48.5601 23.7614 48.6796 23.6586C49.3718 23.061 50.2001 22.669 51.0312 22.3077C51.4954 22.1048 51.9624 21.9102 52.4266 21.7073C52.4266 21.7073 52.2237 22.4356 52.2042 22.5634C52.1792 22.7302 52.1125 23.2528 52.1125 23.3917C52.093 24.9428 52.4044 26.4855 52.9269 27.9392C53.4717 29.4458 54.1694 30.9496 55.2201 32.1754C55.7566 32.8008 56.4015 33.3512 57.0491 33.8571C57.1965 33.971 57.2604 33.921 57.1047 34.1156C55.9762 34.4158 54.7726 35.2719 53.6941 35.5804C53.1938 35.725 52.6851 35.561 52.257 35.2969C52.0347 35.1607 51.829 34.9967 51.6372 34.8244C51.4732 34.6771 51.3203 34.5214 51.1758 34.3546L51.1785 34.3574ZM61.0435 38.7687C61.0351 38.9938 60.8128 39.2718 60.8545 39.6582C60.9128 40.2113 62.2748 42.1737 62.7113 42.5962C63.0726 42.9465 64.1233 43.3329 64.2067 43.6414C64.4457 44.5086 63.7119 44.5726 63.1782 44.8755C62.5445 45.2341 60.8656 46.3488 60.2791 46.4405C59.9594 46.4905 59.9205 46.3877 59.7454 46.1514C58.0832 43.9138 56.874 40.795 55.3341 38.424C55.2646 38.3351 55.0645 38.3684 54.8977 38.2934C54.5502 38.1377 54.4307 37.8347 54.2528 37.4901C54.15 37.2899 53.8192 36.8285 54.0054 36.6617C55.5565 35.9613 60.1623 33.9321 60.1623 33.9321C60.4319 34.6465 59.6842 35.1413 59.3062 35.5971C59.0143 35.9501 58.5835 36.3393 58.4112 36.7396C58.2444 37.1287 58.2138 37.4233 58.3027 37.8347C58.4723 37.6068 58.6224 37.7041 58.7753 37.8736C59.0783 38.21 59.5035 38.8437 59.7843 39.2384C59.9066 39.4108 59.776 39.6109 60.1317 39.4636C60.0706 38.6186 59.5925 38.0182 59.1617 37.3372C59.2061 37.0954 59.2395 36.7757 59.5536 36.759C59.6064 37.3983 61.0574 38.3712 61.0435 38.7687ZM81.61 32.7536C81.5766 32.8481 81.2069 33.8043 80.5871 34.3324C79.339 35.397 78.1855 35.2997 76.804 34.5464C72.2565 32.0698 68.1788 22.6412 66.9502 17.7908C66.7417 16.9652 66.5527 16.0535 66.3998 15.2141C66.0968 13.5602 65.88 11.9007 65.8661 10.2079C65.8522 8.35392 65.9718 6.29977 67.2865 4.85714C67.987 4.08718 69.5797 3.65634 70.5415 4.10386C70.7138 4.18447 71.153 4.37348 71.3059 4.45687C75.1724 6.486 79.1583 14.0772 80.2368 18.1827C80.4703 18.7998 80.8011 19.806 80.8789 20.1007C81.1124 21.0124 81.3543 21.9213 81.5488 22.8414C81.8852 24.4313 82.0992 26.0852 82.1882 27.7057C82.2354 28.5702 82.2215 29.443 82.1326 30.3047C82.0436 31.1664 81.8824 31.9641 81.61 32.7563V32.7536Z" fill="#32271E"/>
<path d="M77.7463 32.9231C77.5045 32.7869 77.2015 32.4506 77.0903 32.4005C76.9819 32.3505 76.5983 31.9669 76.451 31.8391C75.3336 30.8523 73.9966 29.0038 73.2461 27.703C73.0848 27.4222 72.4177 26.2603 72.5095 26.0491C73.0237 25.7127 73.5796 25.3041 73.9771 24.8344C74.5164 24.1978 74.9639 23.4362 75.114 22.6023C75.114 22.5884 75.1195 22.5745 75.1223 22.5606C75.1501 22.3966 75.1696 22.2326 75.1863 22.0659C75.3614 20.1368 74.1356 16.9152 72.3566 15.9618C71.2892 15.3892 69.677 15.5532 68.5846 15.9618C68.1732 13.9382 67.8091 11.8368 67.8341 9.76041C67.8452 8.85147 67.9926 7.30878 68.5262 6.34702C69.0766 5.42696 69.6715 4.96276 70.5248 4.89883C70.2802 4.58751 69.6826 4.657 69.3435 4.73761C67.1559 5.26574 66.7834 8.79588 66.8057 10.6499C66.8751 16.8874 70.6777 27.4806 75.1362 31.9864C76.5094 33.3762 79.2834 35.3331 80.7261 33.0371C79.6253 33.6653 78.7914 33.5124 77.7463 32.9259V32.9231ZM71.1641 23.628C70.2691 21.6295 69.5909 19.5142 69.0294 17.4128C68.9821 17.2376 68.9071 16.9736 68.8403 16.8096C68.8848 16.565 70.6165 16.2981 71.039 16.3704C71.2864 16.4121 71.4226 16.4649 71.4588 16.476C71.6394 16.5288 71.784 16.5455 72.0453 16.6984C73.8354 17.7435 74.9083 21.2264 74.1272 23.1332C74.0605 23.2945 73.9549 23.5168 73.8715 23.6558C73.4601 24.3618 72.9042 24.9734 72.1398 25.3014C71.8868 25.2847 71.2975 23.931 71.1613 23.6308L71.1641 23.628Z" fill="#32271E"/>
<path d="M56.3904 32.0976C56.7072 32.4144 57.0519 32.7091 57.3994 32.9732C57.6551 33.1677 57.9581 33.3901 58.2889 33.4096C58.7169 33.4374 59.0783 33.0982 59.4507 32.937C59.851 32.7647 60.2846 32.6757 60.721 32.6757C60.9156 32.6757 61.1074 32.7091 61.302 32.723C61.5466 32.7424 61.7912 32.7647 62.033 32.7897C62.5195 32.8369 63.0059 32.8925 63.4923 32.9537C64.4652 33.076 65.4325 33.2233 66.3998 33.3845C67.3671 33.5458 68.3317 33.7209 69.2962 33.9043C70.2607 34.085 71.2253 34.274 72.187 34.4575C73.1488 34.6409 74.1133 34.8216 75.0778 34.9912C75.2418 35.019 75.4058 35.0468 75.5698 35.0773C75.4142 34.9272 75.2557 34.7827 75.0945 34.6382C73.7714 33.4512 72.5901 32.1087 71.5533 30.6633C71.3003 30.3103 71.0557 29.9517 70.825 29.5848C70.6832 29.3596 70.5443 29.1345 70.4081 28.9038C67.5172 24.0199 65.2213 17.2877 64.8238 11.6367C64.796 11.2197 64.7765 10.5776 64.7793 10.1635C64.7793 9.5992 64.7237 8.58463 64.7904 8.00646C63.9676 9.24618 63.1449 10.497 62.2832 11.7117C60.8906 13.6797 59.4146 15.8506 57.9025 17.6991C57.2159 18.5385 56.5655 19.3418 55.6482 19.9589C55.0895 20.3341 53.5218 21.1347 53.5218 21.1347C53.5218 21.1347 53.3355 21.6406 53.2827 21.9241C53.216 22.2688 53.216 22.43 53.191 22.7524C53.0909 24.0199 53.2494 25.3097 53.5385 26.5439C53.8498 27.8614 54.3279 29.1539 55.0172 30.3186C55.2729 30.7522 55.562 31.1692 55.89 31.5528C56.0457 31.7362 56.2152 31.9169 56.3904 32.092V32.0976Z" fill="#F5F3DB"/>
<path d="M62.714 42.5962C62.2776 42.171 60.9156 40.2085 60.8572 39.6582C60.8155 39.2718 61.0379 38.9911 61.0463 38.7687C61.0602 38.3712 59.6092 37.3983 59.5564 36.759C59.2423 36.7757 59.2089 37.0954 59.1644 37.3372C59.5953 38.0182 60.0734 38.6214 60.1345 39.4636C59.776 39.6109 59.9094 39.4108 59.7871 39.2384C59.5063 38.8437 59.0811 38.21 58.7781 37.8736C58.6224 37.7013 58.4751 37.6068 58.3055 37.8347C58.2166 37.4233 58.2472 37.1287 58.4139 36.7396C58.5863 36.3393 59.0143 35.9501 59.309 35.5971C59.687 35.1413 60.4347 34.6465 60.1651 33.9321C60.1651 33.9321 55.5565 35.9613 54.0082 36.6617C53.822 36.8285 54.1555 37.2899 54.2556 37.4901C54.4335 37.8347 54.553 38.1405 54.9005 38.2934C55.0673 38.3684 55.2674 38.3351 55.3369 38.424C56.8768 40.795 58.0859 43.911 59.7482 46.1514C59.9233 46.3877 59.965 46.4905 60.2819 46.4405C60.8684 46.3515 62.55 45.2341 63.181 44.8755C63.7175 44.5726 64.4485 44.5086 64.2095 43.6414C64.1261 43.3329 63.0754 42.9493 62.714 42.5962Z" fill="#F5F3DB"/>
<path d="M46.884 26.6689C46.417 27.375 46.2308 28.2116 46.2503 29.0511C46.2614 29.4708 46.317 29.8905 46.4031 30.3019C46.4949 30.7439 46.6394 31.1747 46.8229 31.5889C46.998 31.9864 47.1953 32.3978 47.426 32.7647C47.426 32.7675 47.4316 32.773 47.4344 32.7758C47.6484 33.1149 47.9153 33.4207 48.221 33.6792C48.2377 33.6931 48.335 33.757 48.335 33.7737L49.7165 34.5548C49.5135 34.2045 49.3106 33.8571 49.1077 33.5068L48.5879 32.6118L48.3433 32.1893C48.0181 31.6278 47.7652 31.0274 47.59 30.402C47.4594 29.9378 47.3454 29.468 47.2481 28.9955C47.0869 28.2283 46.9646 27.45 46.884 26.6689Z" fill="#F5F3DB"/>
<path d="M77.4544 14.1661C77.0931 13.3906 76.7067 12.6262 76.2814 11.8841C75.8561 11.1419 75.3919 10.4136 74.8777 9.72706C74.6053 9.36293 74.319 9.00713 74.0188 8.66524C73.3767 7.93419 72.9959 7.48389 72.2843 6.87237C72.1926 6.79454 72.0953 6.71949 71.9952 6.65834C71.834 6.56383 71.6811 6.45821 71.5144 6.37204C71.1891 6.1997 70.8445 6.06072 70.4803 5.98845C69.7826 5.84669 69.0877 6.01625 68.5791 6.53048C67.9286 7.18925 67.8397 8.85425 67.8286 9.76319C67.8035 11.8396 68.1677 13.941 68.5791 15.9646C69.6715 15.556 71.2864 15.392 72.351 15.9646C74.13 16.9208 75.3558 20.1424 75.1807 22.0686C75.1501 22.3911 75.0834 22.7302 75 23.0415C74.8749 23.5002 74.6331 23.8837 74.3746 24.2757C74.2495 24.4647 74.1189 24.662 73.9715 24.8372C73.5741 25.3069 73.0181 25.7155 72.5039 26.0519C72.4122 26.2631 73.0793 27.425 73.2405 27.7057C73.991 29.0066 75.328 30.8578 76.4454 31.8418C76.59 31.9697 76.9763 32.3533 77.0847 32.4033C77.1987 32.4561 77.2682 32.5062 77.3127 32.5201C79.1361 33.0871 79.9561 32.0392 80.4259 30.4075C81.7351 25.8684 79.4141 18.3828 77.4489 14.1717L77.4544 14.1661Z" fill="#F5F3DB"/>
<path d="M73.8798 23.628C75.2085 21.4432 73.8326 17.7435 72.0425 16.6984C71.7812 16.5455 71.6394 16.5233 71.4588 16.4705C71.0891 18.2355 71.4588 20.2619 72.415 21.7823C72.7624 22.3355 73.1377 22.8664 73.5463 23.3778C73.6019 23.4501 73.7297 23.6447 73.8326 23.6475C73.852 23.6475 73.8687 23.6475 73.8798 23.6308V23.628Z" fill="#F5F3DB"/>
<path d="M81.9852 25.3597C81.8852 24.5536 81.7545 23.7531 81.5878 22.9637C81.3821 22.0019 81.1291 21.0485 80.8817 20.0951C80.8067 19.8394 80.7261 19.5836 80.6455 19.3279C80.3564 18.4218 80.0895 17.4961 79.7449 16.6067C79.7004 16.4816 79.6559 16.3565 79.6087 16.2342C79.3752 15.6143 79.1222 15.0028 78.8498 14.3996C78.5552 13.7464 78.2439 13.1043 77.9103 12.4706C77.5684 11.8146 77.2043 11.1697 76.8235 10.5387C76.4426 9.91052 76.0424 9.29344 75.6171 8.69581C75.1918 8.09819 74.7804 7.5645 74.3218 7.03081C73.8993 6.53882 73.4518 6.06906 72.9709 5.63822C72.5428 5.25463 72.087 4.90161 71.5922 4.60697C71.5005 4.55138 71.406 4.49856 71.3087 4.44853C71.153 4.36792 70.7166 4.17613 70.5443 4.09552C69.5825 3.65078 67.9898 4.07884 67.2893 4.8488C65.9745 6.29143 65.855 8.34558 65.8689 10.1996C65.88 11.8924 66.0968 13.5518 66.4026 15.2057C66.5555 16.0452 66.7445 16.9569 66.953 17.7824C68.1816 22.6329 72.2621 32.0614 76.8068 34.5381C78.1855 35.2886 79.3418 35.3887 80.5899 34.3241C81.2097 33.7959 81.5794 32.8397 81.6128 32.7452C82.1715 31.133 82.2854 29.3791 82.1937 27.6863C82.152 26.9108 82.0853 26.1297 81.9908 25.3514L81.9852 25.3597ZM75.1334 31.9836C70.6749 27.4778 66.8751 16.8874 66.8029 10.6471C66.7806 8.7931 67.1531 5.26574 69.3407 4.73483C69.6798 4.65422 70.2774 4.58195 70.522 4.89605C69.6687 4.9572 68.8431 5.35747 68.2483 6.97522C68.7041 6.42763 69.3407 6.0774 70.0606 6.06072C70.5081 6.0496 70.9529 6.15801 71.3643 6.33034C71.7729 6.50268 72.1259 6.76397 72.4483 7.06417C73.121 7.68681 73.7686 8.35392 74.3551 9.06273C74.3635 9.07384 74.3746 9.08496 74.3829 9.09608C74.6498 9.41852 74.9027 9.75486 75.1446 10.0968C75.3864 10.4386 75.6393 10.7889 75.845 11.1558C76.2981 11.8868 76.7095 12.6429 77.0903 13.4129C77.2126 13.663 77.3349 13.9132 77.4517 14.1661C79.4141 18.3773 81.7379 25.8656 80.4286 30.402C79.9589 32.0336 78.7831 32.862 76.9597 32.2921C77.1459 32.5562 77.4989 32.7841 77.7407 32.9203C78.7859 33.5096 79.6198 33.6597 80.7205 33.0315C79.2751 35.3247 76.5038 33.3679 75.1307 31.9808L75.1334 31.9836Z" fill="#DA392C"/>
<path d="M57.0491 33.8599C56.5043 33.4346 55.9651 32.9787 55.4925 32.4673C54.9894 31.9197 54.5836 31.2887 54.2056 30.6494C53.8081 29.9739 53.4578 29.2707 53.1604 28.5452C52.5711 27.1053 52.1903 25.571 52.1236 24.0144C52.1153 23.8087 52.1125 23.6002 52.1125 23.3945C52.1125 23.2555 52.182 22.733 52.2042 22.5662C52.2237 22.4411 52.4433 21.6378 52.4433 21.6378C52.4544 21.6378 51.9513 21.8602 51.7289 21.9602C51.0562 22.2604 50.5281 22.4522 50.0028 22.7358C49.6887 22.9025 49.3746 23.0721 49.0938 23.2917C48.8826 23.4585 48.6463 23.6336 48.4851 23.8532C48.3711 24.0116 48.3239 24.2201 48.2988 24.4091C48.2127 24.6593 48.2155 24.9261 48.1821 25.1791C47.8235 27.7085 48.31 29.8878 49.4996 32.1198C49.6775 32.4561 50.0111 32.8064 50.2223 33.1177C50.631 33.7181 51.0757 34.3102 51.6094 34.8049C51.8067 34.9884 52.0208 35.1552 52.2487 35.2969C52.6795 35.5638 53.191 35.7278 53.6941 35.5832C54.7698 35.2747 55.9734 34.4186 57.1047 34.1184C57.2604 33.9238 57.1937 33.9738 57.0491 33.8599Z" fill="#DA392C"/>
<path d="M73.2322 22.9303C72.9348 22.5634 72.6762 22.1743 72.4177 21.7796C71.4588 20.2591 71.0919 18.2327 71.4615 16.4677C71.4254 16.4566 71.2864 16.4121 71.039 16.3704C70.6165 16.2981 68.8932 16.5538 68.8403 16.8096C68.9071 16.9736 68.9821 17.2376 69.0294 17.4128C69.5909 19.5142 70.2691 21.6322 71.1641 23.628C71.2975 23.9282 71.8896 25.2847 72.1426 25.2986C73.4156 24.7343 73.8743 23.653 73.8743 23.653C73.8743 23.653 73.7158 23.4585 73.6936 23.4362C73.5852 23.325 73.4796 23.2166 73.3767 23.0999C73.3267 23.0443 73.2794 22.9859 73.2322 22.9275V22.9303Z" fill="#DA392C"/>
<path d="M110.16 35.8028L116.439 39.194L123.252 66.9125C123.252 66.9125 120.03 70.829 119.749 70.8207C102.671 70.3259 85.5876 70.2342 68.5374 71.4683C51.5232 72.7025 41.094 73.3168 24.1772 75.4821C14.6291 76.7052 6.34859 77.792 6.34859 77.792L1.74829 73.2445L14.8348 40.6338C14.8348 40.6338 67.053 33.1872 110.16 35.8028Z" fill="#32271E"/>
<path d="M29.4946 68.2801L30.1562 41.2676L40.0461 40.6783L40.0961 42.0514C40.1017 42.1793 40.1184 42.335 40.1378 42.499C40.1684 42.7686 40.2045 43.0743 40.199 43.4023C40.1601 45.4676 40.085 47.5607 40.01 49.587C39.9127 52.2444 39.8126 54.9906 39.7987 57.6869C39.7987 57.9593 39.7848 58.3234 39.7681 58.6876L45.2663 58.518L44.6575 66.8847L29.4946 68.2829V68.2801ZM32.7801 43.7998L32.252 65.3309L42.1447 64.4192L42.3727 61.2921L36.9135 61.4616L37.008 59.9884C37.008 59.9718 37.1108 58.3957 37.1136 57.6758C37.1275 54.9378 37.2276 52.1693 37.3248 49.4925C37.3971 47.5329 37.4694 45.5093 37.5083 43.5246L32.7746 43.8054L32.7801 43.7998Z" fill="#F5F3DB"/>
<path d="M38.3505 60.069C38.3505 60.069 38.4562 58.4457 38.4589 57.6758C38.4812 52.9031 38.7703 48.1361 38.8592 43.3745C38.8675 42.9548 38.7703 42.5184 38.7564 42.0987L31.4709 42.5323L30.8761 66.8041L43.4039 65.6478L43.8236 59.8995L38.3533 60.069H38.3505Z" fill="#DA392C"/>
<path d="M73.0154 66.1092L72.4094 64.8639C71.7645 63.5436 70.2246 61.381 69.4074 60.2719L69.0071 64.611L60.4042 65.7061L60.1595 64.4803C60.1095 64.2329 60.0178 63.7771 61.1213 52.0553C61.4048 49.0506 61.6828 46.2209 61.9052 44.0861C62.0219 42.9548 62.122 42.0653 62.1942 41.4427C62.3416 40.2197 62.3888 39.8083 62.9642 39.4469L63.2227 39.2857L69.3601 38.5769H69.4519C70.0495 38.5936 70.6304 38.5686 71.1919 38.5463C72.7152 38.4852 74.2884 38.4212 76.1258 39.1106C77.9687 39.7999 79.3196 41.2092 80.0339 43.1828C80.9679 45.7623 80.651 49.1451 79.2501 51.605C78.5524 52.8309 77.6407 53.8732 76.5372 54.7043L81.4905 61.6312L73.0098 66.1092H73.0154ZM64.8516 41.7957C64.4207 45.3981 63.2144 58.2873 62.8919 62.6819L66.5332 62.2177L67.3115 53.7982L71.0168 57.9343C71.1113 58.0566 72.9431 60.4693 74.1522 62.4734L77.5267 60.6917L72.5762 53.7704L74.483 52.8726C75.4948 52.2138 76.3176 51.341 76.9235 50.2736C77.9409 48.4863 78.1855 45.9457 77.5156 44.0917C77.0708 42.8631 76.287 42.0292 75.189 41.6178C73.8576 41.1203 72.7318 41.1647 71.3031 41.2231C70.7277 41.2453 70.1329 41.2704 69.4852 41.2592L64.8516 41.7929V41.7957ZM69.5241 53.2978C69.1517 53.2978 68.8709 53.2728 68.7458 53.2589L67.4644 53.1199L68.0537 44.2696L68.9904 44.025C71.4893 43.3718 73.5018 44.1 74.3746 45.9735C75.3669 48.0999 74.5025 51.1047 72.49 52.5334C71.5866 53.1728 70.3413 53.2951 69.5241 53.2951V53.2978ZM70.5998 46.4711L70.3275 50.546C70.5915 50.5015 70.8139 50.4348 70.939 50.3459C71.9841 49.6037 72.3427 47.9693 71.9424 47.1104C71.7312 46.6545 71.2809 46.4405 70.5998 46.4711Z" fill="#F5F3DB"/>
<path d="M79.5114 61.1614L73.6158 64.2746C72.6568 62.3039 69.9494 58.7487 69.9494 58.7487L68.365 56.9836L67.7702 63.4129L61.4771 64.2135C61.3381 63.513 63.4979 40.695 63.6813 40.5782L69.4241 39.9167C71.6839 39.9695 73.449 39.5359 75.6616 40.3642C79.7504 41.8958 79.995 47.5996 78.0938 50.9379C77.371 52.2055 76.3676 53.2673 75.1362 54.0483L74.6081 54.2957L79.5169 61.1587L79.5114 61.1614ZM69.3296 45.3259L68.8904 51.9247C68.8904 51.9247 70.75 52.1248 71.7145 51.4411C74.3273 49.587 74.3162 44.025 69.3296 45.3259Z" fill="#DA392C"/>
<path d="M80.2924 38.474L79.2807 45.2897H79.2862V46.9186L83.7614 46.888L82.1798 64.4275L91.3526 63.349L92.8286 46.5906L97.5456 46.4405L97.7597 37.7986L80.2924 38.474ZM94.9244 43.836L90.3631 43.9805L88.8704 60.9363L85.1512 61.3727L86.6995 44.1806L82.1548 44.2112L82.6218 41.0674L95.0051 40.5894L94.9244 43.836Z" fill="#F5F3DB"/>
<path d="M96.381 39.194L96.2337 45.1368L91.5944 45.2842L90.1129 62.1426L83.6641 62.8987L85.2291 45.5343L80.5954 45.5649L81.4571 39.7721L96.381 39.194Z" fill="#DA392C"/>
<path d="M43.6541 66.9125L45.8806 39.95L61.4743 39.2301L61.8245 47.2466L54.6003 47.8108L54.4502 48.7754L59.687 48.4641L58.4112 56.4805L53.658 56.8669L53.5412 57.6007L60.8628 57.1143L59.5591 65.5755L43.6513 66.9125H43.6541ZM48.36 42.5212L46.5894 63.9716L57.2326 63.0766L57.7051 60.0134L50.3669 60.5027L51.3398 54.3652L56.0929 53.9789L56.5127 51.3438L51.2897 51.6551L52.2737 45.3036L59.031 44.7755L58.9115 42.0375L48.3628 42.524L48.36 42.5212Z" fill="#F5F3DB"/>
<path d="M60.1901 40.6311L60.4264 46.0096L53.4356 46.5572L52.8686 50.2152L58.0998 49.9039L57.252 55.2297L52.4989 55.6161L51.9541 59.0517L59.284 58.5653L58.3973 64.3247L45.1217 65.4421L47.1203 41.2342L60.1901 40.6311Z" fill="#DA392C"/>
<path d="M116.322 63.7187L106.855 63.1405L106.732 62.0176C106.721 61.9203 106.71 61.7952 106.699 61.6534C106.68 61.4144 106.629 60.8195 106.543 60.4082L101.256 60.2442L100.108 63.1989L91.3999 63.3518L100.976 38.3323L101.326 38.096C101.685 37.8542 101.849 37.743 105.017 37.793C106.282 37.8125 107.944 37.8653 108.422 37.9153C108.447 37.9181 108.475 37.9181 108.5 37.9209C108.803 37.9404 109.604 37.9904 110.107 38.7937L110.221 38.9772L110.274 39.1856L116.319 63.7243L116.322 63.7187ZM109.292 60.5999L112.842 60.8168L107.85 40.556C106.866 40.5004 104.289 40.442 103.033 40.4643L95.3275 60.5944L98.26 60.5444L99.4441 57.4979L107.53 57.748L107.722 57.8148C108.834 58.1983 109.153 59.4381 109.292 60.5972V60.5999ZM100.15 54.6487L103.338 46.6656L106.165 45.9179L108.036 54.6126L100.15 54.6487Z" fill="#F5F3DB"/>
<path d="M114.582 62.2677L108.067 61.8702C107.997 61.2254 107.936 59.313 107.283 59.0878L100.35 58.8738L99.1856 61.8758L93.3651 61.9759L102.079 39.2051C102.335 39.0328 107.541 39.169 108.283 39.2468C108.545 39.2746 108.806 39.2385 108.973 39.5025L114.582 62.2705V62.2677ZM105.151 47.5746L104.334 47.7914L102.135 53.2978L106.377 53.2784L105.151 47.5746Z" fill="#DA392C"/>
<path d="M5.43409 70.3982L15.3963 43.2661L15.7021 43.0299C16.0328 42.7741 16.1996 42.6463 19.4573 42.385C20.7749 42.2794 22.5066 42.1682 22.9986 42.1737C23.0264 42.1737 23.0542 42.1737 23.082 42.1737C23.3739 42.1626 24.2661 42.1348 24.822 42.9771L24.9499 43.1689L31.2458 68.3051L21.556 68.6331L21.4198 67.3962C21.4086 67.2961 21.3975 67.1654 21.3836 67.0181C21.3642 66.7846 21.3169 66.2176 21.2363 65.8006L15.6715 66.1592L14.4735 69.378L5.43409 70.4009V70.3982ZM17.5227 45.2647L9.45344 67.2433L12.5361 66.8958L13.7674 63.5936L22.0646 63.0599L22.2703 63.1127C23.4545 63.4129 23.8158 64.6944 23.9687 65.8674L27.8379 65.7367L22.6122 44.87C21.5115 44.9145 18.768 45.1174 17.5283 45.2675L17.5227 45.2647ZM14.6291 60.7639L18.0648 51.1131L21.4531 50.5988L23.246 59.8606L14.6291 60.7639ZM19.5546 54.9267L18.5845 57.6508L20.0522 57.4979L19.5546 54.9295V54.9267Z" fill="#F5F3DB"/>
<path d="M29.5391 67.0181L22.754 67.2488C22.6817 66.5789 22.6178 64.5832 21.9396 64.4108L14.7208 64.875L13.5061 68.1355L7.44654 68.8193L16.5276 44.0917C16.7945 43.8832 22.2147 43.5107 22.9903 43.5163C23.2599 43.5163 23.5351 43.4552 23.7074 43.7164L29.5446 67.0181H29.5391ZM20.3802 52.1193L19.0599 52.3194L16.6082 59.2074L21.6505 58.6792L20.3802 52.1221V52.1193Z" fill="#DA392C"/>
<path d="M104.57 50.0179L103.842 52.0692L104.945 51.9525L104.57 50.0179Z" fill="#32271E"/>
</svg>
