<svg width="154" height="36" viewBox="0 0 154 36" fill="none" xmlns="http://www.w3.org/2000/svg">
<path d="M0 24.9646C0 20.3783 5.68118 20.0357 10.135 19.4103C12.8753 19.0354 14.7316 18.6297 14.7316 17.3515C14.7316 16.1653 13.2748 15.1989 10.5056 15.1989C7.50699 15.1989 5.56567 16.5709 4.93834 18.5376H0.457254C1.39904 14.7319 5.28169 11.8925 10.6789 11.8925C16.0761 11.8925 19.4726 14.2955 19.4726 18.9433V29.5202H14.791V26.9927C12.9636 28.9578 10.3372 29.9258 7.22461 29.9258C2.7708 29.9258 0.0016044 27.9284 0.0016044 24.9646H0ZM8.25143 26.8974C10.65 26.8974 13.3053 25.9924 14.7894 24.3085V21.0021C13.7048 21.7503 11.8485 22.0008 10.0211 22.2497C7.19413 22.6553 4.65276 22.9365 4.65276 24.8385C4.65276 26.1184 5.96677 26.8974 8.24983 26.8974H8.25143Z" fill="#1E005A"/>
<path d="M20.7834 12.3595H25.5517V15.1359C27.1785 13.1078 29.5482 11.9539 32.3752 11.9539C37.1724 11.9539 40.4261 15.0422 40.4261 19.9727V29.5202H35.6867V20.7839C35.6867 17.3838 33.6587 15.6369 30.7195 15.6369C28.5214 15.6369 26.6363 16.6663 25.5517 18.2581V29.5202H20.7834V12.3595Z" fill="#1E005A"/>
<path d="M45.9083 24.4329V15.8841H40.3122V12.3579H45.9083V8.61358H50.5627V12.3579H57.614V15.8841H50.5627V23.7768C50.5627 25.2749 51.3906 25.9294 53.1602 25.9294H57.614V29.5169H51.1322C47.5352 29.5169 45.9067 27.77 45.9067 24.4313L45.9083 24.4329Z" fill="#1E005A"/>
<path d="M57.3557 20.9698C57.3557 15.6029 62.0374 11.7972 67.948 11.7972C73.8586 11.7972 78.4552 15.4478 78.4552 21.3447V21.6566H62.0662C62.3807 24.6511 64.6926 26.5855 67.948 26.5855C70.5744 26.5855 72.5735 25.3686 73.4864 23.3098H78.1969C76.9695 27.303 73.0869 30.0793 67.8902 30.0793C61.8946 30.0793 57.3557 26.335 57.3557 20.9698ZM62.3245 19.0354H73.5457C72.7756 16.6954 70.6626 15.2296 67.8918 15.2296C65.121 15.2296 63.0674 16.7277 62.3245 19.0354Z" fill="#1E005A"/>
<path d="M79.3681 12.3595H84.1364V15.1359C85.7632 13.1078 88.1329 11.9539 90.9599 11.9539C95.757 11.9539 99.0108 15.0422 99.0108 19.9727V29.5202H94.2714V20.7839C94.2714 17.3838 92.2434 15.6369 89.3041 15.6369C87.1061 15.6369 85.2209 16.6663 84.1364 18.2581V29.5202H79.3681V12.3595Z" fill="#1E005A"/>
<path d="M99.7809 24.9646C99.7809 20.3783 105.462 20.0357 109.916 19.4103C112.656 19.0354 114.512 18.6297 114.512 17.3515C114.512 16.1653 113.056 15.1989 110.287 15.1989C107.288 15.1989 105.347 16.5709 104.719 18.5376H100.237C101.178 14.7319 105.061 11.8925 110.458 11.8925C115.855 11.8925 119.252 14.2955 119.252 18.9433V29.5202H114.57V26.9927C112.743 28.9578 110.116 29.9258 107.004 29.9258C102.55 29.9258 99.7809 27.9284 99.7809 24.9646ZM108.032 26.8974C110.431 26.8974 113.086 25.9924 114.57 24.3085V21.0021C113.486 21.7503 111.629 22.0008 109.802 22.2497C106.975 22.6553 104.434 22.9365 104.434 24.8385C104.434 26.1184 105.748 26.8974 108.031 26.8974H108.032Z" fill="#1E005A"/>
<path d="M131.705 33.7008C134.434 33.7008 137.127 34.3408 139.568 35.5706L140.008 35.792L140.446 35.5722C142.888 34.3424 145.58 33.7025 148.309 33.7025C150.602 33.7025 152.46 31.8311 152.46 29.5218H127.555C127.555 31.8311 129.413 33.7025 131.705 33.7025V33.7008ZM135.856 25.3395H152.46V14.1905L135.856 25.3395ZM135.856 8.6152C133.563 8.6152 131.705 10.4866 131.705 12.7959H127.555V25.3395L145.553 13.2548C147.622 11.865 146.645 8.61681 144.159 8.61681H135.856V8.6152Z" fill="#1E005A"/>
<path d="M152.46 3.89477C153.31 3.89477 154 3.20019 154 2.34338C154 1.48657 153.31 0.791992 152.46 0.791992C151.609 0.791992 150.92 1.48657 150.92 2.34338C150.92 3.20019 151.609 3.89477 152.46 3.89477Z" fill="#00FF7D"/>
<path d="M146.233 3.89477C147.084 3.89477 147.773 3.20019 147.773 2.34338C147.773 1.48657 147.084 0.791992 146.233 0.791992C145.382 0.791992 144.693 1.48657 144.693 2.34338C144.693 3.20019 145.382 3.89477 146.233 3.89477Z" fill="#00FF7D"/>
<path d="M140.006 3.89477C140.857 3.89477 141.547 3.20019 141.547 2.34338C141.547 1.48657 140.857 0.791992 140.006 0.791992C139.156 0.791992 138.466 1.48657 138.466 2.34338C138.466 3.20019 139.156 3.89477 140.006 3.89477Z" fill="#00FF7D"/>
<path d="M133.781 3.89477C134.632 3.89477 135.322 3.20019 135.322 2.34338C135.322 1.48657 134.632 0.791992 133.781 0.791992C132.931 0.791992 132.241 1.48657 132.241 2.34338C132.241 3.20019 132.931 3.89477 133.781 3.89477Z" fill="#00FF7D"/>
<path d="M127.555 3.89477C128.405 3.89477 129.095 3.20019 129.095 2.34338C129.095 1.48657 128.405 0.791992 127.555 0.791992C126.704 0.791992 126.014 1.48657 126.014 2.34338C126.014 3.20019 126.704 3.89477 127.555 3.89477Z" fill="#00FF7D"/>
</svg>
