<svg width="169" height="175" viewBox="0 0 169 175" fill="none" xmlns="http://www.w3.org/2000/svg">
<path d="M7.16575 174.938C2.43391 173.46 0.361101 170.485 0 165.606V51.0699C0.211033 45.4942 3.39529 41.8316 9.02753 41.3872C23.4809 40.2506 39.4022 42.2666 54.0151 41.3872C58.5781 41.9345 58.0294 47.3185 53.6681 47.5102L8.34284 47.4915C7.61595 47.2436 6.1481 48.965 6.1481 49.3766V64.4946H52.3081C54.4841 64.4946 56.2661 66.7773 55.3657 68.9056C55.15 69.4108 53.4805 70.613 52.9928 70.613H6.14341V167.281C6.14341 168.225 8.74615 169.348 9.70752 169.166H158.941C159.968 169.428 162.843 168.319 162.843 167.281V70.613H116.003C115.515 70.613 113.841 69.4108 113.63 68.9056C112.729 66.7773 114.511 64.4946 116.687 64.4946H162.847V49.3766C162.847 48.965 161.375 47.2436 160.652 47.4915L115.327 47.5102C110.966 47.3185 110.417 41.9345 114.98 41.3872C129.588 42.2666 145.514 40.2459 159.968 41.3872C165.6 41.8316 168.784 45.4895 169 51.0699V165.601C168.634 170.475 166.561 173.455 161.83 174.933H7.16575V174.938Z" fill="#002448"/>
<path d="M95.3917 116.837C96.0623 120.701 103.233 128.045 95.2369 128.742C90.5801 129.149 77.1396 129.364 72.8205 128.648C65.6547 127.46 74.6729 117.847 73.5896 116.837C68.8718 117.525 69.4299 111.416 67.282 108.679L50.1696 119.831C48.4016 120.172 47.4731 119.05 46.718 117.646C44.3685 113.268 42.7788 107.384 40.8701 102.725C40.6403 101.368 41.6439 100.461 42.3098 99.4037C47.2949 91.5032 54.198 84.1313 59.2159 76.1559C55.2672 51.416 63.5163 21.0677 81.2477 3.00743C82.5327 1.70238 83.4519 0.458131 85.5294 1.12235C86.8706 1.55269 91.3539 7.35293 92.4606 8.8217C107.055 28.1543 113.339 52.0428 109.765 76.1559C114.783 84.1266 121.686 91.5032 126.671 99.4037C127.961 101.452 128.496 101.457 127.769 104.114C126.929 107.187 123.787 114.807 122.263 117.646C121.513 119.04 120.589 120.177 118.812 119.831L101.995 108.712C101.535 108.572 101.437 108.955 101.254 109.264C99.6264 112.015 99.8421 117.543 95.3917 116.837ZM94.3224 111.014C102.679 89.5386 107.857 66.768 102.651 43.8477C99.9594 31.9852 93.9895 19.9497 86.3266 10.5244C85.9796 10.094 84.7462 8.33991 84.3195 8.45217C75.7281 18.8037 69.2048 30.9234 66.2597 44.1236C62.5174 60.8882 64.2432 77.4937 68.8437 93.8794C70.4757 99.6843 72.6282 105.354 74.6541 111.018H94.3177L94.3224 111.014ZM50.7699 112.417L65.3593 102.701L60.6415 84.5569L47.4309 102.486C46.9525 104.427 50.6386 110.031 50.7699 112.421V112.417ZM118.211 112.417C118.343 110.027 122.033 104.423 121.55 102.482L108.34 84.5522L103.622 102.697L118.211 112.412V112.417ZM91.307 122.609L88.526 116.889L80.9007 116.809L80.3661 117.043L77.6743 122.609H91.307Z" fill="#002448"/>
<path d="M72.7923 134.266C76.802 134.055 76.1783 141.942 75.9907 144.543C75.8031 147.12 74.415 150.189 71.3573 148.453C69.2939 147.279 69.6081 139.968 69.8238 137.718C69.9926 135.959 70.7946 134.373 72.7877 134.271L72.7923 134.266Z" fill="#002448"/>
<path d="M95.9591 134.261C97.7834 134.168 98.9511 135.725 99.148 137.381C99.3591 139.135 99.3638 144.463 99.0589 146.142C98.3602 149.997 93.422 149.973 92.9952 144.875C92.7701 142.204 92.1746 134.453 95.9544 134.257L95.9591 134.261Z" fill="#002448"/>
<path d="M83.3675 140.351C84.8212 139.921 86.275 140.342 87.016 141.666C87.7569 142.99 87.7898 150.179 87.4756 151.919C86.955 154.796 83.3862 155.722 81.9652 153.159C81.1117 151.62 81.107 143.2 81.9652 141.666C82.181 141.282 82.9548 140.473 83.3675 140.351Z" fill="#002448"/>
<path d="M36.701 53.3666C40.72 52.1738 42.4833 57.0619 39.2756 58.6523C35.3926 60.5748 33.573 54.2975 36.701 53.3666Z" fill="#002448"/>
<path d="M25.1176 53.3666C29.7979 51.9774 30.6748 58.4699 26.6746 59.0031C23.3825 59.4428 22.2288 54.2179 25.1176 53.3666Z" fill="#002448"/>
<path d="M12.7136 58.2921C10.003 56.0141 13.6609 51.2804 16.6904 53.8203C19.7199 56.3603 15.5789 60.7011 12.7136 58.2921Z" fill="#002448"/>
<path d="M82.0262 38.7725C94.8805 37.0277 104.049 51.098 96.3577 61.5618C86.9363 74.3691 66.8647 65.215 70.274 49.8163C71.4417 44.54 76.6191 39.5068 82.0262 38.7771V38.7725ZM83.3862 44.5493C72.5626 45.8637 74.0257 62.4271 84.9901 61.7957C96.5406 61.1314 95.1994 43.118 83.3862 44.5493Z" fill="#002448"/>
</svg>
