<svg width="174" height="175" viewBox="0 0 174 175" fill="none" xmlns="http://www.w3.org/2000/svg">
<path d="M133.558 0.937744C137.237 2.41493 140.096 4.58087 140.953 8.66353L141.102 35.0218C153.414 46.717 162.345 61.5704 165.735 78.3587C166.854 83.9095 167.053 88.9754 167.475 94.5715C167.502 94.9295 167.085 95.6273 167.198 95.7542C170.638 96.0985 172.745 98.8943 174 101.871V147.41C172.854 150.623 170.679 152.929 167.294 153.786L141.274 153.935C130.454 163.741 117.063 170.574 102.703 173.479L92.7798 174.938H81.2248L67.966 172.731C54.8567 169.478 42.758 162.898 32.7255 153.935C24.705 153.061 14.8584 154.905 7.05534 153.777C3.41212 153.251 1.29144 150.637 0 147.41V102.211C1.05128 98.7357 3.36228 96.6151 6.81971 95.5457C6.04938 72.5315 16.4307 50.6138 32.8977 35.0218L33.0473 8.66353C34.1348 4.61712 36.8491 2.15665 40.7823 0.937744H133.562H133.558ZM135.597 44.0979V9.60149C135.597 8.21946 132.547 6.02634 131.025 6.35712L41.5209 6.60181C40.2385 6.6879 38.3988 8.80853 38.3988 9.93681V57.6871L96.6994 18.9631L99.0874 19.2621L135.597 44.0934V44.0979ZM32.9612 65.0006V43.0784C19.4713 56.7899 11.9583 76.1293 12.2302 95.4143H41.6297C44.1446 95.4143 45.5176 100.399 41.5481 101.11C30.836 102.003 18.8686 100.199 8.306 101.174C6.19438 101.368 5.61437 102.311 5.41498 104.4C6.35751 117.414 4.22323 132.054 5.41498 144.873C5.65062 147.406 6.43907 148.203 8.9857 148.444L63.7926 148.167C65.4239 147.687 65.7683 146.037 65.9223 144.519C66.6564 137.12 65.3741 128.606 65.9359 121.084C67.2364 118.071 71.1425 118.791 71.3736 122.085C70.7483 129.748 72.1983 138.679 71.3283 146.187C70.9612 149.332 67.8029 153.872 64.3998 153.872H41.462L46.0432 157.279C72.0034 174.494 108.177 173.433 132.543 153.872H109.605C109.473 153.872 107.448 153.074 107.158 152.92C104.602 151.602 102.984 148.647 102.681 145.843C102.11 140.595 102.051 127.645 102.64 122.434C103.089 118.451 107.321 117.998 108.336 121.836C109.143 129.444 107.534 138.452 108.408 145.892C108.563 147.202 108.993 147.696 110.207 148.172L165.014 148.448C166.51 148.444 167.815 147.827 168.417 146.414L168.58 104.413C168.377 102.229 167.951 101.386 165.694 101.183C155.227 100.236 143.354 101.944 132.733 101.178C130.522 100.933 129.325 98.5273 130.535 96.6468C130.721 96.3568 132.207 95.4234 132.37 95.4234H161.77C162.155 76.1882 154.569 56.654 141.043 43.0874C140.744 45.2352 141.32 47.6776 141.311 49.7121C141.311 50.2423 141.025 50.7996 141.025 51.3977C141.003 56.1646 142.063 65.0368 139.34 68.7434C137.21 71.6479 129.194 75.3726 128.532 70.3656C127.979 66.1923 134.45 68.3763 135.456 64.1804C135.737 62.9977 135.773 51.4748 135.429 50.9038L97.6283 25.1165L38.7885 63.8677C38.7432 67.8235 43.8818 66.3645 45.1551 68.7887C46.8815 72.0738 43.2338 72.9801 40.6418 72.6221C37.3974 72.1781 33.4642 68.2177 32.9657 65.0051L32.9612 65.0006Z" fill="#002448"/>
<path d="M96.2145 60.3696C97.9501 60.7865 99.5995 61.5387 101.158 62.3906C102.223 62.9706 105.572 65.6848 105.934 65.7935C107.801 66.3418 112.677 63.1201 114.693 63.111C116.239 63.102 116.986 64.4523 117.725 65.5352C118.862 67.1982 121.604 71.7793 122.306 73.5284C123.906 77.5295 117.507 79.487 115.627 82.3688C116.424 86.0573 116.424 89.8227 115.627 93.5066C117.226 95.9671 123.235 98.3959 122.619 101.618C122.447 102.51 118.504 109.203 117.725 110.34C114.426 115.184 111.707 110.943 107.402 110.177C105.223 109.792 104.788 111.265 103.075 112.343C100.914 113.698 98.5935 114.631 96.3505 115.814C94.9911 119.04 96.5227 125.262 91.9415 125.679C89.9205 125.86 82.8651 125.978 81.1206 125.588C78.2159 124.94 78.5105 117.935 77.7673 115.515C76.0409 115.071 74.3869 114.341 72.8327 113.485C71.795 112.914 68.4871 110.209 68.0566 110.082C65.374 109.298 59.9953 114.654 57.2402 111.74C56.4835 110.938 52.0201 103.271 51.5715 102.116C50.2211 98.6315 56.8098 96.0759 58.3912 93.4749C57.639 89.7865 57.639 86.0845 58.3912 82.396C56.923 80.0488 50.7196 77.2938 51.3676 74.2534C52.9672 72.237 56.2207 64.2348 58.1964 63.3874C60.4575 62.4177 65.22 65.8524 67.7757 65.857C70.8751 63.6457 73.9746 61.2759 77.7673 60.3606C78.4561 58.0496 78.3111 51.1621 80.8577 50.3691C82.2126 49.9477 90.1561 50.0384 91.9369 50.2015C96.4049 50.6093 95.2584 57.0346 96.21 60.3741L96.2145 60.3696ZM90.0564 55.6526L84.0886 55.9743C83.4134 58.0859 83.5766 63.6004 81.6824 64.7831C79.956 65.866 76.7206 66.5004 74.5229 67.819C73.2269 68.5984 70.0006 71.6932 69.0762 71.8971C66.9736 72.3548 61.0239 69.0606 60.4756 69.3913L57.7478 74.489C59.4198 76.0885 64.0917 78.6441 64.2503 80.9732C64.3409 82.3417 63.6249 83.9321 63.5343 85.3731C63.3259 88.7488 64.1189 91.3045 64.2321 94.2407C64.3545 97.3945 59.7959 99.3792 57.7478 101.382L60.6433 106.548C62.8274 106.022 66.9872 103.516 69.0762 103.974C70.0006 104.178 73.2314 107.273 74.5274 108.052C76.7206 109.375 79.956 110.009 81.687 111.088C83.6491 112.316 83.2866 117.527 83.998 119.652C84.3786 120.789 88.9009 119.978 90.0609 120.218C90.283 118.22 90.7044 112.189 92.3085 111.079C93.387 110.331 96.2327 109.819 97.7688 109.062C99.5587 108.183 104.135 104.137 104.919 103.969C106.981 103.516 111.245 105.909 113.343 106.584L116.239 101.686C115.07 99.6374 109.858 97.3899 109.745 94.8932C109.668 93.1351 110.801 90.1173 110.815 88.1009C110.828 86.0845 109.478 82.0154 109.827 80.366C110.176 78.7166 114.757 75.939 116.066 74.6838C116.574 73.8999 113.91 70.2024 113.339 69.2826C111.236 69.9577 106.972 72.3503 104.915 71.8971C104.153 71.7295 99.5224 67.6785 97.7643 66.7995C96.2825 66.0609 92.8885 65.2996 92.0004 64.4976C90.7089 63.3285 90.2694 57.5331 90.0519 55.6435L90.0564 55.6526Z" fill="#002448"/>
<path d="M24.3652 107.037C25.4618 106.711 26.2412 107.046 27.1973 107.463C35.1679 110.911 43.6597 118.555 51.7663 122.316C53.6106 123.513 53.375 125.973 51.6304 127.169L25.6249 142.648C24.1975 142.489 22.752 141.715 22.7565 140.111L22.7429 109.162C22.6795 108.433 23.7353 107.227 24.3606 107.041L24.3652 107.037ZM28.2032 114.785V134.836L44.856 124.976L28.2032 114.785Z" fill="#002448"/>
<path d="M121.912 122.004L156.844 121.913C160.814 122.303 160.8 127.323 156.844 127.709H122.166C118.454 127.07 118.142 122.878 121.912 122.004Z" fill="#002448"/>
<path d="M121.228 133.889L157.189 133.808C160.637 134.138 160.823 138.833 157.189 139.259H121.83C118.726 138.996 118.296 134.868 121.232 133.885L121.228 133.889Z" fill="#002448"/>
<path d="M136.181 110.44L157.501 110.386C160.61 110.879 160.723 115.397 157.189 115.809C150.813 116.557 143.001 115.252 136.471 115.782C133.603 115.334 133.422 111.246 136.186 110.435L136.181 110.44Z" fill="#002448"/>
<path d="M64.1098 30.3863C53.3931 41.1027 37.4925 23.1318 50.126 13.8563C60.7294 6.07165 73.458 21.0384 64.1098 30.3863ZM60.3714 26.3082C65.4466 20.8707 56.2026 13.3081 51.9929 19.7968C48.5174 25.1573 56.1618 30.8123 60.3714 26.3082Z" fill="#002448"/>
<path d="M84.5372 71.3715C107.348 68.4443 110.42 102.175 89.1728 104.554C66.8195 107.06 63.7337 74.0404 84.5372 71.3715ZM85.9011 76.8181C71.6908 78.3315 73.3039 99.3746 87.1654 99.1798C102.445 98.9623 101.145 75.2004 85.9011 76.8181Z" fill="#002448"/>
</svg>
