<svg width="176" height="175" viewBox="0 0 176 175" fill="none" xmlns="http://www.w3.org/2000/svg">
<path d="M80.8668 72.8745C130.249 69.6176 173.61 107.273 175.869 157.065C175.967 159.262 176.551 164.465 174.109 165.229L100.522 165.384C99.567 165.573 98.9225 168.137 98.3015 169.169C93.6911 176.828 81.9629 176.937 77.4795 169.037C76.8821 167.986 76.5057 165.582 75.4801 165.384L1.893 165.229C-0.576838 164.456 0.0347423 158.979 0.152354 156.73C2.37286 113.895 37.6986 75.7214 80.8762 72.8745H80.8668ZM85.1713 78.4269C72.7233 78.9359 60.4635 82.3013 49.5257 88.1648L57.6597 103.172C66.0947 98.7463 75.5742 95.9089 85.176 95.7486V78.4269H85.1713ZM90.8167 78.4269V95.7486C100.447 95.8759 109.884 98.718 118.333 103.172L126.467 88.1648C115.539 82.2636 103.269 78.9454 90.8214 78.4269H90.8167ZM52.6917 106.325L44.4213 91.1578C34.0386 98.0723 24.9307 107.051 18.5139 117.798L32.7825 126.466C37.9433 118.51 44.506 111.19 52.6917 106.325ZM123.296 106.325C131.515 111.194 138.031 118.547 143.238 126.499L157.474 117.798C151.053 107.056 141.954 98.0629 131.567 91.1578L123.296 106.325ZM147.623 159.733C145.911 121.993 111.342 94.1084 73.9418 103.059C48.1378 109.234 29.3106 133.3 28.365 159.733H75.9976C76.6516 156.891 78.4581 154.082 80.8197 152.371C82.344 151.268 83.9529 150.99 85.3595 149.849L112.429 115.46C114.118 114.678 116.574 115.861 116.592 117.85L99.9904 159.733H147.623ZM6.31049 159.733H22.188C22.5362 159.511 22.6444 159.243 22.7196 158.852C23.0113 157.249 22.8467 154.756 23.1242 152.894C24.2157 145.513 26.5961 138.381 29.7481 131.669L15.3195 122.973C12.3698 129.379 9.74945 135.921 8.14523 142.835C7.01146 147.728 5.92002 154.025 5.93413 159.016C5.93413 159.431 5.95766 159.474 6.3199 159.738L6.31049 159.733ZM153.795 159.733H169.673C170.03 159.469 170.054 159.427 170.059 159.012C170.073 154.02 168.981 147.723 167.848 142.831C166.243 135.916 163.599 129.393 160.673 122.968L146.245 131.665C149.397 138.372 151.772 145.513 152.873 152.884C153.151 154.746 152.981 157.24 153.273 158.847C153.344 159.243 153.457 159.507 153.805 159.728L153.795 159.733ZM96.4573 153.016L102.456 137.462L92.261 150.405C92.0728 151.084 92.3786 150.806 92.6749 150.971C93.1548 151.239 96.2974 153.158 96.4573 153.016ZM86.8414 155.929C77.3996 157.461 81.9582 173.458 91.066 168.292C97.3277 164.743 94.1098 154.751 86.8414 155.929Z" fill="#002448"/>
<path d="M141.272 32.8248C135.678 33.8806 129.262 30.5011 133.006 24.3643C137.452 17.0821 145.567 9.81873 150.309 2.46112C153.132 0.0997114 155.597 0.608758 158.039 3.12571C162.593 7.82025 170.458 18.1332 174.231 23.6667C178.738 30.2654 173.107 33.6826 166.676 32.8248L166.695 76.1503C166.507 78.2336 165.853 79.2612 163.684 79.5015C159.455 79.9729 148.117 79.9917 143.911 79.5015C142.994 79.3931 141.272 78.4835 141.272 77.5502V32.8248ZM138.802 26.8152H144.626C145.078 26.8152 146.922 28.6629 146.922 29.1154V73.836H160.509L161.035 73.3081V28.7666C161.035 28.1491 162.729 26.8247 163.331 26.8247H169.155L154.158 7.37719L138.812 26.8247L138.802 26.8152Z" fill="#002448"/>
<path d="M34.716 32.8248L34.4526 77.9838C33.9304 78.9878 33.173 79.3649 32.0815 79.4968C27.8851 79.987 16.5333 79.9682 12.3087 79.4968C10.9256 79.3413 9.82002 78.7945 9.4907 77.3758L9.31664 32.8201C4.34873 33.447 -1.3766 31.7077 0.52871 25.6086L17.954 3.12571C20.0287 0.556911 23.1995 0.203406 25.6835 2.46112C30.4444 9.81873 38.5313 17.0679 42.9865 24.3643C46.7312 30.5011 40.3096 33.8806 34.716 32.8201V32.8248ZM37.5387 26.8152L21.8399 7.36776L6.84209 26.8152H12.6662C13.0661 26.8152 14.962 28.2104 14.962 28.7571V73.2987L15.4889 73.8266H29.0754V29.1059C29.0754 28.6535 30.9195 26.8058 31.3711 26.8058H37.5434L37.5387 26.8152Z" fill="#002448"/>
</svg>
