<svg width="139" height="91" viewBox="0 0 139 91" fill="none" xmlns="http://www.w3.org/2000/svg">
<path d="M17.4974 64.1592C15.998 65.1035 14.0974 65.5762 11.7835 65.5762C10.0479 65.5762 8.50066 65.2614 7.1462 64.6267C5.79285 64.0001 4.6545 63.123 3.73004 62.0088C3.56338 61.8092 3.41726 61.5982 3.26726 61.3873C3.55504 61.8759 3.87005 62.3435 4.23061 62.7735C5.15006 63.8911 6.28952 64.7659 7.64843 65.3954C8.99955 66.0261 10.5457 66.3426 12.2818 66.3426C14.593 66.3426 16.498 65.867 17.9941 64.9216C19.4908 63.9773 20.758 62.4981 21.7936 60.4772L21.1686 59.9497C20.1536 61.8434 18.9363 63.2479 17.4974 64.1597" fill="#E8C422"/>
<path d="M20.4702 48.5747H19.8136C19.8675 48.8193 19.9264 49.0737 19.9758 49.3388H20.9653C20.9653 48.2713 20.9353 47.2392 20.8647 46.2413C20.8014 45.248 20.5486 44.4348 20.1064 43.8036C20.0569 43.7374 19.9869 43.6781 19.9336 43.612C20.1764 44.1428 20.3202 44.7621 20.3697 45.4795C20.4397 46.4757 20.4702 47.5055 20.4702 48.5741" fill="#E8C422"/>
<path d="M12.779 41.7291C11.764 41.7291 10.819 41.9092 9.94012 42.2759C9.05566 42.6397 8.28954 43.2601 7.62787 44.1474C6.9662 45.0358 6.44674 46.2122 6.07507 47.6806C5.70062 49.1506 5.51118 50.9879 5.51118 53.1964C5.51118 54.5798 5.64451 55.9244 5.91174 57.2211C6.17341 58.519 6.59563 59.6657 7.18397 60.6631C7.3262 60.9054 7.48009 61.1438 7.64454 61.3639C7.07786 60.3819 6.6623 59.2552 6.40841 57.987C6.14452 56.6863 6.00841 55.3496 6.00841 53.9623C6.00841 51.7549 6.19785 49.917 6.56786 48.4453C6.94731 46.9775 7.46398 45.7999 8.12288 44.9155C8.78511 44.0299 9.55234 43.4015 10.4351 43.0389C11.3129 42.6762 12.2618 42.4937 13.274 42.4937C15.1007 42.4937 16.5702 43.0834 17.683 44.262C17.8669 44.4565 18.038 44.6726 18.2052 44.9001C17.9058 44.3721 17.5674 43.9005 17.1863 43.4962C16.0752 42.3198 14.6046 41.7296 12.7785 41.7296" fill="#E8C422"/>
<path d="M39.0282 62.3019C38.7838 63.0791 38.4671 63.6973 38.086 64.1592C37.6982 64.6176 37.0538 64.8497 36.1521 64.8497H24.4331V65.6155H36.6527C37.5516 65.6155 38.196 65.3823 38.5805 64.9238C38.9655 64.4625 39.2805 63.8421 39.5227 63.0649L40.4783 60.1881L39.8205 59.9201L39.0277 62.3025L39.0282 62.3019Z" fill="#E8C422"/>
<path d="M38.6649 43.7306V46.8247H38.1321C38.1566 47.0699 38.1699 47.3208 38.1699 47.5888H39.1594V44.4941C39.1594 44.132 39.1216 43.7728 39.0455 43.4232C38.9677 43.0697 38.826 42.7612 38.6132 42.4972C38.5621 42.4287 38.4921 42.374 38.4316 42.3147C38.4749 42.4259 38.5188 42.5376 38.5488 42.6557C38.6249 43.0092 38.6649 43.3679 38.6649 43.7306Z" fill="#E8C422"/>
<path d="M21.7936 41.9258V42.6756H22.1197C22.7736 42.6756 23.2497 42.8325 23.5947 43.1199C23.5703 43.0526 23.5492 42.9762 23.5247 42.9111C23.2658 42.2867 22.6819 41.964 21.7936 41.9252" fill="#E8C422"/>
<path d="M28.2309 53.1964V63.2086H28.7265V53.9623H37.311V52.3234H36.8121V53.1964H28.2309Z" fill="#E8C422"/>
<path d="M33.546 42.4584H28.2309V51.5604H28.7248V43.2214H34.0415C35.3649 43.2214 36.3799 43.5595 37.0954 44.2421C37.1466 44.2888 37.1899 44.343 37.2393 44.3972C37.0721 44.0345 36.8621 43.7237 36.5988 43.4734C35.8843 42.7988 34.8682 42.4578 33.5465 42.4578" fill="#E8C422"/>
<path d="M41.6849 42.1641C41.3816 42.0307 41.0027 41.9646 40.5777 41.936V42.6756H40.7444C41.3172 42.6756 41.7966 42.7612 42.18 42.9294C42.4905 43.064 42.7339 43.2493 42.9439 43.4671C42.8589 43.2442 42.7505 43.036 42.6105 42.8581C42.3755 42.5667 42.07 42.3346 41.6855 42.1636" fill="#E8C422"/>
<path d="M60.3868 64.9598H58.8685L44.8694 46.8247V64.8497H43.7172V65.6155H45.3683V47.5888L59.3652 65.7239H60.8852V41.5836H60.3868V64.9598Z" fill="#E8C422"/>
<path d="M67.5192 42.4584C66.3552 42.4584 65.4263 42.7771 64.7458 43.4181C64.0652 44.0647 63.7224 45.1978 63.7224 46.8269H63.2274V47.5911H64.2191C64.2191 45.9653 64.5602 44.8294 65.243 44.1873C65.9236 43.5435 66.8508 43.2208 68.0125 43.2208H69.8653V42.4578H67.5197L67.5192 42.4584Z" fill="#E8C422"/>
<path d="M88.5177 43.1866C88.7183 43.1358 88.9483 43.101 89.2133 43.0765C89.4772 43.0531 89.7422 43.0389 90.0061 43.0389C90.4894 43.0389 90.9839 43.1244 91.49 43.2966C91.9961 43.4637 92.4606 43.75 92.8756 44.148C92.9878 44.258 93.0961 44.3749 93.1972 44.4975C92.9672 44.0585 92.6961 43.6872 92.3833 43.3862C91.9644 42.9836 91.5 42.6996 90.9939 42.5314C90.4878 42.3614 89.9933 42.2736 89.5111 42.2736C89.2461 42.2736 88.98 42.2879 88.7172 42.3124C88.4511 42.3358 88.2199 42.3734 88.0233 42.4225C87.7844 42.4704 87.5627 42.5051 87.3633 42.5314V52.3964H87.8599V43.2966C88.0588 43.271 88.2772 43.2356 88.5183 43.1866" fill="#E8C422"/>
<path d="M98.4251 47.5175C98.4251 48.4629 98.2634 49.2829 97.9456 49.9746C97.6223 50.6663 97.2062 51.2491 96.6928 51.7224C96.1728 52.194 95.5962 52.576 94.96 52.8703C94.3161 53.1616 93.6917 53.392 93.0745 53.562L96.5401 59.9337C96.8756 60.5502 97.1962 61.0788 97.509 61.5195C97.3512 61.2641 97.1962 60.9961 97.0373 60.6996L93.5733 54.3261C94.1845 54.1561 94.815 53.9246 95.4562 53.6355C96.0895 53.3413 96.6717 52.9621 97.1873 52.4876C97.7045 52.0132 98.1234 51.4321 98.4445 50.7399C98.764 50.0482 98.9212 49.2282 98.9212 48.2827C98.9212 47.2865 98.7701 46.4301 98.4723 45.7138C98.2601 45.1932 97.9912 44.7319 97.6756 44.327C97.784 44.5238 97.884 44.7296 97.9773 44.9486C98.2751 45.6676 98.4251 46.5213 98.4251 47.5175Z" fill="#E8C422"/>
<path d="M87.3611 53.8533V64.8497H83.5349V65.6155H87.8594V54.6203H89.1016L88.6844 53.8533H87.3611Z" fill="#E8C422"/>
<path d="M99.9384 65.0596C99.8601 65.0727 99.7818 65.0892 99.6945 65.1035C99.244 65.1759 98.8062 65.2135 98.3873 65.2135C97.8156 65.2135 97.259 65.1268 96.7228 64.9598C96.1828 64.7876 95.655 64.4944 95.135 64.085C94.6211 63.6733 94.1039 63.1225 93.5867 62.4462C93.4439 62.2609 93.3 62.063 93.1561 61.8514C93.4728 62.3538 93.78 62.814 94.085 63.2114C94.5989 63.89 95.12 64.438 95.6334 64.8486C96.1506 65.2631 96.6784 65.5517 97.2178 65.7233C97.754 65.8927 98.3134 65.9782 98.8862 65.9782C99.304 65.9782 99.7395 65.9394 100.192 65.8653C100.64 65.7969 100.958 65.7085 101.129 65.6138H99.7118L99.9379 65.0578L99.9384 65.0596Z" fill="#E8C422"/>
<path d="M82.6232 43.4854C82.441 43.0298 82.0693 42.7406 81.556 42.5969C81.3571 42.5439 81.1332 42.5091 80.8926 42.4972C80.8338 42.4972 80.3976 42.4572 80.3976 42.4572H74.1565V64.8497H70.3625V65.6155H74.6531V43.2214L81.2199 43.2447C81.8704 43.2447 82.3499 43.4055 82.6949 43.6946C82.6682 43.6222 82.6516 43.547 82.6227 43.4859" fill="#E8C422"/>
<path d="M121.271 64.8149C121.097 64.8617 120.845 64.9016 120.531 64.9404C120.21 64.9769 119.927 64.9951 119.69 64.9951C119.161 64.9951 118.59 64.9404 117.988 64.8303C117.38 64.7214 116.784 64.5002 116.201 64.1763C115.62 63.8495 115.069 63.3745 114.552 62.7581C114.485 62.6737 114.417 62.579 114.351 62.4861C114.57 62.8773 114.802 63.2245 115.047 63.5251C115.567 64.1415 116.116 64.6182 116.701 64.9409C117.282 65.2688 117.878 65.4878 118.482 65.599C119.089 65.7079 119.653 65.7598 120.185 65.7598C120.426 65.7598 120.706 65.7416 121.023 65.7079C121.343 65.6691 121.593 65.6275 121.766 65.5773V64.6718C121.595 64.6456 121.431 64.6068 121.271 64.5577V64.8155V64.8149Z" fill="#E8C422"/>
<path d="M108.137 47.0796L104.285 56.5853H105.092L108.53 48.1031L108.137 47.0796Z" fill="#E8C422"/>
<path d="M103.589 58.2202L100.946 64.6541C101.008 64.6712 101.075 64.6918 101.129 64.7032V65.615H101.362L104.085 58.9866H112.701L112.417 58.2196H103.589V58.2202Z" fill="#E8C422"/>
<path d="M118.961 62.4C118.732 61.9906 118.522 61.5349 118.331 61.0257L110.936 41.5836H110.731L117.835 60.2628C118.153 61.1164 118.531 61.8246 118.961 62.4" fill="#E8C422"/>
<path d="M100.947 64.6541L100.867 64.8509H100.635C100.494 64.9244 100.258 64.9974 99.9362 65.0596L99.7129 65.6155H101.134V64.7037C101.076 64.6917 101.009 64.6712 100.947 64.6547" fill="#E8C422"/>
<path d="M138.506 63.9767V64.8497H123.32V65.6155H139V63.9767H138.506Z" fill="#E8C422"/>
<path d="M120.678 41.9258V42.6756H121.007C121.657 42.6756 122.139 42.8325 122.483 43.1199C122.453 43.0526 122.434 42.9762 122.412 42.9111C122.151 42.2867 121.563 41.964 120.678 41.9252" fill="#E8C422"/>
<path d="M127.111 45.5502V63.2086H127.609V46.316C127.609 45.4185 127.568 44.6646 127.477 44.0596C127.391 43.4534 127.23 42.9676 127.001 42.6049C126.919 42.4766 126.817 42.3797 126.718 42.2759C126.833 42.5673 126.927 42.9054 126.979 43.2966C127.067 43.9005 127.11 44.6526 127.11 45.5502" fill="#E8C422"/>
<path d="M13.8635 89.2768C12.724 89.9998 11.2718 90.3596 9.509 90.3596C8.18565 90.3596 7.00842 90.115 5.97174 89.6383C4.94228 89.1576 4.07116 88.4904 3.36782 87.6396C3.33837 87.6043 3.3156 87.5695 3.2906 87.5398C3.45949 87.7964 3.63949 88.0422 3.83505 88.2823C4.54005 89.1348 5.41006 89.798 6.44341 90.2798C7.47287 90.7588 8.65177 91 9.97623 91C11.7424 91 13.1918 90.6413 14.3302 89.9171C15.4719 89.1969 16.4385 88.0702 17.228 86.5311L16.6641 86.0544C15.8924 87.4999 14.9596 88.5839 13.8641 89.2773" fill="#E8C422"/>
<path d="M10.2651 72.1789C9.49345 72.1789 8.76955 72.3163 8.1001 72.5935C7.42564 72.8706 6.84175 73.3473 6.33897 74.0208C5.8384 74.6948 5.44229 75.5963 5.15784 76.7151C4.87172 77.8368 4.7245 79.2372 4.7245 80.92C4.7245 81.9784 4.82561 82.9991 5.02839 83.989C5.22951 84.9749 5.55396 85.8531 5.99841 86.6109C6.16507 86.8989 6.35674 87.1578 6.5623 87.4024C6.53175 87.3494 6.49397 87.3055 6.46286 87.2519C6.02063 86.494 5.70062 85.621 5.49507 84.6277C5.29451 83.6394 5.19395 82.6159 5.19395 81.5644C5.19395 79.8793 5.33784 78.4788 5.62396 77.3555C5.90618 76.239 6.30285 75.3397 6.80119 74.6651C7.3112 73.9888 7.89732 73.5121 8.56455 73.235C9.23567 72.9539 9.9579 72.8181 10.7335 72.8181C12.1268 72.8181 13.2435 73.2663 14.0929 74.1656C14.1652 74.242 14.2218 74.3367 14.2935 74.4182C14.0891 74.092 13.8696 73.7858 13.6263 73.5218C12.779 72.6243 11.6529 72.1801 10.2651 72.1801" fill="#E8C422"/>
<path d="M16.1291 77.3954H15.6874C15.7396 77.6064 15.8024 77.81 15.8424 78.0363H16.5963C16.5963 77.2215 16.5708 76.4351 16.5174 75.6761C16.4719 74.9183 16.2808 74.2979 15.9452 73.8172C15.8674 73.7225 15.7752 73.6319 15.6891 73.5412C15.8919 73.9609 16.0169 74.4559 16.0502 75.0358C16.1041 75.7936 16.1291 76.5823 16.1291 77.3948" fill="#E8C422"/>
<path d="M22.548 80.9229V88.5548H23.0181V81.5598H29.5609V80.3138H29.0926V80.9229H22.548Z" fill="#E8C422"/>
<path d="M26.6003 72.732H22.5508V79.6729H23.0181V73.3735H27.0675C28.0526 73.3735 28.8176 73.6262 29.3598 74.1234C29.2431 73.8839 29.1059 73.6741 28.9298 73.507C28.3815 72.9915 27.6064 72.732 26.6009 72.732" fill="#E8C422"/>
<path d="M17.7308 72.3329V72.9561H17.9808C18.418 72.9561 18.7563 73.0531 19.0102 73.2241C18.993 73.1762 18.9763 73.1232 18.963 73.0765C18.7713 72.6243 18.3541 72.3796 17.7308 72.3329Z" fill="#E8C422"/>
<path d="M30.782 87.862C30.5959 88.4528 30.3554 88.9255 30.0643 89.2768C29.7665 89.6292 29.2742 89.8054 28.592 89.8054H19.7441V90.4452H29.0581C29.7465 90.4452 30.2376 90.2701 30.5304 89.9166C30.8215 89.5693 31.0626 89.0937 31.2459 88.5018L31.9782 86.3098L31.3793 86.0624L30.782 87.8615V87.862Z" fill="#E8C422"/>
<path d="M30.5031 73.7037V76.0628H30.1754C30.197 76.2686 30.217 76.4722 30.217 76.7066H30.9704V74.3435C30.9704 74.0675 30.9393 73.7944 30.882 73.5264C30.8232 73.2584 30.7154 73.0211 30.5531 72.8176C30.4881 72.7309 30.4026 72.6534 30.3143 72.5792C30.3548 72.6762 30.3909 72.7788 30.4159 72.8826C30.4748 73.1506 30.5031 73.4266 30.5031 73.7037Z" fill="#E8C422"/>
<path d="M47.3172 89.8048C47.1828 89.8784 46.9439 89.9405 46.6022 89.9993C46.2572 90.0523 45.9233 90.0797 45.6072 90.0797C45.1711 90.0797 44.7444 90.0175 44.3372 89.8881C43.9239 89.7586 43.52 89.5345 43.1255 89.222C42.7577 88.9278 42.3883 88.5366 42.0222 88.0616C42.1494 88.2583 42.2838 88.4437 42.4111 88.6119C42.8039 89.1314 43.1977 89.5482 43.5944 89.863C43.9905 90.1755 44.3944 90.3996 44.8039 90.529C45.2117 90.6584 45.6361 90.7234 46.0739 90.7234C46.3961 90.7234 46.7261 90.6938 47.0672 90.6419C47.4122 90.5849 47.6489 90.5176 47.7856 90.4486V89.7529C47.6434 89.7215 47.4883 89.6714 47.3172 89.6012V89.8048Z" fill="#E8C422"/>
<path d="M45.6317 76.5897C45.6317 77.311 45.5122 77.9343 45.2678 78.464C45.025 78.9898 44.705 79.4368 44.3105 79.7955C43.9122 80.157 43.4761 80.4473 42.9833 80.6702C42.5016 80.8915 42.0222 81.0677 41.5522 81.1971L44.195 86.0561C44.5155 86.6508 44.8228 87.1361 45.1144 87.5136C45.1561 87.5695 45.1961 87.6105 45.2433 87.6624C45.0539 87.375 44.8622 87.0643 44.6666 86.6976L42.0222 81.8386C42.4905 81.7092 42.9683 81.533 43.4555 81.314C43.9428 81.0916 44.3844 80.7997 44.7767 80.4387C45.1711 80.0783 45.4911 79.6341 45.7339 79.1055C45.9767 78.5781 46.0978 77.9525 46.0978 77.2335C46.0978 76.4745 45.9878 75.8227 45.7622 75.2747C45.5594 74.7889 45.2878 74.3772 44.9755 74.0236C45.0872 74.2181 45.1955 74.4125 45.29 74.6338C45.5172 75.1806 45.6317 75.8307 45.6317 76.5897Z" fill="#E8C422"/>
<path d="M38.1699 73.3445C38.3216 73.3085 38.4982 73.2812 38.6971 73.2589C38.8999 73.2435 39.0994 73.2344 39.3038 73.2344C39.6733 73.2344 40.0472 73.3006 40.4355 73.4289C40.8244 73.5583 41.1727 73.7733 41.4933 74.0789C41.5177 74.1034 41.5388 74.1388 41.5633 74.1645C41.4038 73.8885 41.2316 73.6387 41.0272 73.4403C40.7049 73.1346 40.356 72.9168 39.9672 72.7873C39.5821 72.6551 39.2033 72.5906 38.8355 72.5906C38.6344 72.5906 38.4316 72.6049 38.2305 72.6203C38.0293 72.6385 37.8549 72.6642 37.7032 72.7029C37.5155 72.7417 37.3488 72.7691 37.1982 72.7873V80.311H37.6671V73.4289C37.8177 73.4106 37.9821 73.3798 38.1693 73.3445" fill="#E8C422"/>
<path d="M32.3526 72.3329V72.9561H32.6076C33.0476 72.9561 33.381 73.0531 33.6332 73.2241C33.6198 73.1762 33.6049 73.1232 33.5854 73.0765C33.3987 72.6243 32.9787 72.3796 32.3526 72.3329Z" fill="#E8C422"/>
<path d="M37.1982 81.4224V89.8048H34.3687V90.4446H37.6671V82.0639H38.5527L38.206 81.4224H37.1982Z" fill="#E8C422"/>
<path d="M62.1102 72.3329C62.0324 72.3289 61.9735 72.3163 61.8924 72.3163H61.7219L54.7946 90.0797H54.0095L54.254 90.7223H55.2607L62.188 72.9561H62.1102V72.3329Z" fill="#E8C422"/>
<path d="M45.8972 71.9445V72.456C46.3767 72.5262 46.805 72.7594 47.1733 73.1495C47.0311 72.9134 46.8928 72.7035 46.7506 72.5507C46.5006 72.2696 46.2106 72.074 45.8972 71.9445Z" fill="#E8C422"/>
<path d="M55.4596 85.1135L55.5696 84.8272L51.9373 75.3739C51.6378 74.5773 51.2906 73.9466 50.8962 73.4865C50.8734 73.4619 50.8584 73.4425 50.8373 73.4214C51.0628 73.7921 51.279 74.2232 51.4723 74.7324L55.459 85.1135H55.4596Z" fill="#E8C422"/>
<path d="M74.8826 73.7037V76.0628H74.5548C74.5753 76.2686 74.5948 76.4722 74.5948 76.7066H75.3492V74.3435C75.3492 74.0675 75.3192 73.7944 75.262 73.5264C75.2031 73.2584 75.0931 73.0211 74.932 72.8176C74.8676 72.7309 74.7842 72.6534 74.6931 72.5792C74.7331 72.6762 74.7692 72.7788 74.7937 72.8826C74.8526 73.1506 74.8826 73.4266 74.8826 73.7037Z" fill="#E8C422"/>
<path d="M66.9275 80.9229V88.5548H67.3925V81.5598H73.9381V80.3138H73.4687V80.9229H66.9275Z" fill="#E8C422"/>
<path d="M75.1609 87.862C74.9731 88.4528 74.7359 88.9255 74.4387 89.2768C74.1465 89.6292 73.6553 89.8054 72.9709 89.8054H64.123V90.4452H73.4353C74.1259 90.4452 74.6148 90.2701 74.9065 89.9166C75.2026 89.5693 75.4415 89.0937 75.6254 88.5018L76.357 86.3098L75.7581 86.0624L75.1609 87.8615V87.862Z" fill="#E8C422"/>
<path d="M70.9792 72.732H66.9297V79.6729H67.3925V73.3735H71.4492C72.437 73.3735 73.1931 73.6262 73.7376 74.1234C73.6181 73.8839 73.4853 73.6741 73.307 73.507C72.7609 72.9915 71.9859 72.732 70.9792 72.732Z" fill="#E8C422"/>
<path d="M62.4152 72.3665L62.188 72.9561H62.3607C62.7985 72.9561 63.1324 73.0531 63.3885 73.2241C63.3735 73.1762 63.3619 73.1232 63.3413 73.0765C63.1841 72.6967 62.8769 72.464 62.4158 72.3665" fill="#E8C422"/>
<path d="M62.1102 72.3329V72.9561H62.188L62.4152 72.3665C62.3263 72.3471 62.2146 72.3409 62.1102 72.3329Z" fill="#E8C422"/>
<path d="M91.2433 77.3954H90.8016C90.8533 77.6064 90.9111 77.81 90.9555 78.0363H91.7139C91.7139 77.2215 91.685 76.4351 91.6356 75.6761C91.5839 74.9183 91.3894 74.2979 91.055 73.8172C90.9794 73.7225 90.8922 73.6319 90.8011 73.5412C91.0055 73.9609 91.1305 74.4559 91.1672 75.0358C91.2167 75.7936 91.2428 76.5823 91.2428 77.3948" fill="#E8C422"/>
<path d="M88.9783 89.2768C87.8349 89.9998 86.3849 90.3596 84.6232 90.3596C83.2982 90.3596 82.121 90.115 81.0877 89.6383C80.0526 89.1576 79.1821 88.4904 78.4809 87.6396C78.4543 87.6043 78.4332 87.5695 78.4048 87.5398C78.5754 87.7964 78.7537 88.0422 78.9493 88.2823C79.6543 89.1348 80.5249 89.798 81.5577 90.2798C82.5871 90.7588 83.7649 91 85.0899 91C86.8505 91 88.3055 90.6413 89.4477 89.9171C90.5872 89.1969 91.5522 88.0702 92.3411 86.5311L91.7756 86.0544C91.0061 87.4999 90.0761 88.5839 88.9777 89.2773" fill="#E8C422"/>
<path d="M85.3799 72.1789C84.606 72.1789 83.8821 72.3163 83.2132 72.5935C82.5399 72.8706 81.9543 73.3473 81.4515 74.0208C80.9493 74.6948 80.5565 75.5963 80.2671 76.7151C79.9849 77.8368 79.8388 79.2372 79.8388 80.92C79.8388 81.9784 79.941 82.9991 80.1421 83.989C80.3471 84.9749 80.6671 85.8531 81.1165 86.6109C81.2799 86.8989 81.4732 87.1578 81.676 87.4024C81.6454 87.3494 81.6115 87.3055 81.5771 87.2519C81.1332 86.494 80.8093 85.621 80.6104 84.6277C80.4093 83.6394 80.3088 82.6159 80.3088 81.5644C80.3088 79.8793 80.451 78.4788 80.7354 77.3555C81.0238 76.239 81.4182 75.3397 81.9204 74.6651C82.4227 73.9888 83.0121 73.5121 83.6793 73.235C84.3488 72.9539 85.0749 72.8181 85.846 72.8181C87.2383 72.8181 88.3599 73.2663 89.2077 74.1656C89.2761 74.242 89.3377 74.3367 89.4061 74.4182C89.2038 74.092 88.9833 73.7858 88.7411 73.5218C87.8938 72.6243 86.7738 72.1801 85.3805 72.1801" fill="#E8C422"/>
<path d="M92.3411 72.3329V72.9561H92.5911C93.0317 72.9561 93.3683 73.0531 93.6211 73.2241C93.6022 73.1762 93.5911 73.1232 93.5733 73.0765C93.3878 72.6243 92.9689 72.3796 92.3417 72.3329" fill="#E8C422"/>
<path d="M97.1584 80.9229V88.5548H97.6262V81.5598H104.171V80.3138H103.7V80.9229H97.1584Z" fill="#E8C422"/>
<path d="M105.113 73.7037V76.0628H104.783C104.808 76.2686 104.828 76.4722 104.828 76.7066H105.58V74.3435C105.58 74.0675 105.553 73.7944 105.492 73.5264C105.433 73.2584 105.326 73.0211 105.164 72.8176C105.095 72.7309 105.014 72.6534 104.926 72.5792C104.963 72.6762 105.003 72.7788 105.026 72.8826C105.083 73.1506 105.114 73.4266 105.114 73.7037" fill="#E8C422"/>
<path d="M105.387 87.862C105.206 88.4528 104.963 88.9255 104.673 89.2768C104.379 89.6292 103.887 89.8054 103.197 89.8054H94.35V90.4452H103.668C104.352 90.4452 104.843 90.2701 105.14 89.9166C105.435 89.5693 105.673 89.0937 105.856 88.5018L106.59 86.3098L105.987 86.0624L105.387 87.8615V87.862Z" fill="#E8C422"/>
<path d="M101.21 72.732H97.1584V79.6729H97.6262V73.3735H101.682C102.666 73.3735 103.427 73.6262 103.971 74.1234C103.851 73.8839 103.715 73.6741 103.54 73.507C102.996 72.9915 102.219 72.732 101.211 72.732" fill="#E8C422"/>
<path d="M111.808 81.4224V89.8048H108.976V90.4446H112.275V82.0639H113.162L112.815 81.4224H111.808Z" fill="#E8C422"/>
<path d="M121.521 89.9342C121.423 89.9553 121.335 89.9799 121.21 89.9993C120.865 90.0523 120.535 90.0819 120.217 90.0819C119.777 90.0819 119.358 90.0146 118.946 89.8875C118.534 89.7569 118.128 89.5368 117.738 89.2192C117.365 88.9278 116.999 88.5366 116.63 88.061C116.761 88.2578 116.896 88.4431 117.021 88.6113C117.417 89.1331 117.811 89.5453 118.203 89.8624C118.598 90.176 118.998 90.399 119.414 90.5284C119.823 90.6556 120.248 90.7229 120.685 90.7229C121.003 90.7229 121.335 90.6955 121.675 90.6402C122.022 90.5843 122.262 90.5199 122.397 90.4446H121.313L121.521 89.9342H121.521Z" fill="#E8C422"/>
<path d="M112.779 73.3445C112.932 73.3085 113.105 73.2812 113.306 73.2589C113.509 73.2435 113.712 73.2344 113.913 73.2344C114.28 73.2344 114.656 73.3006 115.049 73.4289C115.434 73.5583 115.783 73.7733 116.104 74.0789C116.13 74.1034 116.149 74.1388 116.173 74.1645C116.018 73.8885 115.843 73.6387 115.636 73.4403C115.316 73.1346 114.964 72.9168 114.579 72.7873C114.193 72.6551 113.815 72.5906 113.445 72.5906C113.243 72.5906 113.045 72.6049 112.841 72.6203C112.637 72.6385 112.465 72.6642 112.315 72.7029C112.126 72.7417 111.961 72.7691 111.809 72.7873V80.311H112.276V73.4289C112.427 73.4106 112.594 73.3798 112.779 73.3445" fill="#E8C422"/>
<path d="M106.964 72.3329V72.9561H107.22C107.655 72.9561 107.992 73.0531 108.245 73.2241C108.23 73.1762 108.213 73.1232 108.198 73.0765C108.007 72.6243 107.591 72.3796 106.964 72.3329Z" fill="#E8C422"/>
<path d="M120.241 76.5897C120.241 77.311 120.118 77.9343 119.879 78.464C119.633 78.9898 119.313 79.4368 118.919 79.7955C118.526 80.157 118.084 80.4473 117.598 80.6702C117.109 80.8915 116.632 81.0677 116.161 81.1971L118.806 86.0561C119.127 86.6508 119.429 87.1361 119.725 87.5136C119.77 87.5695 119.808 87.6105 119.853 87.6624C119.664 87.375 119.474 87.0643 119.275 86.6976L116.63 81.8386C117.101 81.7092 117.582 81.533 118.068 81.314C118.551 81.0916 118.991 80.7997 119.384 80.4387C119.781 80.0783 120.102 79.6341 120.346 79.1055C120.586 78.5781 120.71 77.9525 120.71 77.2335C120.71 76.4745 120.596 75.8227 120.369 75.2747C120.166 74.7889 119.899 74.3772 119.582 74.0236C119.699 74.2181 119.811 74.4125 119.903 74.6338C120.13 75.1806 120.242 75.8307 120.242 76.5897" fill="#E8C422"/>
<path d="M136.123 88.2127C135.893 87.846 135.69 87.4304 135.509 86.9474L129.868 72.123H129.645L135.045 86.3059C135.338 87.1013 135.7 87.736 136.123 88.2127Z" fill="#E8C422"/>
<path d="M124.178 84.7502L122.152 89.6839C122.234 89.7101 122.319 89.7369 122.397 89.7512V90.444H122.571L124.646 85.3935H131.148L130.909 84.7497H124.178L124.178 84.7502Z" fill="#E8C422"/>
<path d="M137.657 89.6092V89.7763C137.525 89.8122 137.337 89.8464 137.093 89.8749C136.848 89.9023 136.637 89.9166 136.452 89.9166C136.049 89.9166 135.618 89.8749 135.153 89.7911C134.693 89.7084 134.239 89.5414 133.794 89.2882C133.379 89.0549 132.985 88.7196 132.613 88.2897C132.738 88.4933 132.867 88.6849 133.002 88.8491C133.402 89.3235 133.821 89.6845 134.267 89.9297C134.707 90.1823 135.162 90.3482 135.619 90.4321C136.087 90.5165 136.514 90.5564 136.921 90.5564C137.103 90.5564 137.318 90.5433 137.563 90.5164C137.802 90.4879 137.992 90.4532 138.126 90.4184V89.7227C137.967 89.7033 137.812 89.6617 137.658 89.6098" fill="#E8C422"/>
<path d="M127.641 76.2595L124.711 83.5032H125.436L127.998 77.1787L127.641 76.2595Z" fill="#E8C422"/>
<path d="M122.151 89.6845L122.102 89.8054H121.927C121.841 89.8521 121.691 89.8949 121.52 89.9348L121.316 90.444H122.395V89.7523C122.316 89.7381 122.233 89.7084 122.151 89.685" fill="#E8C422"/>
<path d="M18.5897 47.8984C18.1741 45.691 17.4074 43.9969 16.2935 42.8233C15.1863 41.6435 13.7141 41.0556 11.8857 41.0556C10.8768 41.0556 9.93123 41.2369 9.05178 41.6025C8.1701 41.964 7.39842 42.5907 6.73786 43.474C6.07563 44.3601 5.55896 45.5388 5.18451 47.0077C4.81117 48.4778 4.62283 50.3162 4.62283 52.5236C4.62283 53.9098 4.75783 55.2464 5.01728 56.5483C5.28562 57.8461 5.70729 58.9928 6.29119 59.9873C6.87508 60.9847 7.62398 61.7813 8.53788 62.3732C9.44789 62.9679 10.5662 63.2633 11.8857 63.2633C13.4052 63.2633 14.8146 62.8214 16.1135 61.9353C17.4119 61.0503 18.4586 59.7575 19.2519 58.0594L20.4064 59.0425C19.3686 61.0554 18.1058 62.5346 16.6119 63.4829C15.1141 64.4272 13.2107 64.901 10.8974 64.901C9.159 64.901 7.61176 64.5851 6.25841 63.9556C4.90228 63.326 3.76505 62.453 2.84281 61.3325C1.91836 60.22 1.21279 58.9079 0.727787 57.4013C0.240559 55.8976 0 54.2719 0 52.523C0 50.6811 0.278337 48.9607 0.829454 47.3727C1.37724 45.7817 2.13669 44.4 3.10448 43.2185C4.07394 42.0438 5.22117 41.1138 6.55397 40.4363C7.88732 39.756 9.33734 39.4156 10.8974 39.4156C12.9696 39.4156 14.6341 39.711 15.9007 40.308C17.163 40.9016 18.1058 41.5893 18.7219 42.3666C19.1619 42.995 19.4158 43.8121 19.4819 44.8043C19.5463 45.8005 19.5808 46.8304 19.5808 47.899H18.5891L18.5897 47.8984Z" fill="#006237"/>
<path d="M34.9676 40.1461C35.5382 40.1461 36.0099 40.2293 36.3704 40.3987C36.7338 40.5669 37.0199 40.787 37.2293 41.0539C37.4371 41.3225 37.5838 41.6315 37.6577 41.9839C37.7343 42.3352 37.7732 42.691 37.7732 43.0577V46.1506H36.7832C36.7832 44.5962 36.4221 43.4825 35.7093 42.8C34.9899 42.1248 33.9776 41.7804 32.6565 41.7804H27.3403V50.8841H35.9238V52.523H27.3403V62.5374H32.9882C34.1971 62.5374 35.2276 62.238 36.0732 61.645C36.9188 61.0491 37.6299 59.964 38.206 58.3844L39.0933 58.7482L38.141 61.625C37.8943 62.4051 37.5838 63.0204 37.1949 63.4829C36.8082 63.9442 36.1654 64.1734 35.2649 64.1734H23.0464V44.8762C23.0464 43.7842 22.9086 42.9049 22.6386 42.2366C22.3575 41.5694 21.7264 41.2364 20.7352 41.2364H20.4064V40.1455H34.9676V40.1461Z" fill="#006237"/>
<path d="M57.8485 40.1421H59.4979V64.2875H57.9813L43.9805 46.1484V64.1734H42.3277V44.5124C42.3277 44.0528 42.2855 43.62 42.1966 43.2214C42.1077 42.8228 41.9538 42.4766 41.7188 42.1841C41.4877 41.8939 41.1822 41.6595 40.7955 41.4913C40.4088 41.323 39.9294 41.2347 39.3583 41.2347H39.1933V40.1427H41.5044C42.7616 40.1427 43.7755 40.3269 44.5589 40.6907C45.3383 41.0562 45.9828 41.6013 46.4906 42.3318L57.8485 56.8955V40.1421Z" fill="#006237"/>
<path d="M80.166 40.1461V41.7809H73.2653V64.1734H68.9731V41.7809H66.6297C65.4619 41.7809 64.5369 42.1048 63.8541 42.7498C63.1735 43.3896 62.8319 44.5243 62.8319 46.1512H61.8385V43.0583C61.8385 42.6916 61.8802 42.3352 61.9596 41.9845C62.0319 41.6321 62.1774 41.323 62.3863 41.0545C62.5946 40.7876 62.8813 40.5675 63.2469 40.3993C63.6113 40.2293 64.0752 40.1467 64.6502 40.1467H80.1654L80.166 40.1461Z" fill="#006237"/>
<path d="M87.7933 53.177H86.4722V64.1734H82.1477V45.4504C82.1477 44.359 82.011 43.4757 81.7327 42.8068C81.456 42.1408 80.8265 41.7718 79.8365 41.7718H79.5126L79.5054 40.1421H88.6227C89.1489 40.1421 89.7333 40.1666 90.3716 40.2157C91.0094 40.2636 91.655 40.3748 92.3189 40.5447C92.9789 40.7129 93.625 40.949 94.2511 41.2546C94.8761 41.558 95.4323 41.9606 95.9173 42.4527C96.4006 42.9499 96.7917 43.5618 97.0895 44.2769C97.3862 44.9914 97.5351 45.8478 97.5351 46.8412C97.5351 47.8345 97.3751 48.6083 97.0567 49.3012C96.7401 49.9929 96.3173 50.5734 95.8028 51.0484C95.2839 51.5199 94.7084 51.902 94.07 52.1962C93.4328 52.4848 92.8028 52.7169 92.1872 52.8851L95.6528 59.2569C96.0695 60.0341 96.4728 60.6739 96.8606 61.1711C97.2428 61.6684 97.6123 62.0601 97.9634 62.3515C98.3156 62.6429 98.6423 62.8579 98.9373 62.9925C99.2351 63.1259 99.504 63.2166 99.7473 63.2622V64.1728C99.5706 64.2726 99.2573 64.3553 98.8073 64.4306C98.3545 64.5047 97.9212 64.5384 97.5023 64.5384C96.9295 64.5384 96.3734 64.4528 95.8367 64.2869C95.2939 64.1147 94.7667 63.8233 94.2517 63.411C93.7345 62.9965 93.2167 62.4507 92.6967 61.7699C92.1828 61.0924 91.6467 60.2542 91.0961 59.2569L87.7938 53.1765L87.7933 53.177ZM88.6222 41.6019C88.3561 41.6019 88.0911 41.611 87.825 41.6367C87.5633 41.6589 87.3322 41.6988 87.1316 41.7479C86.8905 41.7935 86.671 41.8311 86.4716 41.8539V51.719H88.4527C88.9816 51.719 89.5105 51.6374 90.0394 51.4663C90.5644 51.2964 91.0461 51.0181 91.4767 50.6281C91.9044 50.2403 92.2517 49.7186 92.5156 49.0645C92.7795 48.4088 92.9095 47.6087 92.9095 46.6604C92.9095 45.7121 92.7795 44.9195 92.5156 44.2757C92.2517 43.6319 91.9072 43.1102 91.4894 42.7121C91.0739 42.3096 90.6122 42.0216 90.1066 41.8534C89.6005 41.6863 89.1033 41.6008 88.6227 41.6008" fill="#006237"/>
<path d="M116.946 59.5882C117.342 60.6556 117.829 61.5042 118.4 62.1388C118.973 62.7672 119.633 63.1322 120.38 63.2297V64.1415C120.205 64.1882 119.959 64.2282 119.64 64.2646C119.32 64.3034 119.041 64.3228 118.796 64.3228C118.271 64.3228 117.703 64.2647 117.094 64.1546C116.489 64.0497 115.895 63.8296 115.315 63.5005C114.734 63.1738 114.178 62.6999 113.662 62.0824C113.147 61.4642 112.687 60.6317 112.294 59.5887L111.53 57.5484H102.697L99.979 64.1768H98.3273L108.066 40.1467H109.55L116.945 59.5887L116.946 59.5882ZM103.397 55.909H110.898L107.246 46.4038L103.397 55.909Z" fill="#006237"/>
<path d="M137.614 62.5374V64.1734H121.931V44.8762C121.931 43.7842 121.796 42.9049 121.523 42.2366C121.248 41.5694 120.613 41.2364 119.621 41.2364H119.293V40.1421H123.253C123.824 40.1421 124.306 40.2248 124.688 40.3816C125.076 40.5373 125.385 40.8013 125.615 41.1668C125.844 41.5306 126.003 42.0113 126.095 42.6203C126.178 43.2265 126.225 43.9792 126.225 44.8767V62.538H137.614L137.614 62.5374Z" fill="#006237"/>
<path d="M14.5991 76.5959C14.2757 74.9143 13.6963 73.6256 12.849 72.7241C12.0013 71.8276 10.879 71.3783 9.48623 71.3783C8.71344 71.3783 7.99399 71.5169 7.32509 71.7917C6.6523 72.0728 6.06452 72.5496 5.56229 73.2241C5.05617 73.9004 4.66672 74.798 4.37727 75.9156C4.09394 77.0362 3.95171 78.4389 3.95171 80.1217C3.95171 81.1772 4.05116 82.1996 4.25616 83.193C4.45505 84.18 4.77728 85.0531 5.22062 85.812C5.66729 86.571 6.23507 87.1772 6.93286 87.6305C7.6312 88.0838 8.48177 88.3108 9.48678 88.3108C10.644 88.3108 11.7201 87.9738 12.7135 87.2952C13.6991 86.624 14.4991 85.637 15.1024 84.3403L15.9841 85.089C15.1952 86.6292 14.2268 87.7548 13.0863 88.475C11.9496 89.2004 10.4973 89.559 8.72733 89.559C7.40898 89.559 6.22952 89.3195 5.19617 88.8411C4.16283 88.357 3.29282 87.691 2.5917 86.8385C1.88447 85.9877 1.35002 84.9898 0.978345 83.8424C0.610563 82.6957 0.42445 81.4537 0.42445 80.1205C0.42445 78.7149 0.635008 77.4057 1.05557 76.1916C1.4728 74.9816 2.0528 73.9272 2.79226 73.0257C3.52949 72.1333 4.4095 71.4234 5.42173 70.9039C6.44063 70.3872 7.5412 70.1266 8.72733 70.1266C10.3135 70.1266 11.5818 70.3536 12.5446 70.8092C13.5096 71.2625 14.2263 71.7832 14.7002 72.3768C15.0318 72.8546 15.228 73.475 15.2802 74.234C15.3274 74.9981 15.3541 75.7771 15.3541 76.5942H14.5996L14.5991 76.5959Z" fill="#006237"/>
<path d="M27.5853 70.6855C28.0214 70.6855 28.3798 70.7488 28.6565 70.8811C28.9342 71.0054 29.1487 71.1753 29.3154 71.3783C29.472 71.5819 29.582 71.8174 29.6359 72.0854C29.6992 72.3545 29.7259 72.6283 29.7259 72.9054V75.2633H28.9676C28.9676 74.0795 28.7003 73.227 28.1503 72.7115C27.6064 72.1937 26.8325 71.9331 25.8248 71.9331H21.7686V78.8694H28.3142V80.1223H21.7686V87.7559H26.0748C27.0009 87.7559 27.7837 87.529 28.4281 87.0797C29.0709 86.6252 29.617 85.7972 30.0548 84.594L30.7337 84.8689L30.002 87.0608C29.8181 87.6539 29.5809 88.1283 29.2854 88.4796C28.9898 88.832 28.5009 89.0042 27.8164 89.0042H18.5013V74.2928C18.5013 73.4625 18.3919 72.7902 18.1836 72.2821C17.9752 71.7689 17.488 71.5203 16.7352 71.5203H16.4846V70.686H27.5848L27.5853 70.6855Z" fill="#006237"/>
<path d="M37.4305 80.6235H36.4227V89.007H33.1232V74.2945C33.1232 73.4591 33.021 72.7891 32.8104 72.2815C32.5982 71.7683 32.1137 71.5169 31.3659 71.5169H31.1132V70.6826H38.0588C38.4571 70.6826 38.906 70.7049 39.3933 70.7408C39.8805 70.7756 40.3738 70.86 40.8799 70.9883C41.3822 71.1206 41.8716 71.3019 42.3494 71.5283C42.8289 71.7615 43.2533 72.0671 43.6233 72.4463C43.9928 72.8273 44.2905 73.2886 44.5161 73.8326C44.74 74.3817 44.8572 75.0318 44.8572 75.7896C44.8572 76.5475 44.7322 77.1382 44.4894 77.668C44.2428 78.1897 43.9283 78.6357 43.5377 79.0006C43.1394 79.357 42.6977 79.6512 42.2144 79.8713C41.7255 80.0954 41.2455 80.2688 40.7772 80.4011L43.42 85.2589C43.7405 85.8525 44.0478 86.3366 44.3394 86.7164C44.6333 87.0922 44.9139 87.3961 45.1833 87.618C45.4489 87.8392 45.6989 88.0017 45.9244 88.1038C46.1483 88.207 46.355 88.2749 46.5406 88.3114V89.007C46.4078 89.0806 46.1672 89.1456 45.8239 89.1986C45.4806 89.2545 45.1489 89.2813 44.8283 89.2813C44.3922 89.2813 43.9694 89.2192 43.5561 89.0886C43.1466 88.9603 42.7433 88.7373 42.3488 88.4237C41.9544 88.1078 41.5599 87.6932 41.1677 87.1698C40.7733 86.6543 40.3638 86.0156 39.9449 85.2589L37.431 80.6229L37.4305 80.6235ZM38.0582 71.794C37.8571 71.794 37.656 71.802 37.4549 71.8225C37.2538 71.8408 37.076 71.8676 36.926 71.9081C36.7399 71.9417 36.5693 71.9702 36.4227 71.9907V79.5155H37.9327C38.3349 79.5155 38.7388 79.4482 39.1405 79.3188C39.5466 79.1865 39.906 78.9767 40.236 78.6779C40.5622 78.3825 40.8277 77.9833 41.0288 77.4861C41.2299 76.986 41.3322 76.3747 41.3322 75.6533C41.3322 74.932 41.2299 74.3241 41.0288 73.8332C40.8277 73.3433 40.5666 72.947 40.2477 72.6414C39.9294 72.3329 39.5766 72.1168 39.1933 71.9913C38.8027 71.859 38.4277 71.7946 38.0577 71.7946" fill="#006237"/>
<path d="M47.1467 73.9301C46.7411 72.894 46.3522 72.1698 45.9728 71.753C45.5978 71.3373 45.1561 71.0886 44.6533 71.0145V70.4625C44.7178 70.4625 44.8867 70.4545 45.1444 70.434C45.4061 70.4158 45.5917 70.4055 45.7128 70.4055C46.1489 70.4055 46.5945 70.4431 47.0589 70.5184C47.5178 70.592 47.965 70.7516 48.405 70.9883C48.8389 71.2318 49.2545 71.5813 49.6506 72.0455C50.0445 72.5079 50.3901 73.1386 50.6951 73.9301L54.6823 84.3123L60.0074 70.6826H61.2663L54.0184 89.2813H53.0101L47.1461 73.9301H47.1467Z" fill="#006237"/>
<path d="M71.967 70.6855C72.4014 70.6855 72.7575 70.7488 73.0381 70.8811C73.3131 71.0054 73.5309 71.1753 73.692 71.3783C73.8492 71.5819 73.9553 71.8174 74.0181 72.0854C74.0731 72.3545 74.1031 72.6283 74.1031 72.9054V75.2633H73.3487C73.3487 74.0795 73.0776 73.227 72.5314 72.7115C71.9853 72.1937 71.2097 71.9331 70.2031 71.9331H66.1502V78.8694H72.6925V80.1223H66.1502V87.7559H70.4536C71.3809 87.7559 72.1581 87.529 72.8064 87.0797C73.4531 86.6252 73.997 85.7972 74.4292 84.594L75.1137 84.8689L74.382 87.0608C74.1981 87.6539 73.9553 88.1283 73.6631 88.4796C73.3692 88.832 72.8803 89.0042 72.1903 89.0042H62.878V74.2928C62.878 73.4625 62.7719 72.7902 62.5652 72.2821C62.3546 71.7689 61.8696 71.5203 61.1168 71.5203H60.8646V70.686H71.967V70.6855Z" fill="#006237"/>
<path d="M89.71 76.5959C89.3944 74.9143 88.8116 73.6256 87.96 72.7241C87.1133 71.8276 85.9938 71.3783 84.6038 71.3783C83.8305 71.3783 83.1082 71.5169 82.4371 71.7917C81.7643 72.0728 81.1765 72.5496 80.676 73.2241C80.1721 73.9004 79.7793 74.798 79.491 75.9156C79.2065 77.0362 79.0626 78.4389 79.0626 80.1217C79.0626 81.1772 79.1654 82.1996 79.3626 83.193C79.5693 84.18 79.8915 85.0531 80.3315 85.812C80.7788 86.571 81.3493 87.1772 82.0471 87.6305C82.7427 88.0838 83.596 88.3108 84.6044 88.3108C85.761 88.3108 86.8355 87.9738 87.8255 87.2952C88.8155 86.624 89.6122 85.637 90.2161 84.3403L91.0922 85.089C90.3111 86.6292 89.3411 87.7548 88.2011 88.475C87.0577 89.2004 85.6077 89.559 83.8466 89.559C82.5232 89.559 81.3438 89.3195 80.3088 88.8411C79.2754 88.357 78.4093 87.691 77.7059 86.8385C76.9987 85.9877 76.462 84.9898 76.0926 83.8424C75.7248 82.6957 75.5387 81.4537 75.5387 80.1205C75.5387 78.7149 75.7493 77.4057 76.1681 76.1916C76.587 74.9816 77.1709 73.9272 77.9065 73.0257C78.6443 72.1333 79.5221 71.4234 80.5376 70.9039C81.5521 70.3872 82.6554 70.1266 83.846 70.1266C85.4216 70.1266 86.6977 70.3536 87.6605 70.8092C88.63 71.2625 89.3405 71.7832 89.8122 72.3768C90.1478 72.8546 90.3405 73.475 90.3922 74.234C90.4428 74.9981 90.4678 75.7771 90.4678 76.5942H89.7094L89.71 76.5959Z" fill="#006237"/>
<path d="M102.196 70.6855C102.633 70.6855 102.99 70.7488 103.266 70.8811C103.541 71.0054 103.76 71.1753 103.921 71.3783C104.08 71.5819 104.188 71.8174 104.247 72.0854C104.307 72.3545 104.336 72.6283 104.336 72.9054V75.2633H103.579C103.579 74.0795 103.306 73.227 102.764 72.7115C102.216 72.1937 101.439 71.9331 100.437 71.9331H96.3812V78.8694H102.928V80.1223H96.3812V87.7559H100.687C101.612 87.7559 102.391 87.529 103.042 87.0797C103.686 86.6252 104.225 85.7972 104.665 84.594L105.343 84.8689L104.613 87.0608C104.428 87.6539 104.19 88.1283 103.896 88.4796C103.605 88.832 103.114 89.0042 102.423 89.0042H93.1089V74.2928C93.1089 73.4625 93.0067 72.7902 92.7945 72.2821C92.5839 71.7689 92.1067 71.5203 91.3455 71.5203H91.0955V70.686H102.196V70.6855Z" fill="#006237"/>
<path d="M112.034 80.6235H111.031V89.007H107.735V74.2945C107.735 73.4591 107.629 72.7891 107.425 72.2815C107.21 71.7683 106.727 71.5169 105.972 71.5169H105.723V70.6826H112.667C113.069 70.6826 113.517 70.7049 114.004 70.7408C114.487 70.7756 114.982 70.86 115.486 70.9883C115.989 71.1206 116.484 71.3019 116.959 71.5283C117.439 71.7615 117.861 72.0671 118.231 72.4463C118.601 72.8273 118.899 73.2886 119.124 73.8326C119.352 74.3817 119.463 75.0318 119.463 75.7896C119.463 76.5475 119.342 77.1382 119.097 77.668C118.855 78.1897 118.536 78.6357 118.141 79.0006C117.748 79.357 117.308 79.6512 116.82 79.8713C116.332 80.0954 115.854 80.2688 115.389 80.4011L118.031 85.2589C118.345 85.8525 118.652 86.3366 118.948 86.7164C119.237 87.0922 119.519 87.3961 119.788 87.618C120.06 87.8392 120.307 88.0017 120.534 88.1038C120.76 88.207 120.964 88.2749 121.15 88.3114V89.007C121.018 89.0806 120.779 89.1456 120.433 89.1986C120.085 89.2545 119.757 89.2813 119.439 89.2813C119.006 89.2813 118.579 89.2192 118.168 89.0886C117.756 88.9603 117.353 88.7373 116.959 88.4237C116.564 88.1078 116.171 87.6932 115.778 87.1698C115.379 86.6543 114.974 86.0156 114.557 85.2589L112.033 80.6229L112.034 80.6235ZM112.668 71.794C112.465 71.794 112.265 71.802 112.065 71.8225C111.864 71.8408 111.686 71.8676 111.532 71.9081C111.35 71.9417 111.18 71.9702 111.031 71.9907V79.5155H112.54C112.947 79.5155 113.347 79.4482 113.751 79.3188C114.155 79.1865 114.516 78.9767 114.844 78.6779C115.174 78.3825 115.438 77.9833 115.64 77.4861C115.839 76.986 115.94 76.3747 115.94 75.6533C115.94 74.932 115.839 74.3241 115.64 73.8332C115.438 73.3433 115.175 72.947 114.859 72.6414C114.54 72.3329 114.189 72.1168 113.804 71.9913C113.416 71.859 113.035 71.7946 112.668 71.7946" fill="#006237"/>
<path d="M134.265 85.507C134.566 86.3241 134.938 86.9707 135.372 87.4514C135.81 87.9304 136.312 88.2093 136.887 88.2846V88.9785C136.748 89.0133 136.561 89.0487 136.316 89.0772C136.071 89.1046 135.859 89.1171 135.677 89.1171C135.275 89.1171 134.839 89.0772 134.38 88.9916C133.918 88.909 133.463 88.7413 133.017 88.4927C132.575 88.2429 132.152 87.8814 131.762 87.4098C131.362 86.9394 131.017 86.3024 130.715 85.507L130.135 83.9525H123.401L121.328 89.007H120.069L127.493 70.6826H128.628L134.266 85.507H134.265ZM123.933 82.7048H129.652L126.868 75.4589L123.933 82.7048H123.933Z" fill="#006237"/>
<path d="M102.653 20.9241C100.082 21.6495 94.7623 24.3803 98.6351 25.5795C100.981 26.3117 103.808 22.2282 104.088 21.8114C104.273 21.5314 104.802 20.6071 104.952 20.3556L102.653 20.9241Z" fill="#E5B323"/>
<path d="M98.4101 26.8009C94.3806 27.8102 100.803 32.7633 103.057 32.8528C101.9 30.5314 102.435 27.5713 99.6529 26.8072C99.2706 26.6983 98.4101 26.8009 98.4101 26.8009Z" fill="#E5B323"/>
<path d="M109.09 21.3854C106.709 22.0577 101.79 24.5799 105.369 25.6924C107.542 26.3664 110.156 22.5938 110.418 22.2066C110.592 21.9477 111.079 21.0923 111.215 20.858L109.09 21.3854Z" fill="#E5B323"/>
<path d="M105.159 26.8243C101.433 27.7595 107.375 32.3402 109.464 32.4257C108.392 30.2782 108.887 27.5371 106.315 26.8272C105.957 26.7302 105.159 26.8243 105.159 26.8243Z" fill="#E5B323"/>
<path d="M114.846 21.8992C112.682 22.5082 108.201 24.8085 111.461 25.8179C113.437 26.4331 115.818 22.9963 116.057 22.6468C116.21 22.4113 116.659 21.6323 116.783 21.4174L114.845 21.8992H114.846Z" fill="#E5B323"/>
<path d="M111.275 26.8517C107.879 27.6951 113.295 31.8675 115.191 31.949C114.215 29.9914 114.665 27.5006 112.322 26.854C111.999 26.7644 111.275 26.8511 111.275 26.8511" fill="#E5B323"/>
<path d="M116.161 26.4594C116.165 27.4721 121.923 26.6812 124.043 26.1925L120.055 25.9245C120.055 25.9245 116.156 25.5801 116.161 26.4594Z" fill="#E5B323"/>
<path d="M116.635 25.0811C116.923 25.7574 120.709 24.4801 122.049 23.6909L119.306 24.0769C119.306 24.0769 116.37 24.4852 116.635 25.0811Z" fill="#E5B323"/>
<path d="M116.635 27.9773C116.923 27.305 120.709 28.5812 122.049 29.3698L119.306 28.9838C119.306 28.9838 116.37 28.5795 116.635 27.9773Z" fill="#E5B323"/>
<path d="M33.5298 20.2102C36.096 20.9315 41.4155 23.6675 37.5482 24.8644C35.201 25.592 32.3709 21.512 32.0915 21.0963C31.9076 20.8152 31.377 19.8903 31.227 19.6405L33.5298 20.2108V20.2102Z" fill="#E5B323"/>
<path d="M37.7688 26.0864C41.7966 27.094 35.3793 32.0465 33.1226 32.1383C34.2771 29.8152 33.7465 26.8568 36.526 26.0864C36.9054 25.9826 37.7688 26.0864 37.7688 26.0864Z" fill="#E5B323"/>
<path d="M27.0875 20.6675C29.4687 21.3387 34.3882 23.8671 30.8082 24.9785C28.6365 25.6496 26.0192 21.8775 25.7614 21.4904C25.5881 21.2298 25.1014 20.3738 24.9592 20.1457L27.0875 20.6675Z" fill="#E5B323"/>
<path d="M31.0204 26.107C34.7476 27.0399 28.8031 31.6228 26.7153 31.7084C27.7842 29.562 27.2931 26.8237 29.8631 26.1127C30.217 26.01 31.0204 26.1075 31.0204 26.1075" fill="#E5B323"/>
<path d="M21.3314 21.1847C23.4964 21.7909 27.9742 24.0912 24.7153 25.1034C22.7381 25.7164 20.3569 22.2807 20.123 21.9294C19.9647 21.6939 19.5163 20.9161 19.3925 20.7029L21.3319 21.1847H21.3314Z" fill="#E5B323"/>
<path d="M24.9047 26.1303C28.2965 26.98 22.8847 31.1524 20.9864 31.2316C21.9608 29.2729 21.5164 26.7833 23.8547 26.1395C24.177 26.0465 24.9053 26.1303 24.9053 26.1303" fill="#E5B323"/>
<path d="M20.0175 25.7414C20.0147 26.7542 14.2541 25.9655 12.1318 25.4746L16.1207 25.2066C16.1207 25.2066 20.023 24.8644 20.0175 25.7414Z" fill="#E5B323"/>
<path d="M19.543 24.3672C19.2586 25.0406 15.4691 23.7599 14.1285 22.9735L16.868 23.3596C16.868 23.3596 19.8064 23.765 19.5425 24.3672" fill="#E5B323"/>
<path d="M19.543 27.2611C19.2586 26.5911 15.4691 27.8661 14.1285 28.6548L16.868 28.2676C16.868 28.2676 19.8064 27.8633 19.5425 27.2611" fill="#E5B323"/>
<path d="M51.4501 23.6989V30.1875C51.4501 30.1875 59.4429 26.7627 68.1753 26.7627C76.9076 26.7627 84.3977 30.1875 84.3977 30.1875V23.6989C84.3977 23.6989 77.7148 20.2752 68.2758 20.2752C58.8368 20.2752 51.4501 23.6989 51.4501 23.6989Z" fill="url(#paint0_linear_168_98)"/>
<path d="M69.6881 0H66.8291C66.8291 0 67.5175 16.3645 68.3269 16.3645C69.1364 16.3645 69.6881 0 69.6881 0Z" fill="#E5B323"/>
<path d="M59.4791 0.754418L56.7907 1.70328C56.7907 1.70328 62.9808 16.8772 63.8563 16.6012C64.6108 16.364 59.4791 0.754418 59.4791 0.754418Z" fill="#E5B323"/>
<path d="M49.4117 5.00835L47.22 6.79717C47.22 6.79717 57.649 18.2098 58.254 17.6595C58.8379 17.1155 49.4117 5.00835 49.4117 5.00835Z" fill="#E5B323"/>
<path d="M42.6972 12.0353L41.1616 14.3892C41.1616 14.3892 52.2217 20.2313 53.0106 19.5293C53.5168 19.0087 42.6972 12.0353 42.6972 12.0353Z" fill="#E5B323"/>
<path d="M77.0359 0.754418L79.7182 1.70328C79.7182 1.70328 73.5303 16.8772 72.6525 16.6012C71.9014 16.364 77.0354 0.754418 77.0354 0.754418" fill="#E5B323"/>
<path d="M87.0994 5.00835L89.2916 6.79717C89.2916 6.79717 78.8604 18.2098 78.2632 17.6595C77.6776 17.1155 87.0994 5.00835 87.0994 5.00835Z" fill="#E5B323"/>
<path d="M93.8167 12.0353L95.3528 14.3892C95.3528 14.3892 84.286 20.2313 83.5032 19.5293C82.9932 19.0087 93.8167 12.0353 93.8167 12.0353Z" fill="#E5B323"/>
<defs>
<linearGradient id="paint0_linear_168_98" x1="0" y1="45.4974" x2="139" y2="45.4974" gradientUnits="userSpaceOnUse">
<stop stop-color="#D6B02A"/>
<stop offset="0.53" stop-color="#FFDB06"/>
<stop offset="0.98" stop-color="#D7B228"/>
<stop offset="1" stop-color="#D6B02A"/>
</linearGradient>
</defs>
</svg>
