<svg width="124" height="86" viewBox="0 0 124 86" fill="none" xmlns="http://www.w3.org/2000/svg">
<path d="M7.55935 53.8146C6.29198 53.8146 5.21959 53.6827 4.34218 53.386C3.46477 53.0892 2.78234 52.6936 2.2624 52.1001C1.74245 51.5396 1.35249 50.8142 1.12502 49.9569C0.897539 49.0997 0.800049 48.0776 0.800049 46.9566V32.713H6.38947V46.429C6.38947 47.1874 6.51946 47.7149 6.77943 48.0116C7.03941 48.3084 7.52686 48.4403 8.24178 48.4403H22.6703V53.8476H7.55935V53.8146Z" fill="#073A8C"/>
<path d="M51.7873 52.8914C51.8848 53.0563 51.9498 53.2211 51.9823 53.353C52.0473 53.4849 52.0798 53.6497 52.1123 53.8146H45.8404C45.8079 53.6827 45.7429 53.5508 45.7104 53.4189C45.6779 53.32 45.6129 53.1881 45.5804 53.0892L44.4756 50.5175H32.1593L31.0869 53.0562C31.0544 53.1881 30.9894 53.32 30.9569 53.4189C30.9244 53.5508 30.892 53.6827 30.8595 53.7816H24.4251C24.4576 53.6168 24.5226 53.4519 24.5551 53.32C24.6201 53.1881 24.6851 53.0233 24.7501 52.8584L32.1918 36.109C32.7768 34.7901 33.5567 33.834 34.5316 33.1746C35.5065 32.5151 36.7413 32.2184 38.2362 32.2184C39.6985 32.2184 40.9009 32.5481 41.8758 33.1746C42.8507 33.834 43.6306 34.7901 44.2156 36.109L51.7873 52.8914ZM42.4608 45.9015L39.2436 38.3511C39.1461 38.1203 39.0161 37.9554 38.8536 37.8565C38.6911 37.7576 38.4962 37.6916 38.3012 37.6916C38.1062 37.6916 37.9437 37.7246 37.7812 37.8235C37.6188 37.9224 37.4888 38.0873 37.3913 38.3511L34.2066 45.9015H42.4608Z" fill="#073A8C"/>
<path d="M75.6398 38.0873H60.1714C59.5865 38.0873 59.294 38.384 59.294 39.0105V41.2855H75.5099V46.5279H59.294V53.5838H53.7046V36.3398C53.7046 33.768 54.972 32.4492 57.4742 32.4492H75.6398V38.0873Z" fill="#073A8C"/>
<path d="M94.0654 54.0124C93.318 54.0124 92.6356 53.8476 92.0182 53.5508C91.3682 53.2541 90.9133 52.7595 90.5558 52.0671L84.2515 38.7797C84.1865 38.6148 84.0565 38.5159 83.8615 38.5159C83.7315 38.5159 83.634 38.5489 83.5365 38.6478C83.439 38.7467 83.374 38.8786 83.374 39.0764V53.5838H78.0121V38.1203C78.0121 36.9333 78.1746 35.9441 78.5321 35.1858C78.857 34.4275 79.3445 33.768 79.9619 33.2735C80.4493 32.9108 80.9693 32.5811 81.5867 32.3503C82.2042 32.1195 82.8541 31.9876 83.6015 31.9876C84.9014 31.9876 85.9738 32.3503 86.8187 33.0756C87.6636 33.801 88.346 34.7572 88.866 35.9112L93.578 46.2971C93.6755 46.5609 93.8705 46.6928 94.0979 46.6928C94.3254 46.6928 94.5204 46.5609 94.6179 46.2971L99.3299 35.9112C99.8498 34.7572 100.532 33.801 101.377 33.0756C102.19 32.3503 103.262 31.9876 104.594 31.9876C105.342 31.9876 105.992 32.1195 106.609 32.3503C107.227 32.5811 107.747 32.9108 108.234 33.2735C108.851 33.768 109.339 34.3945 109.664 35.1858C109.989 35.9441 110.184 36.9333 110.184 38.1203V53.5838H104.822V39.1094C104.822 38.9116 104.757 38.7797 104.659 38.6808C104.562 38.5819 104.432 38.5489 104.334 38.5489C104.139 38.5489 104.009 38.6478 103.944 38.8126L97.6401 52.1001C97.3151 52.7595 96.8277 53.2541 96.1777 53.5838C95.4953 53.8805 94.8129 54.0124 94.0654 54.0124Z" fill="#073A8C"/>
<path d="M104.139 76.6637C103.392 75.9054 102.807 75.0151 102.417 73.993L102.255 73.6303L101.93 73.8611C95.9827 77.8507 89.0935 79.9279 81.9442 79.9279C69.498 79.9279 58.0267 73.5644 51.2999 62.9147L51.2024 62.7498H44.833L45.093 63.2444C45.5154 64.0687 45.9379 64.827 46.3929 65.5194C54.1271 78.0485 67.4182 85.5 81.9442 85.5C90.3283 85.5 98.4525 82.9942 105.374 78.2133L105.764 77.9496L105.342 77.6858C104.919 77.3891 104.529 77.0593 104.139 76.6637Z" fill="#3C9DFF"/>
<path d="M81.9442 0.5C74.6324 0.5 67.4182 2.44531 61.0813 6.13809C54.972 9.69899 49.7725 14.8425 46.1004 20.9422C45.7754 21.4697 45.4505 22.0632 45.0605 22.7556L44.8005 23.2502H51.1699L51.2674 23.0853C58.0267 12.4686 69.498 6.10512 81.9442 6.10512C101.995 6.10512 118.308 22.6567 118.308 43C118.308 50.2207 116.228 57.2436 112.329 63.2774L112.101 63.6071L112.459 63.7719C113.433 64.1676 114.343 64.7611 115.091 65.5194C115.481 65.9151 115.806 66.3437 116.098 66.7723L116.358 67.2009L116.618 66.8053C121.33 59.7494 123.8 51.5396 123.8 43.033C123.865 19.5574 105.049 0.5 81.9442 0.5Z" fill="#3C9DFF"/>
<path d="M109.631 81.7743C106.934 81.7743 104.237 80.7192 102.19 78.642C100.207 76.6307 99.1024 73.9271 99.1024 71.0916C99.1024 68.256 100.207 65.5524 102.19 63.5411C106.284 59.3867 112.978 59.3867 117.073 63.5411C119.055 65.5524 120.16 68.256 120.16 71.0916C120.16 73.9271 119.055 76.6307 117.073 78.642C115.026 80.7192 112.329 81.7743 109.631 81.7743ZM109.631 65.3545C108.169 65.3545 106.739 65.9151 105.634 67.0361C104.562 68.1241 103.977 69.5749 103.977 71.0916C103.977 72.6082 104.562 74.059 105.634 75.147C107.844 77.3891 111.419 77.3891 113.628 75.147C114.701 74.059 115.286 72.6082 115.286 71.0916C115.286 69.5749 114.701 68.1241 113.628 67.0361C112.524 65.9151 111.061 65.3545 109.631 65.3545Z" fill="#BE0C07"/>
</svg>
