<svg width="80" height="100" viewBox="0 0 80 100" fill="none" xmlns="http://www.w3.org/2000/svg">
<path d="M73.2436 0.000318487H0.000330556V73.244C-0.00851445 74.1338 0.160228 75.0165 0.496682 75.8403C0.833136 76.6641 1.33054 77.4126 1.95978 78.0418C2.58903 78.6711 3.33747 79.1685 4.16129 79.5049C4.98512 79.8414 5.86779 80.0101 6.75763 80.0013H40V100L59.9998 80.0001H79.9997V6.75765C80.0085 5.86791 79.8398 4.98534 79.5034 4.16159C79.1671 3.33784 78.6698 2.58945 78.0407 1.96022C77.4115 1.33099 76.6633 0.83356 75.8396 0.497031C75.0159 0.160502 74.1333 -0.00836255 73.2436 0.000318487ZM8.51374 49.7306L12.9733 48.6497V20.2711L8.51374 19.0554V15.9463H27.1631V19.0542L20.9462 20.2699V49.1913H29.7305L32.0283 40.4071H35.8125V52.8384H8.37894L8.51374 49.7306ZM51.6225 36.0823H50.2744V48.6521L54.734 49.8678V52.9756H37.8383V49.8654L42.2978 48.6497V20.2711L37.8383 19.0554V15.9463H54.3246C63.6493 15.9463 67.9728 19.4598 67.9728 25.5407C67.9728 29.8654 65.2706 32.9733 60.2694 34.4598C63.2425 35.4058 64.9998 37.5676 66.2155 41.4867C68.2424 48.6484 69.5941 49.5945 71.6211 49.7306V52.8384C70.3098 53.2595 68.9441 53.487 67.5672 53.5136C63.1077 53.5136 61.0807 52.0271 58.7829 43.9193C56.8908 37.4328 55.8099 36.0762 51.6212 36.0762" fill="#C51A1B"/>
<path d="M27.6717 68.0577H25.8776V58.8911H22.6913V57.2979H30.668V58.6938H27.4817V68.0577H27.6717Z" fill="white"/>
<path d="M37.8395 68.0577H31.8591V57.2979H37.8407V58.6938H33.6532V61.6839H37.6397V63.0798H33.6532V66.4695H37.8395V68.0577Z" fill="white"/>
<path d="M44.2206 58.6864C43.7751 58.6824 43.3335 58.7688 42.9223 58.9402C42.5112 59.1117 42.1391 59.3647 41.8284 59.6839C41.213 60.553 40.9296 61.6139 41.0294 62.6741C40.9296 63.7343 41.213 64.7952 41.8284 65.6643C42.1392 65.9834 42.5114 66.2362 42.9225 66.4077C43.3336 66.5791 43.7752 66.6656 44.2206 66.6619C44.6941 66.681 45.1672 66.6133 45.6164 66.4621C46.0982 66.3965 46.5683 66.2624 47.0122 66.0638V67.4597C46.1233 67.8002 45.1692 67.9364 44.2206 67.8579C43.5547 67.923 42.8829 67.8306 42.2594 67.5882C41.6358 67.3457 41.0781 66.9599 40.6311 66.4621C39.7657 65.32 39.3411 63.9042 39.4351 62.4744C39.4213 61.4466 39.6251 60.4276 40.0331 59.4842C40.462 58.6849 41.0774 58.0009 41.8272 57.4903C42.6927 57.0608 43.652 56.8548 44.6176 56.8911C45.6435 56.8973 46.6587 57.1007 47.6078 57.4903L46.6102 59.2844C46.2467 59.0631 45.8378 58.9269 45.4142 58.8862C45.2156 58.6864 44.8174 58.6864 44.2181 58.6864" fill="white"/>
<path d="M57.18 68.0577H55.3859V63.2783H50.4019V68.0577H48.6065V57.2979H50.4007V61.6839H55.3859V57.2979H57.18V68.0577Z" fill="white"/>
<path d="M53.6506 19.7294H50.272V32.4328H54.0563C57.3001 32.4328 59.7315 30.2711 59.7315 26.0811C59.7315 21.4868 57.158 19.7294 53.6506 19.7294Z" fill="#C51A1B"/>
</svg>
