<svg width="40" height="50" viewBox="0 0 40 50" fill="none" xmlns="http://www.w3.org/2000/svg">
<path d="M36.6218 0.000159243H0.000165278V36.622C-0.00425723 37.0669 0.0801141 37.5082 0.248341 37.9202C0.416568 38.3321 0.665271 38.7063 0.979892 39.0209C1.29451 39.3355 1.66873 39.5842 2.08065 39.7525C2.49256 39.9207 2.93389 40.0051 3.37881 40.0006H20V50L29.9999 40H39.9998V3.37882C40.0043 2.93395 39.9199 2.49267 39.7517 2.0808C39.5835 1.66892 39.3349 1.29473 39.0203 0.980112C38.7058 0.665497 38.3316 0.41678 37.9198 0.248515C37.5079 0.0802511 37.0667 -0.00418128 36.6218 0.000159243ZM4.25687 24.8653L6.48663 24.3248V10.1355L4.25687 9.5277V7.97317H13.5815V9.52709L10.4731 10.1349V24.5957H14.8652L16.0141 20.2035H17.9063V26.4192H4.18947L4.25687 24.8653ZM25.8112 18.0412H25.1372V24.3261L27.367 24.9339V26.4878H18.9191V24.9327L21.1489 24.3248V10.1355L18.9191 9.5277V7.97317H27.1623C31.8247 7.97317 33.9864 9.72991 33.9864 12.7703C33.9864 14.9327 32.6353 16.4866 30.1347 17.2299C31.6212 17.7029 32.4999 18.7838 33.1077 20.7434C34.1212 24.3242 34.7971 24.7973 35.8105 24.8653V26.4192C35.1549 26.6298 34.4721 26.7435 33.7836 26.7568C31.5538 26.7568 30.5404 26.0136 29.3915 21.9596C28.4454 18.7164 27.905 18.0381 25.8106 18.0381" fill="white"/>
<path d="M13.8358 34.0288H12.9388V29.4455H11.3457V28.649H15.334V29.3469H13.7409V34.0288H13.8358Z" fill="#002448"/>
<path d="M18.9197 34.0288H15.9296V28.649H18.9204V29.3469H16.8266V30.842H18.8199V31.5399H16.8266V33.2347H18.9197V34.0288Z" fill="#002448"/>
<path d="M22.1103 29.3432C21.8876 29.3412 21.6667 29.3844 21.4612 29.4701C21.2556 29.5558 21.0695 29.6823 20.9142 29.842C20.6065 30.2765 20.4648 30.807 20.5147 31.3371C20.4648 31.8672 20.6065 32.3976 20.9142 32.8322C21.0696 32.9917 21.2557 33.1181 21.4613 33.2038C21.6668 33.2895 21.8876 33.3328 22.1103 33.3309C22.3471 33.3405 22.5836 33.3066 22.8082 33.2311C23.0491 33.1983 23.2841 33.1312 23.5061 33.0319V33.7298C23.0617 33.9001 22.5846 33.9682 22.1103 33.929C21.7774 33.9615 21.4414 33.9153 21.1297 33.7941C20.8179 33.6728 20.539 33.48 20.3156 33.2311C19.8829 32.66 19.6705 31.9521 19.7175 31.2372C19.7107 30.7233 19.8126 30.2138 20.0165 29.7421C20.231 29.3425 20.5387 29.0005 20.9136 28.7452C21.3464 28.5304 21.826 28.4274 22.3088 28.4455C22.8218 28.4486 23.3293 28.5504 23.8039 28.7452L23.3051 29.6422C23.1234 29.5315 22.9189 29.4635 22.7071 29.4431C22.6078 29.3432 22.4087 29.3432 22.1091 29.3432" fill="#002448"/>
<path d="M28.59 34.0288H27.693V31.6391H25.2009V34.0288H24.3033V28.649H25.2003V30.842H27.693V28.649H28.59V34.0288Z" fill="#002448"/>
<path d="M26.8253 9.86471H25.136V16.2164H27.0281C28.6501 16.2164 29.8657 15.1355 29.8657 13.0406C29.8657 10.7434 28.579 9.86471 26.8253 9.86471Z" fill="white"/>
</svg>
