<svg width="150" height="26" viewBox="0 0 150 26" fill="none" xmlns="http://www.w3.org/2000/svg">
<mask id="mask0_126_1142" style="mask-type:luminance" maskUnits="userSpaceOnUse" x="28" y="2" width="14" height="20">
<path d="M29.0091 7.32875C29.0091 10.1728 30.7927 11.6732 35.1995 12.5684C39.3696 13.4113 40.3939 14.5442 40.3939 16.4915C40.3939 18.6496 38.5047 20.2039 35.7504 20.2039C33.2716 20.2487 30.8851 19.2549 29.1655 17.46L28.2737 18.4867C30.2553 20.4101 32.9143 21.4697 35.67 21.4353C39.2103 21.4353 41.7562 19.3819 41.7562 16.4063C41.7562 13.6624 39.9726 12.141 35.7221 11.2712C31.3674 10.376 30.3714 9.1864 30.3714 7.24206C30.3714 5.29772 32.155 3.71353 34.8542 3.71353C36.8804 3.67766 38.8426 4.42345 40.3374 5.79839L41.2038 4.71787C39.4605 3.20244 37.2124 2.40289 34.9077 2.47911C31.4984 2.47911 29.0047 4.58634 29.0047 7.32427" fill="white"/>
</mask>
<g mask="url(#mask0_126_1142)">
<path d="M28.6218 0.337593L25.277 20.9546L41.4084 23.5918L44.7532 2.97484L28.6218 0.337593Z" fill="url(#paint0_radial_126_1142)"/>
</g>
<mask id="mask1_126_1142" style="mask-type:luminance" maskUnits="userSpaceOnUse" x="44" y="7" width="12" height="15">
<path d="M54.5568 7.75348V15.5204C54.658 18.064 52.6854 20.2086 50.1515 20.3088C50.0726 20.3118 49.9922 20.3133 49.9133 20.3118C47.2126 20.3118 45.6643 18.4945 45.6643 15.7296V7.75198H44.3779V15.9673C44.3779 19.179 46.3461 21.4969 49.7286 21.4969C51.743 21.5687 53.6204 20.4732 54.5553 18.6798V21.1801H55.8416V7.75049H54.5553L54.5568 7.75348Z" fill="white"/>
</mask>
<g mask="url(#mask1_126_1142)">
<path d="M44.6755 5.9268L42.207 21.1421L55.545 23.3227L58.0135 8.10737L44.6755 5.9268Z" fill="url(#paint1_radial_126_1142)"/>
</g>
<mask id="mask2_126_1142" style="mask-type:luminance" maskUnits="userSpaceOnUse" x="59" y="7" width="14" height="19">
<path d="M60.6176 14.4935C60.5179 11.3805 62.952 8.7771 66.0517 8.67846C66.0591 8.67846 66.0666 8.67846 66.0725 8.67846C68.8789 8.67846 71.3205 10.9426 71.3205 14.4711C71.3205 17.9997 68.9861 20.2638 66.0725 20.2638C62.9878 20.1936 60.5447 17.626 60.6162 14.5294C60.6162 14.519 60.6162 14.5085 60.6162 14.4965M60.695 10.7573V7.75184H59.4087V25.3944H60.695V18.2851C61.8369 20.2578 63.9316 21.4789 66.2035 21.4968C70.0714 21.2098 72.9746 17.8293 72.6887 13.9466C72.4326 10.4629 69.6724 7.69358 66.2035 7.43652C63.9108 7.48285 61.8146 8.7457 60.695 10.7543" fill="white"/>
</mask>
<g mask="url(#mask2_126_1142)">
<path d="M59.7536 5.31813L56.5717 24.9307L72.3651 27.5127L75.547 7.90012L59.7536 5.31813Z" fill="url(#paint2_radial_126_1142)"/>
</g>
<mask id="mask3_126_1142" style="mask-type:luminance" maskUnits="userSpaceOnUse" x="74" y="7" width="13" height="15">
<path d="M80.7877 8.62168C83.8561 8.62168 85.4044 11.1235 85.5876 13.836H75.8583C76.095 10.8605 78.1406 8.62168 80.7892 8.62168M74.4946 14.4383C74.2906 18.1267 77.1044 21.2816 80.7787 21.4849C80.871 21.4893 80.9619 21.4938 81.0542 21.4938C83.1846 21.5387 85.2198 20.6091 86.5895 18.9696L85.6977 18.179C84.5498 19.5226 82.8705 20.2937 81.1063 20.2848C78.2121 20.2534 75.8762 17.8981 75.8583 14.9913H86.9542C86.9765 14.8164 86.9855 14.64 86.981 14.4652C86.981 10.4898 84.593 7.43506 80.8428 7.43506C77.0925 7.43506 74.4961 10.5421 74.4961 14.4383" fill="white"/>
</mask>
<g mask="url(#mask3_126_1142)">
<path d="M74.8161 5.44936L72.2712 21.1353L86.657 23.4871L89.2018 7.80121L74.8161 5.44936Z" fill="url(#paint3_radial_126_1142)"/>
</g>
<mask id="mask4_126_1142" style="mask-type:luminance" maskUnits="userSpaceOnUse" x="89" y="7" width="8" height="15">
<path d="M90.7045 11.5703V7.75185H89.4182V21.1814H90.7045V15.6772C90.7045 11.3058 93.4067 8.96241 96.4989 8.96241H96.6299V7.53516H96.4021C93.8711 7.62034 91.6335 9.20451 90.7015 11.5688" fill="white"/>
</mask>
<g mask="url(#mask4_126_1142)">
<path d="M89.6043 6.38725L87.2615 20.8281L96.4454 22.3296L98.7883 7.88868L89.6043 6.38725Z" fill="url(#paint4_radial_126_1142)"/>
</g>
<mask id="mask5_126_1142" style="mask-type:luminance" maskUnits="userSpaceOnUse" x="112" y="1" width="6" height="5">
<path d="M112.545 3.65857V3.71239C112.752 5.1232 114.058 6.09759 115.463 5.89135C116.586 5.72546 117.468 4.84074 117.634 3.71239V3.65857C117.412 2.24777 116.093 1.28529 114.687 1.50946C113.586 1.68432 112.721 2.55264 112.547 3.65857" fill="white"/>
</mask>
<g mask="url(#mask5_126_1142)">
<path d="M112.677 0.667558L111.843 5.80371L117.502 6.72884L118.335 1.59268L112.677 0.667558Z" fill="url(#paint5_radial_126_1142)"/>
</g>
<mask id="mask6_126_1142" style="mask-type:luminance" maskUnits="userSpaceOnUse" x="98" y="1" width="13" height="21">
<path d="M98.7112 4.21612V18.9638C98.6963 20.3971 99.8412 21.5717 101.269 21.5867C101.287 21.5867 101.306 21.5867 101.324 21.5867H108.516C109.856 21.5867 110.943 20.4957 110.943 19.1506C110.943 17.8056 109.856 16.7146 108.516 16.7146H103.938V4.21612C103.938 2.76795 102.768 1.59326 101.326 1.59326C99.8829 1.59326 98.7127 2.76795 98.7127 4.21612" fill="white"/>
</mask>
<g mask="url(#mask6_126_1142)">
<path d="M98.9547 -0.410534L95.4747 21.0156L110.551 23.483L114.031 2.05686L98.9547 -0.410534Z" fill="url(#paint6_radial_126_1142)"/>
</g>
<mask id="mask7_126_1142" style="mask-type:luminance" maskUnits="userSpaceOnUse" x="112" y="6" width="6" height="19">
<path d="M112.785 8.94759L112.597 21.9826C112.597 23.3651 113.714 24.4844 115.089 24.4844C116.465 24.4844 117.582 23.3636 117.582 21.9826L117.769 8.94759C117.769 7.56518 116.653 6.4458 115.277 6.4458C113.901 6.4458 112.785 7.56667 112.785 8.94759Z" fill="white"/>
</mask>
<g mask="url(#mask7_126_1142)">
<path d="M112.657 5.56543L109.669 23.9604L117.558 25.2516L120.546 6.85661L112.657 5.56543Z" fill="url(#paint7_radial_126_1142)"/>
</g>
<mask id="mask8_126_1142" style="mask-type:luminance" maskUnits="userSpaceOnUse" x="120" y="0" width="17" height="25">
<path d="M122.757 0.791992C121.329 0.793487 120.172 1.95469 120.171 3.38792V19.1504C120.171 20.5851 121.329 21.7464 122.757 21.7464C124.184 21.7464 125.343 20.5836 125.343 19.1504V17.0775L126.327 16.1913L131.744 23.2155C132.219 23.9762 133.065 24.4215 133.958 24.3856C135.286 24.4125 136.385 23.353 136.41 22.0199C136.41 22.0034 136.41 21.987 136.41 21.9705C136.395 21.3653 136.177 20.7824 135.789 20.3191L130.053 12.9497L132.283 11.101L132.298 11.0876C132.961 10.557 133.364 9.76495 133.404 8.91458C133.424 7.61884 132.392 6.55178 131.101 6.53235C131.086 6.53235 131.072 6.53235 131.057 6.53235C130.217 6.56673 129.431 6.95083 128.886 7.59496L125.343 10.9381V3.38942C125.341 1.9547 124.181 0.791994 122.752 0.793488L122.757 0.791992Z" fill="white"/>
</mask>
<g mask="url(#mask8_126_1142)">
<path d="M120.587 -1.79344L116.438 23.7798L135.986 26.9756L140.135 1.40234L120.587 -1.79344Z" fill="url(#paint8_radial_126_1142)"/>
</g>
<mask id="mask9_126_1142" style="mask-type:luminance" maskUnits="userSpaceOnUse" x="135" y="5" width="15" height="17">
<path d="M142.663 10.1654C143.884 10.1624 144.922 11.0576 145.105 12.2681H140.165C140.382 11.0531 141.433 10.1684 142.663 10.1654ZM135.14 13.8897V13.9435C135.014 18.1684 138.325 21.6954 142.534 21.8225C142.711 21.8285 142.888 21.827 143.065 21.8195C144.987 21.8658 146.86 21.2038 148.331 19.9603C148.77 19.5643 149.019 19.0008 149.016 18.409C149.016 17.2642 148.093 16.3347 146.951 16.3332C146.504 16.3332 146.07 16.4782 145.711 16.7472C144.966 17.3181 144.052 17.6244 143.116 17.6169C141.852 17.7171 140.677 16.9519 140.254 15.7518H147.639C148.913 15.7817 149.97 14.7669 150 13.4876C150 13.4353 150 13.383 149.998 13.3307C150.065 9.33144 146.891 6.03457 142.907 5.96582C142.825 5.96582 142.744 5.96582 142.663 5.96582C138.498 5.97329 135.126 9.3688 135.133 13.5504C135.133 13.664 135.136 13.7776 135.142 13.8912" fill="white"/>
</mask>
<g mask="url(#mask9_126_1142)">
<path d="M135.525 3.59632L132.636 21.4048L149.616 24.1809L152.506 6.37242L135.525 3.59632Z" fill="url(#paint9_radial_126_1142)"/>
</g>
<mask id="mask10_126_1142" style="mask-type:luminance" maskUnits="userSpaceOnUse" x="2" y="5" width="19" height="16">
<path d="M7.04353 5.97929L6.5969 6.01964C6.32147 6.06448 6.04903 6.12875 5.78402 6.21244C4.74038 6.56963 3.85903 7.28995 3.29925 8.24344C3.07891 8.63201 2.91368 9.05048 2.80499 9.48388C2.60996 10.3417 2.65909 11.2384 2.94791 12.0709C3.48834 13.6296 4.82676 14.7729 6.44656 15.0584C7.31006 15.2093 8.19882 15.1092 9.00724 14.7699C9.84989 14.3455 10.5988 13.7537 11.2092 13.0333L13.5302 10.7109L14.3758 9.862C14.5679 9.62736 14.8046 9.43156 15.0696 9.2851C15.4284 9.14313 15.8259 9.14017 16.1862 9.27766C16.341 9.35089 16.4839 9.44802 16.609 9.56609C16.7236 9.68116 16.816 9.81715 16.88 9.9666C17.4115 11.0292 16.3589 11.763 15.8661 12.2562C14.5456 13.5818 13.228 14.9074 11.9104 16.236L10.6419 17.5019C10.3933 17.7171 10.167 17.9547 9.96455 18.2147C9.4807 18.953 9.68612 19.9454 10.4216 20.4311C10.8116 20.6881 11.294 20.7614 11.7422 20.6299C12.1947 20.4371 12.5893 20.1307 12.8915 19.7407L14.5977 18.0264L17.9073 14.7042C18.6695 14.0824 19.3067 13.3188 19.7816 12.455C19.9245 12.1247 20.0332 11.7809 20.1092 11.4297C20.4322 9.78129 19.8292 8.08653 18.5385 7.01796C18.1127 6.68469 17.6393 6.41866 17.1346 6.22587C16.0924 5.89259 14.9699 5.918 13.9441 6.2976C13.0895 6.70859 12.3303 7.29443 11.7154 8.01777L9.70554 10.0189L8.55173 11.1802C8.34032 11.4417 8.07976 11.6584 7.78647 11.8213C7.46787 11.9483 7.11649 11.9617 6.78896 11.8601C6.39592 11.7181 6.08327 11.4118 5.93588 11.0202C5.69917 10.3372 6.0163 9.58699 6.66988 9.28361C7.40237 8.96229 7.80432 9.34938 8.32987 9.55562C8.46981 9.59896 8.61425 9.62886 8.76015 9.64381C9.28122 9.67967 9.7844 9.454 10.1075 9.04301C10.5214 8.48108 10.5408 7.71889 10.1552 7.13753C9.3661 6.32601 8.26287 5.90158 7.13586 5.97929H7.04353Z" fill="white"/>
</mask>
<g mask="url(#mask10_126_1142)">
<path d="M2.97943 2.95211L0.104858 20.6509L20.0003 23.9071L22.8749 6.2083L2.97943 2.95211Z" fill="url(#paint10_radial_126_1142)"/>
</g>
<mask id="mask11_126_1142" style="mask-type:luminance" maskUnits="userSpaceOnUse" x="0" y="1" width="24" height="25">
<path d="M6.54773 21.3427C6.18744 21.2934 5.83164 21.2202 5.48028 21.123C4.44706 20.8062 3.533 20.1829 2.85709 19.3371C2.29135 18.6197 1.89974 17.7813 1.70917 16.8876C1.60793 16.1941 1.57672 15.4917 1.61394 14.7923V9.48384C1.5931 9.10722 1.6065 8.7306 1.65116 8.35698C1.76133 7.62019 2.0055 6.9103 2.37026 6.26169C3.04617 5.14231 4.08385 4.28746 5.31061 3.8406C5.6307 3.73151 5.9597 3.64932 6.29468 3.59552L6.84847 3.54021H13.6552C14.8969 3.44755 16.146 3.51182 17.3728 3.73151C18.8214 4.14548 20.0451 5.12287 20.7731 6.44551C21.0947 7.06273 21.3061 7.73077 21.3969 8.42123C21.4416 8.83222 21.452 9.2462 21.4282 9.65868V14.9597C21.4595 15.6038 21.4282 16.2494 21.3299 16.8876C20.9145 19.1114 19.1817 20.851 16.9663 21.268C16.4602 21.3532 15.948 21.3845 15.4358 21.3636H13.8622L11.3834 23.8564L8.88966 21.3636H8.24944C7.93084 21.3636 7.56908 21.386 7.22219 21.386C6.99739 21.389 6.77109 21.3741 6.54926 21.3412M13.6865 1.93811H7.10159L6.31853 1.98594C5.80787 2.0517 5.30461 2.16529 4.81629 2.32669C2.83471 3.02164 1.25365 4.55197 0.491388 6.51724C0.290402 7.08365 0.148987 7.66803 0.0656149 8.26284C0.009041 8.73361 -0.0088768 9.20886 0.0119662 9.68411V14.882C-0.0267423 15.7114 0.0283604 16.5409 0.178728 17.3583C0.798064 20.2382 3.12355 22.4366 6.0252 22.882C6.7562 22.9821 7.49461 23.012 8.23156 22.9702L10.2236 24.9624C10.4886 25.2284 10.7595 25.6379 11.1556 25.756C11.23 25.7799 11.3089 25.7918 11.3878 25.7918C11.7139 25.7455 12.0072 25.5662 12.1963 25.2957L14.5127 22.9702C15.3941 23.021 16.28 22.9851 17.1539 22.8611C20.0317 22.3545 22.3051 20.1262 22.8783 17.2507C23.0093 16.4826 23.0569 15.7039 23.0197 14.9253V9.58994C23.042 9.10572 23.0197 8.61852 22.9557 8.13879C22.8292 7.40499 22.6163 6.68762 22.323 6.00464C22.1309 5.60112 21.8971 5.21855 21.6277 4.86285C20.6287 3.47745 19.1637 2.50452 17.5022 2.12343C16.7668 1.96949 16.015 1.90373 15.2646 1.92764C14.7361 1.92764 14.1986 1.9411 13.6835 1.9411" fill="white"/>
</mask>
<g mask="url(#mask11_126_1142)">
<path d="M0.520903 -1.80444L-3.85193 25.1191L22.3796 29.4123L26.7524 2.48874L0.520903 -1.80444Z" fill="url(#paint11_radial_126_1142)"/>
</g>
<mask id="mask12_126_1142" style="mask-type:luminance" maskUnits="userSpaceOnUse" x="28" y="2" width="14" height="20">
<path d="M29.0091 7.32875C29.0091 10.1728 30.7927 11.6732 35.1995 12.5684C39.3696 13.4113 40.3939 14.5442 40.3939 16.4915C40.3939 18.6496 38.5047 20.2039 35.7504 20.2039C33.2716 20.2487 30.8851 19.2549 29.1655 17.46L28.2737 18.4867C30.2553 20.4101 32.9143 21.4697 35.67 21.4353C39.2103 21.4353 41.7562 19.3819 41.7562 16.4063C41.7562 13.6624 39.9726 12.141 35.7221 11.2712C31.3674 10.376 30.3714 9.1864 30.3714 7.24206C30.3714 5.29772 32.155 3.71353 34.8542 3.71353C36.8804 3.67766 38.8426 4.42345 40.3374 5.79839L41.2038 4.71787C39.4605 3.20244 37.2124 2.40289 34.9077 2.47911C31.4984 2.47911 29.0047 4.58634 29.0047 7.32427" fill="white"/>
</mask>
<g mask="url(#mask12_126_1142)">
<path d="M28.6218 0.337593L25.277 20.9546L41.4084 23.5918L44.7532 2.97484L28.6218 0.337593Z" fill="url(#paint12_linear_126_1142)"/>
</g>
<mask id="mask13_126_1142" style="mask-type:luminance" maskUnits="userSpaceOnUse" x="44" y="7" width="12" height="15">
<path d="M54.5568 7.75348V15.5204C54.658 18.064 52.6854 20.2086 50.1515 20.3088C50.0726 20.3118 49.9922 20.3133 49.9133 20.3118C47.2126 20.3118 45.6643 18.4945 45.6643 15.7296V7.75198H44.3779V15.9673C44.3779 19.179 46.3461 21.4969 49.7286 21.4969C51.743 21.5687 53.6204 20.4732 54.5553 18.6798V21.1801H55.8416V7.75049H54.5553L54.5568 7.75348Z" fill="white"/>
</mask>
<g mask="url(#mask13_126_1142)">
<path d="M44.6755 5.9268L42.207 21.1421L55.545 23.3227L58.0135 8.10737L44.6755 5.9268Z" fill="url(#paint13_linear_126_1142)"/>
</g>
<mask id="mask14_126_1142" style="mask-type:luminance" maskUnits="userSpaceOnUse" x="59" y="7" width="14" height="19">
<path d="M60.6176 14.4935C60.5179 11.3805 62.952 8.7771 66.0517 8.67846C66.0591 8.67846 66.0666 8.67846 66.0725 8.67846C68.8789 8.67846 71.3205 10.9426 71.3205 14.4711C71.3205 17.9997 68.9861 20.2638 66.0725 20.2638C62.9878 20.1936 60.5447 17.626 60.6162 14.5294C60.6162 14.519 60.6162 14.5085 60.6162 14.4965M60.695 10.7573V7.75184H59.4087V25.3944H60.695V18.2851C61.8369 20.2578 63.9316 21.4789 66.2035 21.4968C70.0714 21.2098 72.9746 17.8293 72.6887 13.9466C72.4326 10.4629 69.6724 7.69358 66.2035 7.43652C63.9108 7.48285 61.8146 8.7457 60.695 10.7543" fill="white"/>
</mask>
<g mask="url(#mask14_126_1142)">
<path d="M59.7536 5.31813L56.5717 24.9307L72.3651 27.5127L75.547 7.90012L59.7536 5.31813Z" fill="url(#paint14_linear_126_1142)"/>
</g>
<mask id="mask15_126_1142" style="mask-type:luminance" maskUnits="userSpaceOnUse" x="74" y="7" width="13" height="15">
<path d="M80.7877 8.62168C83.8561 8.62168 85.4044 11.1235 85.5876 13.836H75.8583C76.095 10.8605 78.1406 8.62168 80.7892 8.62168M74.4946 14.4383C74.2906 18.1267 77.1044 21.2816 80.7787 21.4849C80.871 21.4893 80.9619 21.4938 81.0542 21.4938C83.1846 21.5387 85.2198 20.6091 86.5895 18.9696L85.6977 18.179C84.5498 19.5226 82.8705 20.2937 81.1063 20.2848C78.2121 20.2534 75.8762 17.8981 75.8583 14.9913H86.9542C86.9765 14.8164 86.9855 14.64 86.981 14.4652C86.981 10.4898 84.593 7.43506 80.8428 7.43506C77.0925 7.43506 74.4961 10.5421 74.4961 14.4383" fill="white"/>
</mask>
<g mask="url(#mask15_126_1142)">
<path d="M74.8161 5.44936L72.2712 21.1353L86.657 23.4871L89.2018 7.80121L74.8161 5.44936Z" fill="url(#paint15_linear_126_1142)"/>
</g>
<mask id="mask16_126_1142" style="mask-type:luminance" maskUnits="userSpaceOnUse" x="89" y="7" width="8" height="15">
<path d="M90.7045 11.5703V7.75185H89.4182V21.1814H90.7045V15.6772C90.7045 11.3058 93.4067 8.96241 96.4989 8.96241H96.6299V7.53516H96.4021C93.8711 7.62034 91.6335 9.20451 90.7015 11.5688" fill="white"/>
</mask>
<g mask="url(#mask16_126_1142)">
<path d="M89.6043 6.38725L87.2615 20.8281L96.4454 22.3296L98.7883 7.88868L89.6043 6.38725Z" fill="url(#paint16_linear_126_1142)"/>
</g>
<mask id="mask17_126_1142" style="mask-type:luminance" maskUnits="userSpaceOnUse" x="112" y="1" width="6" height="5">
<path d="M112.545 3.65857V3.71239C112.752 5.1232 114.058 6.09759 115.463 5.89135C116.586 5.72546 117.468 4.84074 117.634 3.71239V3.65857C117.412 2.24777 116.093 1.28529 114.687 1.50946C113.586 1.68432 112.721 2.55264 112.547 3.65857" fill="white"/>
</mask>
<g mask="url(#mask17_126_1142)">
<path d="M112.677 0.667558L111.843 5.80371L117.502 6.72884L118.335 1.59268L112.677 0.667558Z" fill="url(#paint17_linear_126_1142)"/>
</g>
<mask id="mask18_126_1142" style="mask-type:luminance" maskUnits="userSpaceOnUse" x="98" y="1" width="13" height="21">
<path d="M98.7112 4.21612V18.9638C98.6963 20.3971 99.8412 21.5717 101.269 21.5867C101.287 21.5867 101.306 21.5867 101.324 21.5867H108.516C109.856 21.5867 110.943 20.4957 110.943 19.1506C110.943 17.8056 109.856 16.7146 108.516 16.7146H103.938V4.21612C103.938 2.76795 102.768 1.59326 101.326 1.59326C99.8829 1.59326 98.7127 2.76795 98.7127 4.21612" fill="white"/>
</mask>
<g mask="url(#mask18_126_1142)">
<path d="M98.9547 -0.410534L95.4747 21.0156L110.551 23.483L114.031 2.05686L98.9547 -0.410534Z" fill="url(#paint18_linear_126_1142)"/>
</g>
<mask id="mask19_126_1142" style="mask-type:luminance" maskUnits="userSpaceOnUse" x="112" y="6" width="6" height="19">
<path d="M112.785 8.94759L112.597 21.9826C112.597 23.3651 113.714 24.4844 115.089 24.4844C116.465 24.4844 117.582 23.3636 117.582 21.9826L117.769 8.94759C117.769 7.56518 116.653 6.4458 115.277 6.4458C113.901 6.4458 112.785 7.56667 112.785 8.94759Z" fill="white"/>
</mask>
<g mask="url(#mask19_126_1142)">
<path d="M112.657 5.56543L109.669 23.9604L117.558 25.2516L120.546 6.85661L112.657 5.56543Z" fill="url(#paint19_linear_126_1142)"/>
</g>
<mask id="mask20_126_1142" style="mask-type:luminance" maskUnits="userSpaceOnUse" x="120" y="0" width="17" height="25">
<path d="M122.757 0.791992C121.329 0.793487 120.172 1.95469 120.171 3.38792V19.1504C120.171 20.5851 121.329 21.7464 122.757 21.7464C124.184 21.7464 125.343 20.5836 125.343 19.1504V17.0775L126.327 16.1913L131.744 23.2155C132.219 23.9762 133.065 24.4215 133.958 24.3856C135.286 24.4125 136.385 23.353 136.41 22.0199C136.41 22.0034 136.41 21.987 136.41 21.9705C136.395 21.3653 136.177 20.7824 135.789 20.3191L130.053 12.9497L132.283 11.101L132.298 11.0876C132.961 10.557 133.364 9.76495 133.404 8.91458C133.424 7.61884 132.392 6.55178 131.101 6.53235C131.086 6.53235 131.072 6.53235 131.057 6.53235C130.217 6.56673 129.431 6.95083 128.886 7.59496L125.343 10.9381V3.38942C125.341 1.9547 124.181 0.791994 122.752 0.793488L122.757 0.791992Z" fill="white"/>
</mask>
<g mask="url(#mask20_126_1142)">
<path d="M120.587 -1.79344L116.438 23.7798L135.986 26.9756L140.135 1.40234L120.587 -1.79344Z" fill="url(#paint20_linear_126_1142)"/>
</g>
<mask id="mask21_126_1142" style="mask-type:luminance" maskUnits="userSpaceOnUse" x="135" y="5" width="15" height="17">
<path d="M142.663 10.1654C143.884 10.1624 144.922 11.0576 145.105 12.2681H140.165C140.382 11.0531 141.433 10.1684 142.663 10.1654ZM135.14 13.8897V13.9435C135.014 18.1684 138.325 21.6954 142.534 21.8225C142.711 21.8285 142.888 21.827 143.065 21.8195C144.987 21.8658 146.86 21.2038 148.331 19.9603C148.77 19.5643 149.019 19.0008 149.016 18.409C149.016 17.2642 148.093 16.3347 146.951 16.3332C146.504 16.3332 146.07 16.4782 145.711 16.7472C144.966 17.3181 144.052 17.6244 143.116 17.6169C141.852 17.7171 140.677 16.9519 140.254 15.7518H147.639C148.913 15.7817 149.97 14.7669 150 13.4876C150 13.4353 150 13.383 149.998 13.3307C150.065 9.33144 146.891 6.03457 142.907 5.96582C142.825 5.96582 142.744 5.96582 142.663 5.96582C138.498 5.97329 135.126 9.3688 135.133 13.5504C135.133 13.664 135.136 13.7776 135.142 13.8912" fill="white"/>
</mask>
<g mask="url(#mask21_126_1142)">
<path d="M135.525 3.59632L132.636 21.4048L149.616 24.1809L152.506 6.37242L135.525 3.59632Z" fill="url(#paint21_linear_126_1142)"/>
</g>
<mask id="mask22_126_1142" style="mask-type:luminance" maskUnits="userSpaceOnUse" x="2" y="5" width="19" height="16">
<path d="M7.04353 5.97929L6.5969 6.01964C6.32147 6.06448 6.04903 6.12875 5.78402 6.21244C4.74038 6.56963 3.85903 7.28995 3.29925 8.24344C3.07891 8.63201 2.91368 9.05048 2.80499 9.48388C2.60996 10.3417 2.65909 11.2384 2.94791 12.0709C3.48834 13.6296 4.82676 14.7729 6.44656 15.0584C7.31006 15.2093 8.19882 15.1092 9.00724 14.7699C9.84989 14.3455 10.5988 13.7537 11.2092 13.0333L13.5302 10.7109L14.3758 9.862C14.5679 9.62736 14.8046 9.43156 15.0696 9.2851C15.4284 9.14313 15.8259 9.14017 16.1862 9.27766C16.341 9.35089 16.4839 9.44802 16.609 9.56609C16.7236 9.68116 16.816 9.81715 16.88 9.9666C17.4115 11.0292 16.3589 11.763 15.8661 12.2562C14.5456 13.5818 13.228 14.9074 11.9104 16.236L10.6419 17.5019C10.3933 17.7171 10.167 17.9547 9.96455 18.2147C9.4807 18.953 9.68612 19.9454 10.4216 20.4311C10.8116 20.6881 11.294 20.7614 11.7422 20.6299C12.1947 20.4371 12.5893 20.1307 12.8915 19.7407L14.5977 18.0264L17.9073 14.7042C18.6695 14.0824 19.3067 13.3188 19.7816 12.455C19.9245 12.1247 20.0332 11.7809 20.1092 11.4297C20.4322 9.78129 19.8292 8.08653 18.5385 7.01796C18.1127 6.68469 17.6393 6.41866 17.1346 6.22587C16.0924 5.89259 14.9699 5.918 13.9441 6.2976C13.0895 6.70859 12.3303 7.29443 11.7154 8.01777L9.70554 10.0189L8.55173 11.1802C8.34032 11.4417 8.07976 11.6584 7.78647 11.8213C7.46787 11.9483 7.11649 11.9617 6.78896 11.8601C6.39592 11.7181 6.08327 11.4118 5.93588 11.0202C5.69917 10.3372 6.0163 9.58699 6.66988 9.28361C7.40237 8.96229 7.80432 9.34938 8.32987 9.55562C8.46981 9.59896 8.61425 9.62886 8.76015 9.64381C9.28122 9.67967 9.7844 9.454 10.1075 9.04301C10.5214 8.48108 10.5408 7.71889 10.1552 7.13753C9.3661 6.32601 8.26287 5.90158 7.13586 5.97929H7.04353Z" fill="white"/>
</mask>
<g mask="url(#mask22_126_1142)">
<path d="M2.97943 2.95211L0.104858 20.6509L20.0003 23.9071L22.8749 6.2083L2.97943 2.95211Z" fill="url(#paint22_linear_126_1142)"/>
</g>
<mask id="mask23_126_1142" style="mask-type:luminance" maskUnits="userSpaceOnUse" x="0" y="1" width="24" height="25">
<path d="M6.54773 21.3427C6.18744 21.2934 5.83164 21.2202 5.48028 21.123C4.44706 20.8062 3.533 20.1829 2.85709 19.3371C2.29135 18.6197 1.89974 17.7813 1.70917 16.8876C1.60793 16.1941 1.57672 15.4917 1.61394 14.7923V9.48384C1.5931 9.10722 1.6065 8.7306 1.65116 8.35698C1.76133 7.62019 2.0055 6.9103 2.37026 6.26169C3.04617 5.14231 4.08385 4.28746 5.31061 3.8406C5.6307 3.73151 5.9597 3.64932 6.29468 3.59552L6.84847 3.54021H13.6552C14.8969 3.44755 16.146 3.51182 17.3728 3.73151C18.8214 4.14548 20.0451 5.12287 20.7731 6.44551C21.0947 7.06273 21.3061 7.73077 21.3969 8.42123C21.4416 8.83222 21.452 9.2462 21.4282 9.65868V14.9597C21.4595 15.6038 21.4282 16.2494 21.3299 16.8876C20.9145 19.1114 19.1817 20.851 16.9663 21.268C16.4602 21.3532 15.948 21.3845 15.4358 21.3636H13.8622L11.3834 23.8564L8.88966 21.3636H8.24944C7.93084 21.3636 7.56908 21.386 7.22219 21.386C6.99739 21.389 6.77109 21.3741 6.54926 21.3412M13.6865 1.93811H7.10159L6.31853 1.98594C5.80787 2.0517 5.30461 2.16529 4.81629 2.32669C2.83471 3.02164 1.25365 4.55197 0.491388 6.51724C0.290402 7.08365 0.148987 7.66803 0.0656149 8.26284C0.009041 8.73361 -0.0088768 9.20886 0.0119662 9.68411V14.882C-0.0267423 15.7114 0.0283604 16.5409 0.178728 17.3583C0.798064 20.2382 3.12355 22.4366 6.0252 22.882C6.7562 22.9821 7.49461 23.012 8.23156 22.9702L10.2236 24.9624C10.4886 25.2284 10.7595 25.6379 11.1556 25.756C11.23 25.7799 11.3089 25.7918 11.3878 25.7918C11.7139 25.7455 12.0072 25.5662 12.1963 25.2957L14.5127 22.9702C15.3941 23.021 16.28 22.9851 17.1539 22.8611C20.0317 22.3545 22.3051 20.1262 22.8783 17.2507C23.0093 16.4826 23.0569 15.7039 23.0197 14.9253V9.58994C23.042 9.10572 23.0197 8.61852 22.9557 8.13879C22.8292 7.40499 22.6163 6.68762 22.323 6.00464C22.1309 5.60112 21.8971 5.21855 21.6277 4.86285C20.6287 3.47745 19.1637 2.50452 17.5022 2.12343C16.7668 1.96949 16.015 1.90373 15.2646 1.92764C14.7361 1.92764 14.1986 1.9411 13.6835 1.9411" fill="white"/>
</mask>
<g mask="url(#mask23_126_1142)">
<path d="M0.520903 -1.80444L-3.85193 25.1191L22.3796 29.4123L26.7524 2.48874L0.520903 -1.80444Z" fill="url(#paint23_linear_126_1142)"/>
</g>
<defs>
<radialGradient id="paint0_radial_126_1142" cx="0" cy="0" r="1" gradientTransform="matrix(104.963 17.1599 -17.0943 105.366 74.1514 71.9406)" gradientUnits="userSpaceOnUse">
<stop stop-color="#CF5CFF"/>
<stop offset="1" stop-color="#796AFE"/>
</radialGradient>
<radialGradient id="paint1_radial_126_1142" cx="0" cy="0" r="1" gradientTransform="matrix(104.923 17.1533 -17.0877 105.325 98.0637 100.354)" gradientUnits="userSpaceOnUse">
<stop stop-color="#CF5CFF"/>
<stop offset="1" stop-color="#796AFE"/>
</radialGradient>
<radialGradient id="paint2_radial_126_1142" cx="0" cy="0" r="1" gradientTransform="matrix(104.981 17.1628 -17.0972 105.384 119.802 138.195)" gradientUnits="userSpaceOnUse">
<stop stop-color="#CF5CFF"/>
<stop offset="1" stop-color="#796AFE"/>
</radialGradient>
<radialGradient id="paint3_radial_126_1142" cx="0" cy="0" r="1" gradientTransform="matrix(104.93 17.1545 -17.089 105.333 144.985 162.748)" gradientUnits="userSpaceOnUse">
<stop stop-color="#CF5CFF"/>
<stop offset="1" stop-color="#796AFE"/>
</radialGradient>
<radialGradient id="paint4_radial_126_1142" cx="0" cy="0" r="1" gradientTransform="matrix(104.941 17.1562 -17.0906 105.343 136.571 188.818)" gradientUnits="userSpaceOnUse">
<stop stop-color="#CF5CFF"/>
<stop offset="1" stop-color="#796AFE"/>
</radialGradient>
<radialGradient id="paint5_radial_126_1142" cx="0" cy="0" r="1" gradientTransform="matrix(104.871 17.1449 -17.0793 105.273 210.576 236.573)" gradientUnits="userSpaceOnUse">
<stop stop-color="#CF5CFF"/>
<stop offset="1" stop-color="#796AFE"/>
</radialGradient>
<radialGradient id="paint6_radial_126_1142" cx="0" cy="0" r="1" gradientTransform="matrix(104.936 17.1743 -17.1086 105.338 156.546 213.4)" gradientUnits="userSpaceOnUse">
<stop stop-color="#CF5CFF"/>
<stop offset="1" stop-color="#796AFE"/>
</radialGradient>
<radialGradient id="paint7_radial_126_1142" cx="0" cy="0" r="1" gradientTransform="matrix(104.921 17.1718 -17.1061 105.323 139.012 224.745)" gradientUnits="userSpaceOnUse">
<stop stop-color="#CF5CFF"/>
<stop offset="1" stop-color="#796AFE"/>
</radialGradient>
<radialGradient id="paint8_radial_126_1142" cx="0" cy="0" r="1" gradientTransform="matrix(104.96 17.1594 -17.0938 105.363 200.047 266.892)" gradientUnits="userSpaceOnUse">
<stop stop-color="#CF5CFF"/>
<stop offset="1" stop-color="#796AFE"/>
</radialGradient>
<radialGradient id="paint9_radial_126_1142" cx="0" cy="0" r="1" gradientTransform="matrix(104.982 17.1629 -17.0973 105.384 243.475 298.829)" gradientUnits="userSpaceOnUse">
<stop stop-color="#CF5CFF"/>
<stop offset="1" stop-color="#796AFE"/>
</radialGradient>
<radialGradient id="paint10_radial_126_1142" cx="0" cy="0" r="1" gradientTransform="matrix(104.968 17.1796 -17.1139 105.37 52.6796 24.742)" gradientUnits="userSpaceOnUse">
<stop stop-color="#CF5CFF"/>
<stop offset="1" stop-color="#796AFE"/>
</radialGradient>
<radialGradient id="paint11_radial_126_1142" cx="0" cy="0" r="1" gradientTransform="matrix(104.948 17.1763 -17.1106 105.35 45.9361 20.7442)" gradientUnits="userSpaceOnUse">
<stop stop-color="#CF5CFF"/>
<stop offset="1" stop-color="#796AFE"/>
</radialGradient>
<linearGradient id="paint12_linear_126_1142" x1="-3.78466" y1="13.8386" x2="152.504" y2="13.8386" gradientUnits="userSpaceOnUse">
<stop stop-color="#00BFFF"/>
<stop offset="0.21" stop-color="#1D9BE6"/>
<stop offset="0.57" stop-color="#4F60BC"/>
<stop offset="0.85" stop-color="#6E3BA2"/>
<stop offset="0.99" stop-color="#7A2D99"/>
</linearGradient>
<linearGradient id="paint13_linear_126_1142" x1="-3.78342" y1="13.8402" x2="152.505" y2="13.8402" gradientUnits="userSpaceOnUse">
<stop stop-color="#00BFFF"/>
<stop offset="0.21" stop-color="#1D9BE6"/>
<stop offset="0.57" stop-color="#4F60BC"/>
<stop offset="0.85" stop-color="#6E3BA2"/>
<stop offset="0.99" stop-color="#7A2D99"/>
</linearGradient>
<linearGradient id="paint14_linear_126_1142" x1="-3.78546" y1="13.8385" x2="152.503" y2="13.8385" gradientUnits="userSpaceOnUse">
<stop stop-color="#00BFFF"/>
<stop offset="0.21" stop-color="#1D9BE6"/>
<stop offset="0.57" stop-color="#4F60BC"/>
<stop offset="0.85" stop-color="#6E3BA2"/>
<stop offset="0.99" stop-color="#7A2D99"/>
</linearGradient>
<linearGradient id="paint15_linear_126_1142" x1="-3.78426" y1="13.8393" x2="152.504" y2="13.8393" gradientUnits="userSpaceOnUse">
<stop stop-color="#00BFFF"/>
<stop offset="0.21" stop-color="#1D9BE6"/>
<stop offset="0.57" stop-color="#4F60BC"/>
<stop offset="0.85" stop-color="#6E3BA2"/>
<stop offset="0.99" stop-color="#7A2D99"/>
</linearGradient>
<linearGradient id="paint16_linear_126_1142" x1="-3.78439" y1="13.8388" x2="152.504" y2="13.8388" gradientUnits="userSpaceOnUse">
<stop stop-color="#00BFFF"/>
<stop offset="0.21" stop-color="#1D9BE6"/>
<stop offset="0.57" stop-color="#4F60BC"/>
<stop offset="0.85" stop-color="#6E3BA2"/>
<stop offset="0.99" stop-color="#7A2D99"/>
</linearGradient>
<linearGradient id="paint17_linear_126_1142" x1="-3.78473" y1="13.8379" x2="152.504" y2="13.8377" gradientUnits="userSpaceOnUse">
<stop stop-color="#00BFFF"/>
<stop offset="0.21" stop-color="#1D9BE6"/>
<stop offset="0.57" stop-color="#4F60BC"/>
<stop offset="0.85" stop-color="#6E3BA2"/>
<stop offset="0.99" stop-color="#7A2D99"/>
</linearGradient>
<linearGradient id="paint18_linear_126_1142" x1="-3.89186" y1="13.8664" x2="152.396" y2="13.8664" gradientUnits="userSpaceOnUse">
<stop stop-color="#00BFFF"/>
<stop offset="0.21" stop-color="#1D9BE6"/>
<stop offset="0.57" stop-color="#4F60BC"/>
<stop offset="0.85" stop-color="#6E3BA2"/>
<stop offset="0.99" stop-color="#7A2D99"/>
</linearGradient>
<linearGradient id="paint19_linear_126_1142" x1="-3.89402" y1="13.867" x2="152.395" y2="13.8669" gradientUnits="userSpaceOnUse">
<stop stop-color="#00BFFF"/>
<stop offset="0.21" stop-color="#1D9BE6"/>
<stop offset="0.57" stop-color="#4F60BC"/>
<stop offset="0.85" stop-color="#6E3BA2"/>
<stop offset="0.99" stop-color="#7A2D99"/>
</linearGradient>
<linearGradient id="paint20_linear_126_1142" x1="-3.78404" y1="13.8391" x2="152.505" y2="13.8391" gradientUnits="userSpaceOnUse">
<stop stop-color="#00BFFF"/>
<stop offset="0.21" stop-color="#1D9BE6"/>
<stop offset="0.57" stop-color="#4F60BC"/>
<stop offset="0.85" stop-color="#6E3BA2"/>
<stop offset="0.99" stop-color="#7A2D99"/>
</linearGradient>
<linearGradient id="paint21_linear_126_1142" x1="-3.78463" y1="13.84" x2="152.504" y2="13.84" gradientUnits="userSpaceOnUse">
<stop stop-color="#00BFFF"/>
<stop offset="0.21" stop-color="#1D9BE6"/>
<stop offset="0.57" stop-color="#4F60BC"/>
<stop offset="0.85" stop-color="#6E3BA2"/>
<stop offset="0.99" stop-color="#7A2D99"/>
</linearGradient>
<linearGradient id="paint22_linear_126_1142" x1="-3.88526" y1="13.8601" x2="152.403" y2="13.8601" gradientUnits="userSpaceOnUse">
<stop stop-color="#00BFFF"/>
<stop offset="0.21" stop-color="#1D9BE6"/>
<stop offset="0.57" stop-color="#4F60BC"/>
<stop offset="0.85" stop-color="#6E3BA2"/>
<stop offset="0.99" stop-color="#7A2D99"/>
</linearGradient>
<linearGradient id="paint23_linear_126_1142" x1="-3.88513" y1="13.8594" x2="152.403" y2="13.8594" gradientUnits="userSpaceOnUse">
<stop stop-color="#00BFFF"/>
<stop offset="0.21" stop-color="#1D9BE6"/>
<stop offset="0.57" stop-color="#4F60BC"/>
<stop offset="0.85" stop-color="#6E3BA2"/>
<stop offset="0.99" stop-color="#7A2D99"/>
</linearGradient>
</defs>
</svg>
