<svg width="68" height="86" viewBox="0 0 68 86" fill="none" xmlns="http://www.w3.org/2000/svg">
<path d="M45.6342 21.6372H42.7337V32.3992H45.892C48.6635 32.3992 50.7261 30.5947 50.7261 26.986C50.7261 23.2483 48.5991 21.6372 45.6342 21.6372ZM62.2636 0.5H0V62.7517C0 65.9094 2.57822 68.4871 5.73652 68.4871H33.9678V85.5L50.9839 68.4871H68V6.29984C68 3.07772 65.4218 0.5 62.2635 0.5L62.2636 0.5ZM30.3583 49.8632H7.21899V47.2854L10.9574 46.2543V22.1528L7.21899 21.1216V18.5439H23.0749V21.1216L17.8541 22.1528V46.7699H25.2664L27.2 39.2945H30.3583V49.8632ZM60.7811 49.8632C59.8787 50.1854 58.4608 50.3787 57.365 50.3787C53.6266 50.3787 51.8219 49.0899 49.9527 42.2589C48.4058 36.7813 47.439 35.5569 43.8939 35.5569H42.7982V46.1899L46.5366 47.221V49.7988H32.0987V47.221L35.8371 46.1899V22.1528L32.0987 21.1216V18.5439H46.1498C54.1423 18.5439 57.6873 21.5083 57.6873 26.6637C57.6873 30.337 55.4314 33.0435 51.1129 34.2035C53.6266 35.0412 55.1736 36.9101 56.1404 40.1967C57.8807 46.3187 58.9764 47.1564 60.7168 47.2209L60.7812 49.8631L60.7811 49.8632Z" fill="#C51A1B"/>
</svg>
