<?xml version="1.0" encoding="UTF-8"?>
<svg id="Capa_1" data-name="Capa 1" xmlns="http://www.w3.org/2000/svg" viewBox="0 0 34.93 34.94">
  <path d="M16.32,0c-.08,0-.31.03-.53.05C10.83.5,6.18,3.18,3.24,7.3,1.6,9.58.55,12.18.16,14.93c-.14.96-.16,1.24-.16,2.54s.02,1.58.16,2.54c.95,6.56,5.62,12.07,11.95,14.11,1.13.37,2.33.61,3.69.76.53.06,2.82.06,3.35,0,2.35-.26,4.33-.84,6.29-1.84.3-.15.36-.19.32-.23-.03-.02-1.31-1.74-2.84-3.81l-2.79-3.77-3.5-5.18c-1.93-2.85-3.51-5.18-3.52-5.18-.01,0-.03,2.3-.03,5.11-.01,4.92-.01,5.12-.08,5.24-.09.17-.16.24-.3.31-.11.05-.2.06-.72.06h-.59l-.16-.1c-.1-.06-.18-.15-.23-.25l-.07-.15v-6.85s.02-6.85.02-6.85l.11-.13c.05-.07.17-.16.25-.21.14-.07.19-.08.79-.08.7,0,.81.03.99.23.05.05,1.95,2.91,4.21,6.35s5.37,8.13,6.89,10.44l2.77,4.19.14-.09c1.24-.81,2.55-1.95,3.59-3.15,2.21-2.54,3.63-5.63,4.11-8.93.14-.96.16-1.24.16-2.54s-.02-1.58-.16-2.54c-.95-6.56-5.62-12.07-11.95-14.11-1.12-.36-2.31-.61-3.64-.76-.33-.03-2.59-.07-2.87-.04h0ZM23.47,10.58c.16.08.3.24.34.4.03.09.03,1.99.03,6.27v6.14s-1.09-1.66-1.09-1.66l-1.09-1.66v-4.46c0-2.89.01-4.51.03-4.59.05-.19.17-.34.34-.43.14-.07.19-.08.73-.08.51,0,.59,0,.71.07h0Z"/>
</svg>