<?xml version="1.0" encoding="UTF-8"?>
<svg id="Capa_1" data-name="Capa 1" xmlns="http://www.w3.org/2000/svg" viewBox="0 0 907.62 1023.44">
  <g id="_5151e0c8492e5103c096af88a51f17e3" data-name="5151e0c8492e5103c096af88a51f17e3">
    <path d="M907.62,295.15v432.84c0,28.09-15.11,54.24-39.4,68.38l-375.02,216.54c-11.99,6.96-25.6,10.53-39.49,10.53s-27.34-3.58-39.33-10.53l-125.22-74.08c-18.68-10.43-9.56-14.14-3.39-16.28,24.94-8.66,29.99-10.65,56.62-25.76,2.78-1.59,6.44-.97,9.31.69l96.2,57.12c3.49,1.96,8.41,1.96,11.62,0l375.05-216.48c3.49-1.99,5.73-5.97,5.73-10.12v-432.84c0-4.24-2.24-8.2-5.82-10.34L459.57,68.53c-3.46-2.02-8.07-2.02-11.55,0L73.2,284.87c-3.64,2.08-5.94,6.17-5.94,10.28v432.84c0,4.14,2.3,8.03,5.92,9.99l102.74,59.39c55.74,27.85,89.88-4.98,89.88-37.97v-427.32c0-6.04,4.85-10.81,10.89-10.81h47.56c5.95,0,10.87,4.76,10.87,10.81v427.33c0,74.4-40.53,117.07-111.06,117.07-21.66,0-38.75,0-86.4-23.46l-98.33-56.65c-24.3-14.01-39.33-40.29-39.33-68.38v-432.84c0-28.13,15.03-54.38,39.33-68.37L414.37,10.07c23.73-13.42,55.29-13.42,78.82,0l375.02,216.72c24.29,14.05,39.4,40.24,39.4,68.37ZM584.34,686.7c-111.92,0-136.54-28.14-144.79-83.79-.96-5.94-6.04-10.36-12.14-10.36h-54.69c-6.77,0-12.21,5.41-12.21,12.23,0,71.22,38.76,156.16,223.83,156.16,134,0,210.83-52.75,210.83-144.89s-61.74-115.68-191.69-132.89c-131.34-17.38-144.69-26.33-144.69-57.1,0-25.36,11.3-59.25,108.58-59.25,86.87,0,118.9,18.72,132.07,77.26,1.16,5.52,6.17,9.54,11.86,9.54h54.9c3.4,0,6.64-1.46,8.95-3.89,2.32-2.56,3.55-5.9,3.23-9.4-8.49-100.9-75.53-147.9-211-147.9-120.59,0-192.51,50.9-192.51,136.2,0,92.56,71.56,118.17,187.26,129.59,138.47,13.58,149.22,33.81,149.22,61.06,0,47.26-37.92,67.43-127.01,67.43Z"/>
  </g>
</svg>