<svg width="101" height="86" viewBox="0 0 101 86" fill="none" xmlns="http://www.w3.org/2000/svg">
<path d="M67.3 35.9924C66.492 37.1474 65.4732 38.2314 64.2436 39.2088C60.5549 42.1586 55.5663 43.7757 50.2088 43.7757C44.8514 43.7757 39.8628 42.1586 36.1741 39.2088C32.8366 36.5432 31.0098 33.1314 31.0098 29.5596C31.0098 25.9878 32.8542 22.5759 36.1741 19.9104C39.8804 16.9606 44.8514 15.3435 50.2088 15.3435C55.5663 15.3435 60.5549 16.9606 64.2436 19.9104C65.4732 20.8878 66.492 21.9717 67.3 23.109L71.8319 20.5146C67.7567 14.3128 59.6063 10.0835 50.2088 10.0835C36.7361 10.0835 25.8104 18.8087 25.8104 29.5596C25.8104 40.3105 36.7361 49.0356 50.2088 49.0356C59.6063 49.0356 67.7567 44.8063 71.8319 38.6046L67.3 36.0101V35.9924Z" fill="#D81E1E"/>
<path d="M17.2912 38.3025V53.105H4.88998V5.97868H15.359C22.7365 5.97868 29.6397 9.39054 33.8554 15.0947C35.1552 14.1529 36.5956 13.3355 38.1238 12.6247C32.9947 5.53443 24.4754 1.23406 15.359 1.23406H0.200012V57.8496H21.9811V50.9371C28.9019 56.6413 38.7737 59.7333 50.0683 58.1873C34.3121 58.0984 22.6662 49.8531 17.2912 38.3025Z" fill="#D81E1E"/>
<path d="M78.4364 1.23406V8.14664C71.4981 2.44243 61.6439 -0.649568 50.3493 0.896431C66.1055 0.985282 77.7514 9.23061 83.1264 20.7812V5.97868H95.5276V53.105H85.0586C77.6811 53.105 70.7779 49.6932 66.5622 43.9889C65.2624 44.9308 63.822 45.766 62.2938 46.459C67.4229 53.5493 75.9246 57.8496 85.041 57.8496H100.2V1.23406H78.4189H78.4364Z" fill="#D81E1E"/>
<path d="M2.97538 68.423H5.68046L14.5686 80.0268V68.423H17.4317V85.2157H14.9901L5.83855 73.2742V85.2157H2.97538V68.423Z" fill="#D81E1E"/>
<path d="M20.8043 78.9073C20.8043 75.2822 23.6499 72.279 27.4968 72.279C31.3436 72.279 34.1541 75.2289 34.1541 78.9073C34.1541 82.5857 31.3085 85.5 27.4441 85.5C23.5797 85.5 20.8043 82.5502 20.8043 78.9073ZM31.2909 78.9073C31.2909 76.6683 29.71 74.8379 27.4441 74.8379C25.1781 74.8379 23.6675 76.6683 23.6675 78.9073C23.6675 81.1463 25.2484 82.9944 27.4792 82.9944C29.71 82.9944 31.2733 81.1463 31.2733 78.9073H31.2909Z" fill="#D81E1E"/>
<path d="M37.7725 75.0512H36.1916V72.5634H37.7725V69.0804H40.6356V72.5634H44.0082V75.0512H40.6356V81.2707C40.6356 82.3903 41.1977 82.8523 42.1814 82.8523C42.8137 82.8523 43.3934 82.7101 43.9555 82.4258V84.807C43.2353 85.2157 42.4449 85.4467 41.3734 85.4467C39.2655 85.4467 37.7725 84.5049 37.7725 81.7327V75.0512Z" fill="#D81E1E"/>
<path d="M47.0646 67.8365H50.1385V70.5909H47.0646V67.8365ZM47.1875 72.5456H50.0507V85.2157H47.1875V72.5456Z" fill="#D81E1E"/>
<path d="M53.2301 78.9073C53.2301 75.3177 55.9878 72.279 59.7293 72.279C62.1006 72.279 63.5761 73.1675 64.7354 74.4648L62.9613 76.4017C62.083 75.4599 61.1521 74.8202 59.7117 74.8202C57.6214 74.8202 56.1108 76.6505 56.1108 78.8895C56.1108 81.1286 57.6565 82.9766 59.8522 82.9766C61.2048 82.9766 62.206 82.3369 63.1018 81.3951L64.8408 83.1188C63.6112 84.5049 62.1533 85.5 59.7117 85.5C55.9878 85.5 53.2301 82.5502 53.2301 78.9073Z" fill="#D81E1E"/>
<path d="M67.6162 67.8365H70.7077V70.5909H67.6162V67.8365ZM67.7391 72.5456H70.6023V85.2157H67.7391V72.5456Z" fill="#D81E1E"/>
<path d="M82.1253 85.2156V83.6519C81.2646 84.6825 79.9647 85.4822 78.0676 85.4822C75.6963 85.4822 73.606 84.1139 73.606 81.5195C73.606 78.7118 75.7666 77.3613 78.6824 77.3613C80.1931 77.3613 81.1767 77.5745 82.1428 77.8943V77.6456C82.1428 75.8863 81.0538 74.9267 79.0513 74.9267C77.6461 74.9267 76.6097 75.2466 75.468 75.7264L74.6775 73.3985C76.0476 72.7766 77.4002 72.3501 79.4378 72.3501C83.1441 72.3501 84.9357 74.3226 84.9357 77.6989V85.2156H82.0901H82.1253ZM82.1955 79.9201C81.4578 79.6358 80.439 79.4226 79.3324 79.4226C77.5231 79.4226 76.4692 80.1689 76.4692 81.4306C76.4692 82.639 77.5407 83.2965 78.8932 83.2965C80.7903 83.2965 82.2131 82.2125 82.2131 80.6309V79.9201H82.1955Z" fill="#D81E1E"/>
<path d="M87.4827 83.563L88.7649 81.5905C90.1175 82.6212 91.593 83.1543 92.8753 83.1543C94.1575 83.1543 94.825 82.6212 94.825 81.7327C94.825 80.7909 93.613 80.4532 92.2429 80.0623C92.1726 80.0445 92.1024 80.009 92.0321 79.9912C90.1877 79.4403 88.115 78.6762 88.115 76.2062C88.115 73.7361 90.0823 72.3501 92.5766 72.3501C94.14 72.3501 95.8438 72.9009 97.1788 73.7895L96.037 75.8508C94.825 75.1044 93.5427 74.6602 92.5064 74.6602C91.3998 74.6602 90.7498 75.1933 90.7498 75.9752C90.7498 76.8459 91.9619 77.2191 93.332 77.6811C93.4022 77.6989 93.49 77.7344 93.5779 77.7522C95.4047 78.3208 97.4598 79.1738 97.4598 81.5017C97.4598 84.1672 95.4222 85.4822 92.805 85.4822C91.0309 85.4822 89.0636 84.8425 87.5002 83.5808L87.4827 83.563Z" fill="#D81E1E"/>
</svg>
