<?xml version="1.0" encoding="UTF-8"?>
<svg id="Capa_1" data-name="Capa 1" xmlns="http://www.w3.org/2000/svg" viewBox="0 0 76.36 68">
  <defs>
    <style>
      .cls-1 {
        fill: #61dafb;
      }
    </style>
  </defs>
  <path class="cls-1" d="M76.36,34.01c0-5.06-6.33-9.85-16.05-12.82,2.24-9.9,1.25-17.77-3.14-20.3-1.01-.59-2.19-.87-3.49-.87v3.47c.72,0,1.29.14,1.77.4,2.12,1.21,3.04,5.84,2.32,11.78-.17,1.46-.45,3-.79,4.58-3.05-.75-6.38-1.32-9.88-1.7-2.1-2.88-4.28-5.49-6.47-7.78,5.07-4.72,9.84-7.3,13.07-7.3V0c-4.28,0-9.88,3.05-15.55,8.34C32.48,3.08,26.88.06,22.6.06v3.47c3.22,0,8,2.57,13.07,7.25-2.18,2.29-4.36,4.89-6.43,7.77-3.52.37-6.85.95-9.9,1.71-.36-1.56-.62-3.07-.81-4.51-.73-5.95.17-10.57,2.27-11.8.47-.28,1.07-.4,1.79-.4V.08c-1.31,0-2.49.28-3.52.87-4.37,2.52-5.35,10.38-3.1,20.25C6.3,24.19,0,28.96,0,34.01s6.33,9.85,16.05,12.82c-2.24,9.9-1.25,17.77,3.14,20.3,1.01.59,2.19.87,3.5.87,4.28,0,9.88-3.05,15.55-8.34,5.67,5.26,11.27,8.28,15.55,8.28,1.31,0,2.49-.28,3.52-.87,4.37-2.52,5.35-10.38,3.1-20.25,9.65-2.97,15.95-7.77,15.95-12.81h0ZM56.09,23.63c-.58,2.01-1.29,4.08-2.1,6.15-.64-1.25-1.31-2.49-2.04-3.74-.72-1.25-1.48-2.46-2.24-3.64,2.21.33,4.34.73,6.38,1.23h0ZM48.96,40.2c-1.21,2.1-2.46,4.09-3.75,5.95-2.32.2-4.67.31-7.04.31s-4.7-.11-7-.3c-1.29-1.85-2.55-3.83-3.77-5.91-1.18-2.04-2.26-4.11-3.24-6.19.96-2.09,2.05-4.17,3.22-6.21,1.21-2.1,2.46-4.09,3.75-5.95,2.32-.2,4.67-.31,7.04-.31s4.7.11,7,.3c1.29,1.85,2.55,3.83,3.77,5.91,1.18,2.04,2.26,4.11,3.24,6.19-.98,2.09-2.05,4.17-3.22,6.21h0ZM53.99,38.18c.84,2.09,1.56,4.17,2.15,6.19-2.04.5-4.19.92-6.41,1.25.76-1.2,1.53-2.43,2.24-3.69.72-1.25,1.39-2.51,2.02-3.75h0ZM38.21,54.79c-1.45-1.49-2.89-3.16-4.33-4.98,1.4.06,2.83.11,4.28.11s2.91-.03,4.33-.11c-1.4,1.82-2.85,3.49-4.28,4.98ZM26.63,45.62c-2.21-.33-4.34-.73-6.38-1.23.58-2.01,1.29-4.08,2.1-6.15.64,1.25,1.31,2.49,2.04,3.74s1.48,2.46,2.24,3.64ZM38.13,13.23c1.45,1.49,2.89,3.16,4.33,4.98-1.4-.06-2.83-.11-4.28-.11s-2.91.03-4.33.11c1.4-1.82,2.85-3.49,4.28-4.98ZM26.61,22.4c-.76,1.2-1.53,2.43-2.24,3.69-.72,1.25-1.39,2.49-2.02,3.74-.84-2.09-1.56-4.17-2.15-6.19,2.04-.48,4.19-.9,6.41-1.23h0ZM12.53,41.88c-5.51-2.35-9.07-5.43-9.07-7.88s3.56-5.54,9.07-7.88c1.34-.58,2.8-1.09,4.31-1.57.89,3.05,2.05,6.23,3.5,9.48-1.43,3.24-2.58,6.4-3.46,9.43-1.54-.48-3-1.01-4.36-1.59h0ZM20.9,64.12c-2.12-1.21-3.04-5.84-2.32-11.78.17-1.46.45-3,.79-4.58,3.05.75,6.38,1.32,9.88,1.7,2.1,2.88,4.28,5.49,6.47,7.78-5.07,4.72-9.84,7.3-13.07,7.3-.7-.02-1.29-.16-1.76-.42h0ZM57.82,52.26c.73,5.95-.17,10.57-2.27,11.8-.47.28-1.07.4-1.79.4-3.22,0-8-2.57-13.07-7.25,2.18-2.29,4.36-4.89,6.43-7.77,3.52-.37,6.85-.95,9.9-1.71.36,1.57.64,3.08.81,4.53ZM63.81,41.88c-1.34.58-2.8,1.09-4.31,1.57-.89-3.05-2.05-6.23-3.5-9.48,1.43-3.24,2.58-6.4,3.46-9.43,1.54.48,3,1.01,4.37,1.59,5.51,2.35,9.07,5.43,9.07,7.88-.02,2.44-3.58,5.54-9.09,7.88h0Z"/>
  <circle class="cls-1" cx="38.16" cy="34.01" r="7.11"/>
</svg>