<svg width="139" height="76" viewBox="0 0 139 76" fill="none" xmlns="http://www.w3.org/2000/svg">
<path d="M40.1359 70.9483C39.4436 70.5868 38.9029 70.0999 38.5138 69.4839C38.1266 68.8698 37.9165 68.1929 37.8855 67.4552H40.3971C40.4738 68.0546 40.7021 68.5157 41.082 68.8384C41.462 69.1612 41.9643 69.3216 42.589 69.3216C43.168 69.3216 43.6247 69.2036 43.959 68.9638C44.2932 68.7259 44.4613 68.3755 44.4613 67.9144C44.4613 67.5917 44.3553 67.3298 44.1416 67.1306C43.9279 66.9314 43.6503 66.7691 43.3087 66.6474C42.9653 66.5238 42.536 66.3929 42.0191 66.2564C41.1971 66.0572 40.5304 65.8562 40.0208 65.657C39.5112 65.4578 39.0691 65.1259 38.6965 64.6648C38.3239 64.2037 38.1375 63.5804 38.1375 62.7984C38.1375 62.1842 38.3092 61.6272 38.6508 61.1274C38.9942 60.6276 39.4728 60.233 40.0902 59.9397C40.7076 59.6483 41.4108 59.5008 42.2018 59.5008C43.084 59.5008 43.8567 59.6465 44.5197 59.9397C45.181 60.2311 45.707 60.6461 46.0943 61.1846C46.4815 61.7232 46.7299 62.3687 46.8359 63.1211H44.3243C44.2476 62.6287 44.0192 62.2488 43.6393 61.9795C43.2594 61.7102 42.779 61.5756 42.1999 61.5756C41.7287 61.5756 41.3469 61.6715 41.0583 61.8633C40.7697 62.0551 40.6236 62.3133 40.6236 62.6361C40.6236 62.9275 40.7222 63.1635 40.9195 63.3387C41.1168 63.5158 41.3688 63.6541 41.672 63.7537C41.9771 63.8533 42.3881 63.9658 42.905 64.0875C43.7416 64.2867 44.4375 64.4988 44.9947 64.722C45.5499 64.9451 46.0249 65.3066 46.4212 65.8064C46.8176 66.3062 47.0149 66.9868 47.0149 67.8462C47.0149 68.5378 46.8213 69.1593 46.4322 69.7126C46.0431 70.2659 45.5152 70.7011 44.8449 71.0147C44.1745 71.3301 43.4219 71.4868 42.5835 71.4868C41.6392 71.4868 40.8208 71.3061 40.1286 70.9446L40.1359 70.9483Z" fill="#FF5500"/>
<path d="M49.0059 59.6852H51.7239V61.2068C52.0436 60.6996 52.5349 60.2883 53.1962 59.9729C53.8574 59.6575 54.5698 59.5008 55.3315 59.5008C56.4585 59.5008 57.4503 59.7461 58.3107 60.2385C59.171 60.7309 59.8323 61.4299 60.298 62.3373C60.762 63.2447 60.994 64.2959 60.994 65.4947C60.994 66.6935 60.762 67.7466 60.298 68.6521C59.8341 69.5595 59.171 70.2585 58.3107 70.751C57.4503 71.2434 56.4567 71.4887 55.3315 71.4887C54.5698 71.4887 53.8592 71.3301 53.1962 71.0165C52.5331 70.703 52.0436 70.2825 51.7239 69.7606V75.5H49.0296L49.0077 59.6852H49.0059ZM56.6777 68.6761C57.1654 68.3681 57.5526 67.9384 57.8431 67.3851C58.1317 66.8318 58.2778 66.2011 58.2778 65.4947C58.2778 64.7884 58.1335 64.1336 57.8431 63.5803C57.5545 63.0271 57.1654 62.5973 56.6777 62.2893C56.19 61.9813 55.6274 61.8283 54.9881 61.8283C54.3488 61.8283 53.8008 61.9813 53.2985 62.2893C52.7961 62.5973 52.4071 63.0271 52.1331 63.5803C51.8591 64.1336 51.7221 64.7718 51.7221 65.4947C51.7221 66.2177 51.8591 66.8318 52.1331 67.3851C52.4071 67.9384 52.7943 68.3681 53.2985 68.6761C53.8008 68.9841 54.3634 69.1372 54.9881 69.1372C55.6128 69.1372 56.19 68.9841 56.6777 68.6761Z" fill="#FF5500"/>
<path d="M65.3413 70.7178C64.4353 70.2032 63.7229 69.4876 63.206 68.5747C62.6891 67.6599 62.4297 66.6271 62.4297 65.4744C62.4297 64.3218 62.6836 63.2926 63.195 62.3853C63.7047 61.4779 64.4134 60.7715 65.3176 60.2643C66.2236 59.7571 67.2465 59.5045 68.3881 59.5045C69.5297 59.5045 70.5764 59.759 71.4824 60.2643C72.3884 60.7715 73.099 61.4779 73.6177 62.3853C74.1346 63.2926 74.394 64.3218 74.394 65.4744C74.394 66.6271 74.1346 67.6618 73.6177 68.5747C73.1008 69.4895 72.3848 70.2032 71.4714 70.7178C70.5581 71.2323 69.5389 71.4905 68.4119 71.4905C67.2848 71.4905 66.2455 71.2342 65.3413 70.7178ZM70.0796 68.7001C70.5673 68.3921 70.9509 67.9587 71.2321 67.398C71.5135 66.8374 71.6541 66.1956 71.6541 65.4726C71.6541 64.7496 71.5135 64.1355 71.2321 63.5822C70.9509 63.0289 70.5654 62.5992 70.0796 62.2912C69.5919 61.9832 69.0366 61.8301 68.4137 61.8301C67.7908 61.8301 67.2118 61.9832 66.7241 62.2912C66.2364 62.5992 65.8528 63.0289 65.5715 63.5822C65.2902 64.1355 65.1495 64.7662 65.1495 65.4726C65.1495 66.179 65.2902 66.8374 65.5715 67.398C65.8528 67.9587 66.2364 68.3939 66.7241 68.7001C67.2118 69.0081 67.7744 69.1612 68.4137 69.1612C69.053 69.1612 69.5937 69.0081 70.0796 68.7001Z" fill="#FF5500"/>
<path d="M82.2485 62.1068C81.6402 62.1068 81.1032 62.2801 80.6392 62.625C80.1753 62.9717 79.8026 63.5047 79.5213 64.2277C79.24 64.9507 79.0994 65.8562 79.0994 66.948V71.3042H76.4051V59.6852H79.0994V61.3451C79.4501 60.7918 79.9287 60.3455 80.5388 60.008C81.147 59.6705 81.7717 59.5008 82.411 59.5008C82.6248 59.5008 82.8147 59.5229 82.9809 59.5709V62.199C82.7672 62.1381 82.5243 62.1068 82.2503 62.1068H82.2485Z" fill="#FF5500"/>
<path d="M83.6641 59.6852H90.9925V61.8984H83.6641V59.6852ZM87.4324 71.0276C86.8388 70.7196 86.3711 70.2714 86.0277 69.6794C85.6843 69.0874 85.5145 68.37 85.5145 67.5234V56.8266H88.2325V67.2929C88.2325 67.8775 88.3731 68.3276 88.6544 68.6411C88.9357 68.9565 89.3193 69.1132 89.807 69.1132C90.0207 69.1132 90.2417 69.0911 90.4682 69.0431C90.6947 68.9952 90.903 68.9435 91.0856 68.8808V71.1862C90.8427 71.2932 90.5833 71.3706 90.3093 71.4167C90.0353 71.4628 89.754 71.4868 89.4654 71.4868C88.7037 71.4868 88.0261 71.3337 87.4342 71.0257L87.4324 71.0276Z" fill="#FF5500"/>
<path d="M94.4082 70.9483C93.716 70.5868 93.1753 70.0999 92.7862 69.4839C92.399 68.8698 92.1889 68.1929 92.1579 67.4552H94.6694C94.7462 68.0546 94.9745 68.5157 95.3544 68.8384C95.7344 69.1612 96.2367 69.3216 96.8614 69.3216C97.4404 69.3216 97.8971 69.2036 98.2313 68.9638C98.5656 68.7259 98.7337 68.3755 98.7337 67.9144C98.7337 67.5917 98.6277 67.3298 98.414 67.1306C98.2003 66.9314 97.9226 66.7691 97.5811 66.6474C97.2377 66.5238 96.8084 66.3929 96.2915 66.2564C95.4695 66.0572 94.8028 65.8562 94.2932 65.657C93.7835 65.4578 93.3415 65.1259 92.9689 64.6648C92.5962 64.2037 92.4099 63.5804 92.4099 62.7984C92.4099 62.1842 92.5816 61.6272 92.9232 61.1274C93.2666 60.6276 93.7452 60.233 94.3626 59.9397C94.98 59.6483 95.6832 59.5008 96.4741 59.5008C97.3564 59.5008 98.1291 59.6465 98.7921 59.9397C99.4534 60.2311 99.9794 60.6461 100.367 61.1846C100.754 61.7232 101.002 62.3687 101.108 63.1211H98.5967C98.5199 62.6287 98.2916 62.2488 97.9117 61.9795C97.5318 61.7102 97.0514 61.5756 96.4723 61.5756C96.001 61.5756 95.6193 61.6715 95.3307 61.8633C95.0421 62.0551 94.8959 62.3133 94.8959 62.6361C94.8959 62.9275 94.9946 63.1635 95.1919 63.3387C95.3891 63.5158 95.6412 63.6541 95.9444 63.7537C96.2495 63.8533 96.6605 63.9658 97.1774 64.0875C98.014 64.2867 98.7099 64.4988 99.267 64.722C99.8223 64.9451 100.297 65.3066 100.694 65.8064C101.09 66.3062 101.287 66.9868 101.287 67.8462C101.287 68.5378 101.094 69.1593 100.705 69.7126C100.316 70.2659 99.7876 70.7011 99.1173 71.0147C98.4469 71.3301 97.6943 71.4868 96.8559 71.4868C95.9116 71.4868 95.0932 71.3061 94.4009 70.9446L94.4082 70.9483Z" fill="#FF5500"/>
<path d="M56.9389 37.5722L45.8787 10.5109C45.4531 9.39326 44.9435 9.05022 43.9224 8.8787L34.4788 6.9883C33.5436 6.81678 32.8623 7.50286 32.6066 8.3623L25.2891 36.0248C25.0334 36.8842 24.9494 37.4855 25.1193 38.4298L26.2262 45.7313C26.4819 47.2768 25.375 47.7932 24.8654 46.161L12.0133 3.46755C11.7576 2.6948 11.1621 2.34991 10.3967 2.17839L2.73957 0.546197C1.29289 0.203159 0.271813 1.83536 0.697415 3.29603L16.3533 55.1833C16.9488 57.0737 17.4603 57.6749 19.4166 57.2452L28.6903 55.0985C29.7114 54.8403 30.3068 54.239 30.5626 53.2947L37.7941 26.5784L40.0062 17.3864C40.3459 16.0973 41.1971 16.4421 41.1131 17.5579L40.9432 19.1901C40.7733 21.1654 40.6875 25.1177 42.4739 29.07L51.4079 48.6564C52.429 50.9765 52.9386 51.491 54.9808 51.148L61.2771 50.0303C62.384 49.8588 62.9795 49.2576 63.2334 48.2266L71.5719 15.153C72.3373 11.9753 70.8066 11.5455 68.8484 11.3722L62.8078 10.9425C62.0425 10.8558 61.2771 11.457 61.1054 12.2316L57.2768 28.1239C56.7672 30.0991 56.5115 31.3883 57.0211 33.192L58.128 37.0576C58.5536 38.5183 57.5325 38.948 56.9371 37.5722H56.9389ZM113.86 53.5511L99.9904 29.153L97.013 22.9672C96.2476 21.335 95.1407 21.7648 95.822 23.4818L97.6943 28.0353C98.3756 29.6675 98.1199 30.3555 97.5244 32.7604L93.2703 49.4273C93.1004 50.2 92.335 50.8879 91.5679 50.8013L84.0806 50.0285C82.8896 49.9418 82.2941 48.9109 82.6339 47.5369L91.398 12.6595C91.6537 11.6285 92.3332 10.9406 93.6959 10.7691L98.5455 10.0812C100.332 9.82298 100.927 10.5957 101.439 11.5419L113.095 31.901C116.839 38.5164 118.626 41.9524 120.668 45.9047C121.433 47.3654 122.37 46.8489 121.859 45.3901L119.902 39.291C119.137 36.7994 119.051 36.0267 119.816 33.1053L127.048 4.75671C127.304 3.89727 127.983 3.63907 128.75 3.38272L136.408 0.977761C137.854 0.548041 138.875 1.92204 138.534 3.29788L125.431 55.6149C125.176 56.4743 124.496 57.1604 123.729 56.9889L115.902 55.0136C114.881 54.7554 114.371 54.4124 113.86 53.5529V53.5511ZM76.6773 49.7703H69.6156C68.1689 49.7703 67.2337 48.4811 67.5734 47.1072L75.7421 14.6347C76.3375 12.2298 77.0189 11.6285 79.5707 11.6285H84.9318C86.3784 11.6285 87.3137 13.0025 86.9739 14.3784L78.3797 48.3982C78.124 49.2576 77.4445 49.7722 76.6773 49.7722V49.7703Z" fill="#FF5500"/>
</svg>
