<?xml version="1.0" encoding="UTF-8"?>
<svg id="Capa_1" data-name="Capa 1" xmlns="http://www.w3.org/2000/svg" viewBox="0 0 29.48 36.85">
  <defs>
    <style>
      .cls-1 {
        fill: #fff;
      }

      .cls-2 {
        fill: #c61e1d;
      }
    </style>
  </defs>
  <path class="cls-2" d="M26.99,0H0v26.99c0,.33.06.65.18.96.12.3.31.58.54.81.23.23.51.42.81.54.3.12.63.19.96.18h12.25v7.37l7.37-7.37h7.37V2.49c0-.33-.06-.65-.18-.96-.12-.3-.31-.58-.54-.81-.23-.23-.51-.42-.81-.54C27.64.06,27.32,0,26.99,0ZM3.14,18.33l1.64-.4V7.47l-1.64-.45v-1.15h6.87v1.15l-2.29.45v10.66h3.24l.85-3.24h1.39v4.58H3.09l.05-1.15ZM19.02,13.3h-.5v4.63l1.64.45v1.15h-6.23v-1.15l1.64-.45V7.47l-1.64-.45v-1.15h6.08c3.44,0,5.03,1.29,5.03,3.54,0,1.59-1,2.74-2.84,3.29,1.1.35,1.74,1.15,2.19,2.59.75,2.64,1.25,2.99,1.99,3.04v1.15c-.48.16-.99.24-1.49.25-1.64,0-2.39-.55-3.24-3.54-.7-2.39-1.1-2.89-2.64-2.89"/>
  <path class="cls-1" d="M10.2,25.08h-.66v-3.38h-1.17v-.59h2.94v.51h-1.17v3.45h.07Z"/>
  <path class="cls-1" d="M13.94,25.08h-2.2v-3.97h2.2v.51h-1.54v1.1h1.47v.51h-1.47v1.25h1.54v.59Z"/>
  <path class="cls-1" d="M16.3,21.63c-.16,0-.33.03-.48.09-.15.06-.29.16-.4.27-.23.32-.33.71-.29,1.1-.04.39.07.78.29,1.1.11.12.25.21.4.27.15.06.31.1.48.09.17,0,.35-.02.51-.07.18-.02.35-.07.51-.15v.51c-.33.13-.68.18-1.03.15-.25.02-.49-.01-.72-.1-.23-.09-.44-.23-.6-.41-.32-.42-.48-.94-.44-1.47,0-.38.07-.75.22-1.1.16-.29.38-.55.66-.73.32-.16.67-.23,1.03-.22.38,0,.75.08,1.1.22l-.37.66c-.13-.08-.28-.13-.44-.15-.07-.07-.22-.07-.44-.07"/>
  <path class="cls-1" d="M21.07,25.08h-.66v-1.76h-1.84v1.76h-.66v-3.97h.66v1.62h1.84v-1.62h.66v3.97Z"/>
  <path class="cls-2" d="M19.77,7.27h-1.25v4.68h1.39c1.2,0,2.09-.8,2.09-2.34,0-1.69-.95-2.34-2.24-2.34Z"/>
</svg>